<?xml version="1.0" standalone="no"?>
 <!DOCTYPE svg PUBLIC "-//W3C//DTD SVG 1.1//EN" 
 "http://www.w3.org/Graphics/SVG/1.1/DTD/svg11.dtd"> 
<svg xmlns="http://www.w3.org/2000/svg" version="1.1" 
    width="29.7002cm" height="21.0007cm" viewBox="0 0 116930 82680 ">
<title>SVG Picture created as LEDX4-12V-Dessus_Cu.svg date 2014/05/08 17:43:10 </title>
  <desc>Picture generated by PCBNEW </desc>
<g style="fill:#000000; fill-opacity:1;stroke:#000000; stroke-opacity:1;
stroke-linecap:round; stroke-linejoin:round; "
 transform="translate(0 0) scale(1 1)">
</g>
<g style="fill:#000000; fill-opacity:0.0; 
stroke:#000000; stroke-width:39.3701; stroke-opacity:1; 
stroke-linecap:round; stroke-linejoin:round;">
</g>
<g style="fill:#000000; fill-opacity:1.0; 
stroke:#000000; stroke-width:39.3701; stroke-opacity:1; 
stroke-linecap:round; stroke-linejoin:round;">
<polyline style="fill-rule:evenodd;"
points="26441,41525
29158,41525
29158,40384
26441,40384
26441,41525
" /> 
<polyline style="fill-rule:evenodd;"
points="26441,37525
29158,37525
29158,36384
26441,36384
26441,37525
" /> 
<polyline style="fill-rule:evenodd;"
points="26023,40017
29526,40017
29526,37892
26023,37892
26023,40017
" /> 
<polyline style="fill-rule:evenodd;"
points="26441,61525
29158,61525
29158,60384
26441,60384
26441,61525
" /> 
<polyline style="fill-rule:evenodd;"
points="26441,57525
29158,57525
29158,56384
26441,56384
26441,57525
" /> 
<polyline style="fill-rule:evenodd;"
points="26023,60017
29526,60017
29526,57892
26023,57892
26023,60017
" /> 
<polyline style="fill-rule:evenodd;"
points="26441,51525
29158,51525
29158,50384
26441,50384
26441,51525
" /> 
<polyline style="fill-rule:evenodd;"
points="26441,47525
29158,47525
29158,46384
26441,46384
26441,47525
" /> 
<polyline style="fill-rule:evenodd;"
points="26023,50017
29526,50017
29526,47892
26023,47892
26023,50017
" /> 
<polyline style="fill-rule:evenodd;"
points="26441,31525
29158,31525
29158,30384
26441,30384
26441,31525
" /> 
<polyline style="fill-rule:evenodd;"
points="26441,27525
29158,27525
29158,26384
26441,26384
26441,27525
" /> 
<polyline style="fill-rule:evenodd;"
points="26023,30017
29526,30017
29526,27892
26023,27892
26023,30017
" /> 
<polyline style="fill-rule:evenodd;"
points="28634,65373
28634,64586
27965,64586
27965,65373
28634,65373
" /> 
<circle cx="29300" cy="64980" r="393.815" /> 
<polyline style="fill-rule:evenodd;"
points="26634,65373
26634,64586
25965,64586
25965,65373
26634,65373
" /> 
<circle cx="27300" cy="64980" r="393.815" /> 
<polyline style="fill-rule:evenodd;"
points="26919,54910
27680,54910
27680,54349
26919,54349
26919,54910
" /> 
<polyline style="fill-rule:evenodd;"
points="26919,53610
27680,53610
27680,53049
26919,53049
26919,53610
" /> 
<polyline style="fill-rule:evenodd;"
points="27919,44910
28680,44910
28680,44349
27919,44349
27919,44910
" /> 
<polyline style="fill-rule:evenodd;"
points="27919,43610
28680,43610
28680,43049
27919,43049
27919,43610
" /> 
<polyline style="fill-rule:evenodd;"
points="28919,34910
29680,34910
29680,34349
28919,34349
28919,34910
" /> 
<polyline style="fill-rule:evenodd;"
points="28919,33610
29680,33610
29680,33049
28919,33049
28919,33610
" /> 
<polyline style="fill-rule:evenodd;"
points="26919,24910
27680,24910
27680,24349
26919,24349
26919,24910
" /> 
<polyline style="fill-rule:evenodd;"
points="26919,23610
27680,23610
27680,23049
26919,23049
26919,23610
" /> 
<polyline style="fill-rule:evenodd;"
points="25919,44910
26680,44910
26680,44349
25919,44349
25919,44910
" /> 
<polyline style="fill-rule:evenodd;"
points="25919,43610
26680,43610
26680,43049
25919,43049
25919,43610
" /> 
<polyline style="fill-rule:evenodd;"
points="26919,44910
27680,44910
27680,44349
26919,44349
26919,44910
" /> 
<polyline style="fill-rule:evenodd;"
points="26919,43610
27680,43610
27680,43049
26919,43049
26919,43610
" /> 
<polyline style="fill-rule:evenodd;"
points="25919,34910
26680,34910
26680,34349
25919,34349
25919,34910
" /> 
<polyline style="fill-rule:evenodd;"
points="25919,33610
26680,33610
26680,33049
25919,33049
25919,33610
" /> 
<polyline style="fill-rule:evenodd;"
points="26919,34910
27680,34910
27680,34349
26919,34349
26919,34910
" /> 
<polyline style="fill-rule:evenodd;"
points="26919,33610
27680,33610
27680,33049
26919,33049
26919,33610
" /> 
<polyline style="fill-rule:evenodd;"
points="28919,54910
29680,54910
29680,54349
28919,54349
28919,54910
" /> 
<polyline style="fill-rule:evenodd;"
points="28919,53610
29680,53610
29680,53049
28919,53049
28919,53610
" /> 
<polyline style="fill-rule:evenodd;"
points="27919,54910
28680,54910
28680,54349
27919,54349
27919,54910
" /> 
<polyline style="fill-rule:evenodd;"
points="27919,53610
28680,53610
28680,53049
27919,53049
27919,53610
" /> 
<polyline style="fill-rule:evenodd;"
points="25919,54910
26680,54910
26680,54349
25919,54349
25919,54910
" /> 
<polyline style="fill-rule:evenodd;"
points="25919,53610
26680,53610
26680,53049
25919,53049
25919,53610
" /> 
<polyline style="fill-rule:evenodd;"
points="27919,34910
28680,34910
28680,34349
27919,34349
27919,34910
" /> 
<polyline style="fill-rule:evenodd;"
points="27919,33610
28680,33610
28680,33049
27919,33049
27919,33610
" /> 
<polyline style="fill-rule:evenodd;"
points="28919,24910
29680,24910
29680,24349
28919,24349
28919,24910
" /> 
<polyline style="fill-rule:evenodd;"
points="28919,23610
29680,23610
29680,23049
28919,23049
28919,23610
" /> 
<polyline style="fill-rule:evenodd;"
points="25919,24910
26680,24910
26680,24349
25919,24349
25919,24910
" /> 
<polyline style="fill-rule:evenodd;"
points="25919,23610
26680,23610
26680,23049
25919,23049
25919,23610
" /> 
<polyline style="fill-rule:evenodd;"
points="27919,24910
28680,24910
28680,24349
27919,24349
27919,24910
" /> 
<polyline style="fill-rule:evenodd;"
points="27919,23610
28680,23610
28680,23049
27919,23049
27919,23610
" /> 
<polyline style="fill-rule:evenodd;"
points="28919,44910
29680,44910
29680,44349
28919,44349
28919,44910
" /> 
<polyline style="fill-rule:evenodd;"
points="28919,43610
29680,43610
29680,43049
28919,43049
28919,43610
" /> 
<polyline style="fill-rule:evenodd;"
points="19919,44910
20680,44910
20680,44349
19919,44349
19919,44910
" /> 
<polyline style="fill-rule:evenodd;"
points="19919,43610
20680,43610
20680,43049
19919,43049
19919,43610
" /> 
<polyline style="fill-rule:evenodd;"
points="18919,24910
19680,24910
19680,24349
18919,24349
18919,24910
" /> 
<polyline style="fill-rule:evenodd;"
points="18919,23610
19680,23610
19680,23049
18919,23049
18919,23610
" /> 
<polyline style="fill-rule:evenodd;"
points="16919,24910
17680,24910
17680,24349
16919,24349
16919,24910
" /> 
<polyline style="fill-rule:evenodd;"
points="16919,23610
17680,23610
17680,23049
16919,23049
16919,23610
" /> 
<polyline style="fill-rule:evenodd;"
points="19919,24910
20680,24910
20680,24349
19919,24349
19919,24910
" /> 
<polyline style="fill-rule:evenodd;"
points="19919,23610
20680,23610
20680,23049
19919,23049
19919,23610
" /> 
<polyline style="fill-rule:evenodd;"
points="18919,34910
19680,34910
19680,34349
18919,34349
18919,34910
" /> 
<polyline style="fill-rule:evenodd;"
points="18919,33610
19680,33610
19680,33049
18919,33049
18919,33610
" /> 
<polyline style="fill-rule:evenodd;"
points="16919,54910
17680,54910
17680,54349
16919,54349
16919,54910
" /> 
<polyline style="fill-rule:evenodd;"
points="16919,53610
17680,53610
17680,53049
16919,53049
16919,53610
" /> 
<polyline style="fill-rule:evenodd;"
points="18919,54910
19680,54910
19680,54349
18919,54349
18919,54910
" /> 
<polyline style="fill-rule:evenodd;"
points="18919,53610
19680,53610
19680,53049
18919,53049
18919,53610
" /> 
<polyline style="fill-rule:evenodd;"
points="19919,54910
20680,54910
20680,54349
19919,54349
19919,54910
" /> 
<polyline style="fill-rule:evenodd;"
points="19919,53610
20680,53610
20680,53049
19919,53049
19919,53610
" /> 
<polyline style="fill-rule:evenodd;"
points="17919,34910
18680,34910
18680,34349
17919,34349
17919,34910
" /> 
<polyline style="fill-rule:evenodd;"
points="17919,33610
18680,33610
18680,33049
17919,33049
17919,33610
" /> 
<polyline style="fill-rule:evenodd;"
points="16919,34910
17680,34910
17680,34349
16919,34349
16919,34910
" /> 
<polyline style="fill-rule:evenodd;"
points="16919,33610
17680,33610
17680,33049
16919,33049
16919,33610
" /> 
<polyline style="fill-rule:evenodd;"
points="17919,44910
18680,44910
18680,44349
17919,44349
17919,44910
" /> 
<polyline style="fill-rule:evenodd;"
points="17919,43610
18680,43610
18680,43049
17919,43049
17919,43610
" /> 
<polyline style="fill-rule:evenodd;"
points="16919,44910
17680,44910
17680,44349
16919,44349
16919,44910
" /> 
<polyline style="fill-rule:evenodd;"
points="16919,43610
17680,43610
17680,43049
16919,43049
16919,43610
" /> 
<polyline style="fill-rule:evenodd;"
points="17919,24910
18680,24910
18680,24349
17919,24349
17919,24910
" /> 
<polyline style="fill-rule:evenodd;"
points="17919,23610
18680,23610
18680,23049
17919,23049
17919,23610
" /> 
<polyline style="fill-rule:evenodd;"
points="19919,34910
20680,34910
20680,34349
19919,34349
19919,34910
" /> 
<polyline style="fill-rule:evenodd;"
points="19919,33610
20680,33610
20680,33049
19919,33049
19919,33610
" /> 
<polyline style="fill-rule:evenodd;"
points="18919,44910
19680,44910
19680,44349
18919,44349
18919,44910
" /> 
<polyline style="fill-rule:evenodd;"
points="18919,43610
19680,43610
19680,43049
18919,43049
18919,43610
" /> 
<polyline style="fill-rule:evenodd;"
points="17919,54910
18680,54910
18680,54349
17919,54349
17919,54910
" /> 
<polyline style="fill-rule:evenodd;"
points="17919,53610
18680,53610
18680,53049
17919,53049
17919,53610
" /> 
<polyline style="fill-rule:evenodd;"
points="17634,65373
17634,64586
16965,64586
16965,65373
17634,65373
" /> 
<circle cx="18300" cy="64980" r="393.815" /> 
<polyline style="fill-rule:evenodd;"
points="19634,65373
19634,64586
18965,64586
18965,65373
19634,65373
" /> 
<circle cx="20300" cy="64980" r="393.815" /> 
<polyline style="fill-rule:evenodd;"
points="17441,31525
20158,31525
20158,30384
17441,30384
17441,31525
" /> 
<polyline style="fill-rule:evenodd;"
points="17441,27525
20158,27525
20158,26384
17441,26384
17441,27525
" /> 
<polyline style="fill-rule:evenodd;"
points="17023,30017
20526,30017
20526,27892
17023,27892
17023,30017
" /> 
<polyline style="fill-rule:evenodd;"
points="17441,51525
20158,51525
20158,50384
17441,50384
17441,51525
" /> 
<polyline style="fill-rule:evenodd;"
points="17441,47525
20158,47525
20158,46384
17441,46384
17441,47525
" /> 
<polyline style="fill-rule:evenodd;"
points="17023,50017
20526,50017
20526,47892
17023,47892
17023,50017
" /> 
<polyline style="fill-rule:evenodd;"
points="17441,61525
20158,61525
20158,60384
17441,60384
17441,61525
" /> 
<polyline style="fill-rule:evenodd;"
points="17441,57525
20158,57525
20158,56384
17441,56384
17441,57525
" /> 
<polyline style="fill-rule:evenodd;"
points="17023,60017
20526,60017
20526,57892
17023,57892
17023,60017
" /> 
<polyline style="fill-rule:evenodd;"
points="17441,41525
20158,41525
20158,40384
17441,40384
17441,41525
" /> 
<polyline style="fill-rule:evenodd;"
points="17441,37525
20158,37525
20158,36384
17441,36384
17441,37525
" /> 
<polyline style="fill-rule:evenodd;"
points="17023,40017
20526,40017
20526,37892
17023,37892
17023,40017
" /> 
</g>
<g style="fill:#000000; fill-opacity:1.0; 
stroke:#000000; stroke-width:787.402; stroke-opacity:1; 
stroke-linecap:round; stroke-linejoin:round;">
<path d="M27300 61455
L27800 60955
" />
<path d="M27300 62480
L27300 61455
" />
<path d="M27300 62980
L27300 62480
" />
<path d="M27300 64980
L27300 62980
" />
<path d="M28800 62980
L29300 63480
" />
<path d="M29300 63480
L29300 64980
" />
<path d="M27300 62980
L28800 62980
" />
<path d="M28800 61480
L27800 60955
" />
<path d="M28800 61980
L28800 61480
" />
<path d="M28800 62480
L28800 61980
" />
<path d="M28800 62980
L28800 62480
" />
<path d="M28800 61980
L27800 61980
" />
<path d="M28800 62480
L27300 62480
" />
<path d="M26800 62980
L26800 61980
" />
<path d="M27300 62980
L26800 62980
" />
<path d="M26800 61480
L27800 60955
" />
<path d="M26800 61980
L26800 61480
" />
</g>
<g style="fill:#000000; fill-opacity:1.0; 
stroke:#000000; stroke-width:1574.8; stroke-opacity:1; 
stroke-linecap:round; stroke-linejoin:round;">
<path d="M27750 28980
L27775 28955
" />
<path d="M27775 58955
L24325 58955
" />
<path d="M23800 38955
L23800 28980
" />
<path d="M23800 48955
L23800 38955
" />
<path d="M23800 57480
L23800 48955
" />
<path d="M23800 58430
L23800 57480
" />
<path d="M24325 58955
L23800 58430
" />
<path d="M24800 28980
L27750 28980
" />
<path d="M23800 28980
L24800 28980
" />
<path d="M27775 38955
L23800 38955
" />
<path d="M27775 48955
L23800 48955
" />
<path d="M24800 58480
L24325 58955
" />
<path d="M24800 58955
L24800 58480
" />
<path d="M24800 28980
L24800 58955
" />
<path d="M23800 28980
L23800 23480
" />
<path d="M24800 28980
L24800 23480
" />
<path d="M24800 58955
L24800 65980
" />
<path d="M23800 57480
L23800 65980
" />
<path d="M14800 57480
L14800 65980
" />
<path d="M15800 58955
L15800 65980
" />
<path d="M15800 28980
L15800 23480
" />
<path d="M14800 28980
L14800 23480
" />
<path d="M15800 28980
L15800 58955
" />
<path d="M15800 58955
L15800 58480
" />
<path d="M15800 58480
L15325 58955
" />
<path d="M18775 48955
L14800 48955
" />
<path d="M18775 38955
L14800 38955
" />
<path d="M14800 28980
L15800 28980
" />
<path d="M15800 28980
L18750 28980
" />
<path d="M15325 58955
L14800 58430
" />
<path d="M14800 58430
L14800 57480
" />
<path d="M14800 57480
L14800 48955
" />
<path d="M14800 48955
L14800 38955
" />
<path d="M14800 38955
L14800 28980
" />
<path d="M18775 58955
L15325 58955
" />
<path d="M18750 28980
L18775 28955
" />
</g>
<g style="fill:#000000; fill-opacity:1.0; 
stroke:#000000; stroke-width:787.402; stroke-opacity:1; 
stroke-linecap:round; stroke-linejoin:round;">
<path d="M17800 61980
L17800 61480
" />
<path d="M17800 61480
L18800 60955
" />
<path d="M18300 62980
L17800 62980
" />
<path d="M17800 62980
L17800 61980
" />
<path d="M19800 62480
L18300 62480
" />
<path d="M19800 61980
L18800 61980
" />
<path d="M19800 62980
L19800 62480
" />
<path d="M19800 62480
L19800 61980
" />
<path d="M19800 61980
L19800 61480
" />
<path d="M19800 61480
L18800 60955
" />
<path d="M18300 62980
L19800 62980
" />
<path d="M20300 63480
L20300 64980
" />
<path d="M19800 62980
L20300 63480
" />
<path d="M18300 64980
L18300 62980
" />
<path d="M18300 62980
L18300 62480
" />
<path d="M18300 62480
L18300 61455
" />
<path d="M18300 61455
L18800 60955
" />
</g>
<g style="fill:#000000; fill-opacity:1.0; 
stroke:#000000; stroke-width:590.551; stroke-opacity:1; 
stroke-linecap:round; stroke-linejoin:round;">
<path d="M26300 41980
L26800 41480
" />
<path d="M26800 41480
L27800 40955
" />
<path d="M26300 43330
L26300 41980
" />
<path d="M26800 43330
L27300 43330
" />
<path d="M26300 43330
L26800 43330
" />
<path d="M27800 43330
L28300 43330
" />
<path d="M27300 43330
L27800 43330
" />
<path d="M28800 43330
L29300 43330
" />
<path d="M28300 43330
L28800 43330
" />
<path d="M29300 43330
L29300 41480
" />
<path d="M28800 41480
L27800 40955
" />
<path d="M28800 43330
L28800 41480
" />
<path d="M28300 41455
L27800 40955
" />
<path d="M28300 43330
L28300 41455
" />
<path d="M27800 43330
L27800 40955
" />
<path d="M27300 41455
L27800 40955
" />
<path d="M27300 43330
L27300 41455
" />
<path d="M26800 43330
L26800 41980
" />
<path d="M17800 43330
L17800 41980
" />
<path d="M18300 43330
L18300 41455
" />
<path d="M18300 41455
L18800 40955
" />
<path d="M18800 43330
L18800 40955
" />
<path d="M19300 43330
L19300 41455
" />
<path d="M19300 41455
L18800 40955
" />
<path d="M19800 43330
L19800 41480
" />
<path d="M19800 41480
L18800 40955
" />
<path d="M20300 43330
L20300 41480
" />
<path d="M19300 43330
L19800 43330
" />
<path d="M19800 43330
L20300 43330
" />
<path d="M18300 43330
L18800 43330
" />
<path d="M18800 43330
L19300 43330
" />
<path d="M17300 43330
L17800 43330
" />
<path d="M17800 43330
L18300 43330
" />
<path d="M17300 43330
L17300 41980
" />
<path d="M17800 41480
L18800 40955
" />
<path d="M17300 41980
L17800 41480
" />
<path d="M26300 44630
L26300 46480
" />
<path d="M26800 44630
L27300 44630
" />
<path d="M26300 44630
L26800 44630
" />
<path d="M27800 44630
L28300 44630
" />
<path d="M27300 44630
L27800 44630
" />
<path d="M28800 44630
L29300 44630
" />
<path d="M28300 44630
L28800 44630
" />
<path d="M29300 44630
L29300 46480
" />
<path d="M28800 45955
L28800 46480
" />
<path d="M28800 46480
L27800 46955
" />
<path d="M28800 44630
L28800 45955
" />
<path d="M28300 46455
L27800 46955
" />
<path d="M28300 44630
L28300 46455
" />
<path d="M27800 46480
L27800 46955
" />
<path d="M27800 44630
L27800 46480
" />
<path d="M27300 44630
L27300 45980
" />
<path d="M27300 46455
L27800 46955
" />
<path d="M27300 45980
L27300 46455
" />
<path d="M26800 46480
L27800 46955
" />
<path d="M26800 44630
L26800 46480
" />
<path d="M17800 44630
L17800 46480
" />
<path d="M17800 46480
L18800 46955
" />
<path d="M18300 45980
L18300 46455
" />
<path d="M18300 46455
L18800 46955
" />
<path d="M18300 44630
L18300 45980
" />
<path d="M18800 44630
L18800 46480
" />
<path d="M18800 46480
L18800 46955
" />
<path d="M19300 44630
L19300 46455
" />
<path d="M19300 46455
L18800 46955
" />
<path d="M19800 44630
L19800 45955
" />
<path d="M19800 46480
L18800 46955
" />
<path d="M19800 45955
L19800 46480
" />
<path d="M20300 44630
L20300 46480
" />
<path d="M19300 44630
L19800 44630
" />
<path d="M19800 44630
L20300 44630
" />
<path d="M18300 44630
L18800 44630
" />
<path d="M18800 44630
L19300 44630
" />
<path d="M17300 44630
L17800 44630
" />
<path d="M17800 44630
L18300 44630
" />
<path d="M17300 44630
L17300 46480
" />
<path d="M26800 54630
L27300 54630
" />
<path d="M26300 54630
L26800 54630
" />
<path d="M27800 54630
L28300 54630
" />
<path d="M27300 54630
L27800 54630
" />
<path d="M28800 54630
L29300 54630
" />
<path d="M28300 54630
L28800 54630
" />
<path d="M26800 56480
L27800 56955
" />
<path d="M26300 55980
L26800 56480
" />
<path d="M26300 54630
L26300 55980
" />
<path d="M26800 56480
L27800 56955
" />
<path d="M26800 54630
L26800 56480
" />
<path d="M27300 56717
L27800 56955
" />
<path d="M27300 54630
L27300 56717
" />
<path d="M27800 56480
L27800 56955
" />
<path d="M27800 54630
L27800 56480
" />
<path d="M28300 56480
L27800 56955
" />
<path d="M28300 54630
L28300 56480
" />
<path d="M28800 56480
L27800 56955
" />
<path d="M28800 54630
L28800 56480
" />
<path d="M29300 55455
L29300 56480
" />
<path d="M29300 54630
L29300 55455
" />
<path d="M20300 54630
L20300 55455
" />
<path d="M20300 55455
L20300 56480
" />
<path d="M19800 54630
L19800 56480
" />
<path d="M19800 56480
L18800 56955
" />
<path d="M19300 54630
L19300 56480
" />
<path d="M19300 56480
L18800 56955
" />
<path d="M18800 54630
L18800 56480
" />
<path d="M18800 56480
L18800 56955
" />
<path d="M18300 54630
L18300 56717
" />
<path d="M18300 56717
L18800 56955
" />
<path d="M17800 54630
L17800 56480
" />
<path d="M17800 56480
L18800 56955
" />
<path d="M17300 54630
L17300 55980
" />
<path d="M17300 55980
L17800 56480
" />
<path d="M17800 56480
L18800 56955
" />
<path d="M19300 54630
L19800 54630
" />
<path d="M19800 54630
L20300 54630
" />
<path d="M18300 54630
L18800 54630
" />
<path d="M18800 54630
L19300 54630
" />
<path d="M17300 54630
L17800 54630
" />
<path d="M17800 54630
L18300 54630
" />
<path d="M28800 53330
L28300 53330
" />
<path d="M29300 53330
L28800 53330
" />
<path d="M27800 53330
L27300 53330
" />
<path d="M28300 53330
L27800 53330
" />
<path d="M26800 53330
L26300 53330
" />
<path d="M27300 53330
L26800 53330
" />
<path d="M29300 53330
L29300 51480
" />
<path d="M26300 51980
L26800 51480
" />
<path d="M26800 51480
L27800 50955
" />
<path d="M26300 53330
L26300 51980
" />
<path d="M26800 53330
L26800 51980
" />
<path d="M27300 53330
L27300 51980
" />
<path d="M27300 51217
L27800 50955
" />
<path d="M27300 51980
L27300 51217
" />
<path d="M27800 51480
L27800 50955
" />
<path d="M27800 53330
L27800 51480
" />
<path d="M28300 51480
L27800 50955
" />
<path d="M28300 53330
L28300 51480
" />
<path d="M28800 51480
L27800 50955
" />
<path d="M28800 53330
L28800 52980
" />
<path d="M28800 52980
L28800 51480
" />
<path d="M19800 52980
L19800 51480
" />
<path d="M19800 53330
L19800 52980
" />
<path d="M19800 51480
L18800 50955
" />
<path d="M19300 53330
L19300 51480
" />
<path d="M19300 51480
L18800 50955
" />
<path d="M18800 53330
L18800 51480
" />
<path d="M18800 51480
L18800 50955
" />
<path d="M18300 51980
L18300 51217
" />
<path d="M18300 51217
L18800 50955
" />
<path d="M18300 53330
L18300 51980
" />
<path d="M17800 53330
L17800 51980
" />
<path d="M17300 53330
L17300 51980
" />
<path d="M17800 51480
L18800 50955
" />
<path d="M17300 51980
L17800 51480
" />
<path d="M20300 53330
L20300 51480
" />
<path d="M18300 53330
L17800 53330
" />
<path d="M17800 53330
L17300 53330
" />
<path d="M19300 53330
L18800 53330
" />
<path d="M18800 53330
L18300 53330
" />
<path d="M20300 53330
L19800 53330
" />
<path d="M19800 53330
L19300 53330
" />
<path d="M26300 24630
L26300 26480
" />
<path d="M26300 25455
L27800 26955
" />
<path d="M26300 24630
L26300 25455
" />
<path d="M26800 26480
L27800 26955
" />
<path d="M27275 26955
L26800 26480
" />
<path d="M27800 26955
L27275 26955
" />
<path d="M26800 24630
L26300 24630
" />
<path d="M27300 24630
L26800 24630
" />
<path d="M27800 24630
L28300 24630
" />
<path d="M27300 24630
L27800 24630
" />
<path d="M28800 24630
L29300 24630
" />
<path d="M28300 24630
L28800 24630
" />
<path d="M28800 26480
L27800 26955
" />
<path d="M29300 25980
L28800 26480
" />
<path d="M29300 24630
L29300 25980
" />
<path d="M26800 26480
L27800 26955
" />
<path d="M26800 24630
L26800 26480
" />
<path d="M27300 26717
L27800 26955
" />
<path d="M27300 24630
L27300 26717
" />
<path d="M27800 24630
L27800 26955
" />
<path d="M28300 26455
L27800 26955
" />
<path d="M28300 24630
L28300 26455
" />
<path d="M28800 26480
L27800 26955
" />
<path d="M28800 24630
L28800 26480
" />
<path d="M19800 24630
L19800 26480
" />
<path d="M19800 26480
L18800 26955
" />
<path d="M19300 24630
L19300 26455
" />
<path d="M19300 26455
L18800 26955
" />
<path d="M18800 24630
L18800 26955
" />
<path d="M18300 24630
L18300 26717
" />
<path d="M18300 26717
L18800 26955
" />
<path d="M17800 24630
L17800 26480
" />
<path d="M17800 26480
L18800 26955
" />
<path d="M20300 24630
L20300 25980
" />
<path d="M20300 25980
L19800 26480
" />
<path d="M19800 26480
L18800 26955
" />
<path d="M19300 24630
L19800 24630
" />
<path d="M19800 24630
L20300 24630
" />
<path d="M18300 24630
L18800 24630
" />
<path d="M18800 24630
L19300 24630
" />
<path d="M18300 24630
L17800 24630
" />
<path d="M17800 24630
L17300 24630
" />
<path d="M18800 26955
L18275 26955
" />
<path d="M18275 26955
L17800 26480
" />
<path d="M17800 26480
L18800 26955
" />
<path d="M17300 24630
L17300 25455
" />
<path d="M17300 25455
L18800 26955
" />
<path d="M17300 24630
L17300 26480
" />
<path d="M26800 33330
L27300 33330
" />
<path d="M26300 33330
L26800 33330
" />
<path d="M27800 33330
L28300 33330
" />
<path d="M27300 33330
L27800 33330
" />
<path d="M28800 33330
L29300 33330
" />
<path d="M28300 33330
L28800 33330
" />
<path d="M26800 31480
L27800 30955
" />
<path d="M26300 31980
L26800 31480
" />
<path d="M26300 33330
L26300 31980
" />
<path d="M26800 31955
L27800 30955
" />
<path d="M26800 33330
L26800 31955
" />
<path d="M27300 31455
L27800 30955
" />
<path d="M27300 33330
L27300 31455
" />
<path d="M27800 31480
L27800 30955
" />
<path d="M27800 33330
L27800 31480
" />
<path d="M28300 31455
L27800 30955
" />
<path d="M28300 33330
L28300 31455
" />
<path d="M28800 33330
L28800 32980
" />
<path d="M29300 33330
L29300 31480
" />
<path d="M28800 31480
L27800 30955
" />
<path d="M28800 32980
L28800 31480
" />
<path d="M19800 32980
L19800 31480
" />
<path d="M19800 31480
L18800 30955
" />
<path d="M20300 33330
L20300 31480
" />
<path d="M19800 33330
L19800 32980
" />
<path d="M19300 33330
L19300 31455
" />
<path d="M19300 31455
L18800 30955
" />
<path d="M18800 33330
L18800 31480
" />
<path d="M18800 31480
L18800 30955
" />
<path d="M18300 33330
L18300 31455
" />
<path d="M18300 31455
L18800 30955
" />
<path d="M17800 33330
L17800 31955
" />
<path d="M17800 31955
L18800 30955
" />
<path d="M17300 33330
L17300 31980
" />
<path d="M17300 31980
L17800 31480
" />
<path d="M17800 31480
L18800 30955
" />
<path d="M19300 33330
L19800 33330
" />
<path d="M19800 33330
L20300 33330
" />
<path d="M18300 33330
L18800 33330
" />
<path d="M18800 33330
L19300 33330
" />
<path d="M17300 33330
L17800 33330
" />
<path d="M17800 33330
L18300 33330
" />
<path d="M26800 34630
L27300 34630
" />
<path d="M26300 34630
L26800 34630
" />
<path d="M27800 34630
L28300 34630
" />
<path d="M27300 34630
L27800 34630
" />
<path d="M28800 34630
L29300 34630
" />
<path d="M28300 34630
L28800 34630
" />
<path d="M26800 36480
L27800 36955
" />
<path d="M26300 35980
L26800 36480
" />
<path d="M26300 34630
L26300 35980
" />
<path d="M26800 36480
L27800 36955
" />
<path d="M26800 34630
L26800 36480
" />
<path d="M27300 36455
L27800 36955
" />
<path d="M27300 34630
L27300 36455
" />
<path d="M27800 34630
L27800 36955
" />
<path d="M28300 36455
L27800 36955
" />
<path d="M28300 34630
L28300 36455
" />
<path d="M28800 35955
L27800 36955
" />
<path d="M28800 34630
L28800 35955
" />
<path d="M29300 35980
L28800 36480
" />
<path d="M28800 36480
L27800 36955
" />
<path d="M29300 34630
L29300 35980
" />
<path d="M20300 34630
L20300 35980
" />
<path d="M19800 36480
L18800 36955
" />
<path d="M20300 35980
L19800 36480
" />
<path d="M19800 34630
L19800 35955
" />
<path d="M19800 35955
L18800 36955
" />
<path d="M19300 34630
L19300 36455
" />
<path d="M19300 36455
L18800 36955
" />
<path d="M18800 34630
L18800 36955
" />
<path d="M18300 34630
L18300 36455
" />
<path d="M18300 36455
L18800 36955
" />
<path d="M17800 34630
L17800 36480
" />
<path d="M17800 36480
L18800 36955
" />
<path d="M17300 34630
L17300 35980
" />
<path d="M17300 35980
L17800 36480
" />
<path d="M17800 36480
L18800 36955
" />
<path d="M19300 34630
L19800 34630
" />
<path d="M19800 34630
L20300 34630
" />
<path d="M18300 34630
L18800 34630
" />
<path d="M18800 34630
L19300 34630
" />
<path d="M17300 34630
L17800 34630
" />
<path d="M17800 34630
L18300 34630
" />
<path d="M26300 23330
L27300 23330
" />
<path d="M27300 23330
L28300 23330
" />
<path d="M28300 23330
L29300 23330
" />
<path d="M30150 23330
L30800 23980
" />
<path d="M30800 23980
L30800 65480
" />
<path d="M30800 65480
L29800 66480
" />
<path d="M28300 66480
L26800 66480
" />
<path d="M29800 66480
L28300 66480
" />
<path d="M26800 66480
L26300 65980
" />
<path d="M26300 65980
L26300 64980
" />
<path d="M29300 23330
L30150 23330
" />
<path d="M28300 64980
L28300 66480
" />
<path d="M19300 64980
L19300 66480
" />
<path d="M20300 23330
L21150 23330
" />
<path d="M17300 65980
L17300 64980
" />
<path d="M17800 66480
L17300 65980
" />
<path d="M20800 66480
L19300 66480
" />
<path d="M19300 66480
L17800 66480
" />
<path d="M21800 65480
L20800 66480
" />
<path d="M21800 23980
L21800 65480
" />
<path d="M21150 23330
L21800 23980
" />
<path d="M19300 23330
L20300 23330
" />
<path d="M18300 23330
L19300 23330
" />
<path d="M17300 23330
L18300 23330
" />
</g>
<g style="fill:#FFFFFF; fill-opacity:1.0; 
stroke:#FFFFFF; stroke-width:39.3701; stroke-opacity:1; 
stroke-linecap:round; stroke-linejoin:round;">
<circle cx="28300" cy="64980" r="137.815" /> 
<circle cx="29300" cy="64980" r="137.815" /> 
<circle cx="26300" cy="64980" r="137.815" /> 
<circle cx="27300" cy="64980" r="137.815" /> 
<circle cx="17300" cy="64980" r="137.815" /> 
<circle cx="18300" cy="64980" r="137.815" /> 
<circle cx="19300" cy="64980" r="137.815" /> 
<circle cx="20300" cy="64980" r="137.815" /> 
</g> 
</svg>
