G04 (created by PCBNEW (2013-07-07 BZR 4022)-stable) date dim. 09 mars 2014 21:57:11 CET*
%MOIN*%
G04 Gerber Fmt 3.4, Leading zero omitted, Abs format*
%FSLAX34Y34*%
G01*
G70*
G90*
G04 APERTURE LIST*
%ADD10C,0.00590551*%
%ADD11C,0.011811*%
%ADD12R,0.06X0.06*%
%ADD13C,0.06*%
%ADD14C,0.3543*%
%ADD15R,0.0787X0.0787*%
%ADD16C,0.0787*%
%ADD17R,0.0314X0.0314*%
%ADD18R,0.025X0.045*%
%ADD19R,0.045X0.025*%
%ADD20R,0.045X0.02*%
%ADD21C,0.0511811*%
%ADD22C,0.019685*%
%ADD23C,0.0137795*%
G04 APERTURE END LIST*
G54D10*
G54D11*
X17326Y-15489D02*
X17326Y-14898D01*
X17073Y-14954D02*
X17045Y-14926D01*
X16989Y-14898D01*
X16848Y-14898D01*
X16792Y-14926D01*
X16764Y-14954D01*
X16735Y-15010D01*
X16735Y-15067D01*
X16764Y-15151D01*
X17101Y-15489D01*
X16735Y-15489D01*
X16145Y-15432D02*
X16173Y-15460D01*
X16257Y-15489D01*
X16314Y-15489D01*
X16398Y-15460D01*
X16454Y-15404D01*
X16482Y-15348D01*
X16510Y-15235D01*
X16510Y-15151D01*
X16482Y-15039D01*
X16454Y-14982D01*
X16398Y-14926D01*
X16314Y-14898D01*
X16257Y-14898D01*
X16173Y-14926D01*
X16145Y-14954D01*
X7820Y-15672D02*
X7820Y-15953D01*
X7989Y-15615D02*
X7398Y-15812D01*
X7989Y-16009D01*
X7989Y-16206D02*
X7398Y-16206D01*
X7398Y-16347D01*
X7426Y-16431D01*
X7482Y-16487D01*
X7539Y-16515D01*
X7651Y-16543D01*
X7735Y-16543D01*
X7848Y-16515D01*
X7904Y-16487D01*
X7960Y-16431D01*
X7989Y-16347D01*
X7989Y-16206D01*
X7989Y-17134D02*
X7707Y-16937D01*
X7989Y-16796D02*
X7398Y-16796D01*
X7398Y-17021D01*
X7426Y-17078D01*
X7454Y-17106D01*
X7510Y-17134D01*
X7595Y-17134D01*
X7651Y-17106D01*
X7679Y-17078D01*
X7707Y-17021D01*
X7707Y-16796D01*
X7679Y-17387D02*
X7679Y-17584D01*
X7989Y-17668D02*
X7989Y-17387D01*
X7398Y-17387D01*
X7398Y-17668D01*
X7960Y-17893D02*
X7989Y-17978D01*
X7989Y-18118D01*
X7960Y-18174D01*
X7932Y-18203D01*
X7876Y-18231D01*
X7820Y-18231D01*
X7764Y-18203D01*
X7735Y-18174D01*
X7707Y-18118D01*
X7679Y-18006D01*
X7651Y-17949D01*
X7623Y-17921D01*
X7567Y-17893D01*
X7510Y-17893D01*
X7454Y-17921D01*
X7426Y-17949D01*
X7398Y-18006D01*
X7398Y-18146D01*
X7426Y-18231D01*
X7960Y-18456D02*
X7989Y-18540D01*
X7989Y-18681D01*
X7960Y-18737D01*
X7932Y-18765D01*
X7876Y-18793D01*
X7820Y-18793D01*
X7764Y-18765D01*
X7735Y-18737D01*
X7707Y-18681D01*
X7679Y-18568D01*
X7651Y-18512D01*
X7623Y-18484D01*
X7567Y-18456D01*
X7510Y-18456D01*
X7454Y-18484D01*
X7426Y-18512D01*
X7398Y-18568D01*
X7398Y-18709D01*
X7426Y-18793D01*
X7679Y-19046D02*
X7679Y-19243D01*
X7989Y-19327D02*
X7989Y-19046D01*
X7398Y-19046D01*
X7398Y-19327D01*
X25570Y-15922D02*
X25570Y-16203D01*
X25739Y-15865D02*
X25148Y-16062D01*
X25739Y-16259D01*
X25739Y-16456D02*
X25148Y-16456D01*
X25148Y-16597D01*
X25176Y-16681D01*
X25232Y-16737D01*
X25289Y-16765D01*
X25401Y-16793D01*
X25485Y-16793D01*
X25598Y-16765D01*
X25654Y-16737D01*
X25710Y-16681D01*
X25739Y-16597D01*
X25739Y-16456D01*
X25739Y-17384D02*
X25457Y-17187D01*
X25739Y-17046D02*
X25148Y-17046D01*
X25148Y-17271D01*
X25176Y-17328D01*
X25204Y-17356D01*
X25260Y-17384D01*
X25345Y-17384D01*
X25401Y-17356D01*
X25429Y-17328D01*
X25457Y-17271D01*
X25457Y-17046D01*
X25429Y-17637D02*
X25429Y-17834D01*
X25739Y-17918D02*
X25739Y-17637D01*
X25148Y-17637D01*
X25148Y-17918D01*
X25710Y-18143D02*
X25739Y-18228D01*
X25739Y-18368D01*
X25710Y-18424D01*
X25682Y-18453D01*
X25626Y-18481D01*
X25570Y-18481D01*
X25514Y-18453D01*
X25485Y-18424D01*
X25457Y-18368D01*
X25429Y-18256D01*
X25401Y-18199D01*
X25373Y-18171D01*
X25317Y-18143D01*
X25260Y-18143D01*
X25204Y-18171D01*
X25176Y-18199D01*
X25148Y-18256D01*
X25148Y-18396D01*
X25176Y-18481D01*
X25710Y-18706D02*
X25739Y-18790D01*
X25739Y-18931D01*
X25710Y-18987D01*
X25682Y-19015D01*
X25626Y-19043D01*
X25570Y-19043D01*
X25514Y-19015D01*
X25485Y-18987D01*
X25457Y-18931D01*
X25429Y-18818D01*
X25401Y-18762D01*
X25373Y-18734D01*
X25317Y-18706D01*
X25260Y-18706D01*
X25204Y-18734D01*
X25176Y-18762D01*
X25148Y-18818D01*
X25148Y-18959D01*
X25176Y-19043D01*
X25429Y-19296D02*
X25429Y-19493D01*
X25739Y-19577D02*
X25739Y-19296D01*
X25148Y-19296D01*
X25148Y-19577D01*
X18259Y-19514D02*
X17809Y-19514D01*
X18034Y-19739D02*
X18034Y-19289D01*
X17246Y-19148D02*
X17528Y-19148D01*
X17556Y-19429D01*
X17528Y-19401D01*
X17471Y-19373D01*
X17331Y-19373D01*
X17275Y-19401D01*
X17246Y-19429D01*
X17218Y-19485D01*
X17218Y-19626D01*
X17246Y-19682D01*
X17275Y-19710D01*
X17331Y-19739D01*
X17471Y-19739D01*
X17528Y-19710D01*
X17556Y-19682D01*
X17050Y-19148D02*
X16853Y-19739D01*
X16656Y-19148D01*
X7929Y-24856D02*
X7929Y-24659D01*
X8239Y-24659D02*
X7648Y-24659D01*
X7648Y-24940D01*
X7845Y-25419D02*
X8239Y-25419D01*
X7620Y-25278D02*
X8042Y-25137D01*
X8042Y-25503D01*
X8239Y-25728D02*
X7648Y-25728D01*
X7648Y-25868D01*
X7676Y-25953D01*
X7732Y-26009D01*
X7789Y-26037D01*
X7901Y-26065D01*
X7985Y-26065D01*
X8098Y-26037D01*
X8154Y-26009D01*
X8210Y-25953D01*
X8239Y-25868D01*
X8239Y-25728D01*
X7929Y-26318D02*
X7929Y-26515D01*
X8239Y-26600D02*
X8239Y-26318D01*
X7648Y-26318D01*
X7648Y-26600D01*
X7929Y-27050D02*
X7957Y-27134D01*
X7985Y-27162D01*
X8042Y-27190D01*
X8126Y-27190D01*
X8182Y-27162D01*
X8210Y-27134D01*
X8239Y-27078D01*
X8239Y-26853D01*
X7648Y-26853D01*
X7648Y-27050D01*
X7676Y-27106D01*
X7704Y-27134D01*
X7760Y-27162D01*
X7817Y-27162D01*
X7873Y-27134D01*
X7901Y-27106D01*
X7929Y-27050D01*
X7929Y-26853D01*
X7648Y-28062D02*
X8070Y-28062D01*
X8154Y-28034D01*
X8210Y-27978D01*
X8239Y-27893D01*
X8239Y-27837D01*
X8239Y-28343D02*
X7648Y-28343D01*
X8239Y-28681D02*
X7901Y-28428D01*
X7648Y-28681D02*
X7985Y-28343D01*
X7648Y-28877D02*
X7648Y-29243D01*
X7873Y-29046D01*
X7873Y-29131D01*
X7901Y-29187D01*
X7929Y-29215D01*
X7985Y-29243D01*
X8126Y-29243D01*
X8182Y-29215D01*
X8210Y-29187D01*
X8239Y-29131D01*
X8239Y-28962D01*
X8210Y-28906D01*
X8182Y-28877D01*
X7648Y-29440D02*
X7648Y-29805D01*
X7873Y-29609D01*
X7873Y-29693D01*
X7901Y-29749D01*
X7929Y-29777D01*
X7985Y-29805D01*
X8126Y-29805D01*
X8182Y-29777D01*
X8210Y-29749D01*
X8239Y-29693D01*
X8239Y-29524D01*
X8210Y-29468D01*
X8182Y-29440D01*
X7648Y-30171D02*
X7648Y-30227D01*
X7676Y-30284D01*
X7704Y-30312D01*
X7760Y-30340D01*
X7873Y-30368D01*
X8014Y-30368D01*
X8126Y-30340D01*
X8182Y-30312D01*
X8210Y-30284D01*
X8239Y-30227D01*
X8239Y-30171D01*
X8210Y-30115D01*
X8182Y-30087D01*
X8126Y-30059D01*
X8014Y-30030D01*
X7873Y-30030D01*
X7760Y-30059D01*
X7704Y-30087D01*
X7676Y-30115D01*
X7648Y-30171D01*
X9489Y-25197D02*
X8898Y-25197D01*
X8898Y-25422D01*
X8926Y-25478D01*
X8954Y-25506D01*
X9010Y-25534D01*
X9095Y-25534D01*
X9151Y-25506D01*
X9179Y-25478D01*
X9207Y-25422D01*
X9207Y-25197D01*
X9432Y-26125D02*
X9460Y-26097D01*
X9489Y-26012D01*
X9489Y-25956D01*
X9460Y-25872D01*
X9404Y-25815D01*
X9348Y-25787D01*
X9235Y-25759D01*
X9151Y-25759D01*
X9039Y-25787D01*
X8982Y-25815D01*
X8926Y-25872D01*
X8898Y-25956D01*
X8898Y-26012D01*
X8926Y-26097D01*
X8954Y-26125D01*
X9179Y-26575D02*
X9179Y-26378D01*
X9489Y-26378D02*
X8898Y-26378D01*
X8898Y-26659D01*
X9151Y-26968D02*
X9123Y-26912D01*
X9095Y-26884D01*
X9039Y-26856D01*
X9010Y-26856D01*
X8954Y-26884D01*
X8926Y-26912D01*
X8898Y-26968D01*
X8898Y-27081D01*
X8926Y-27137D01*
X8954Y-27165D01*
X9010Y-27193D01*
X9039Y-27193D01*
X9095Y-27165D01*
X9123Y-27137D01*
X9151Y-27081D01*
X9151Y-26968D01*
X9179Y-26912D01*
X9207Y-26884D01*
X9264Y-26856D01*
X9376Y-26856D01*
X9432Y-26884D01*
X9460Y-26912D01*
X9489Y-26968D01*
X9489Y-27081D01*
X9460Y-27137D01*
X9432Y-27165D01*
X9376Y-27193D01*
X9264Y-27193D01*
X9207Y-27165D01*
X9179Y-27137D01*
X9151Y-27081D01*
X8898Y-27728D02*
X8898Y-27446D01*
X9179Y-27418D01*
X9151Y-27446D01*
X9123Y-27503D01*
X9123Y-27643D01*
X9151Y-27699D01*
X9179Y-27728D01*
X9235Y-27756D01*
X9376Y-27756D01*
X9432Y-27728D01*
X9460Y-27699D01*
X9489Y-27643D01*
X9489Y-27503D01*
X9460Y-27446D01*
X9432Y-27418D01*
X8898Y-27953D02*
X8898Y-28346D01*
X9489Y-28093D01*
X9095Y-28824D02*
X9489Y-28824D01*
X8870Y-28684D02*
X9292Y-28543D01*
X9292Y-28909D01*
X8898Y-29049D02*
X8898Y-29387D01*
X9489Y-29218D02*
X8898Y-29218D01*
X14406Y-12148D02*
X14209Y-12739D01*
X14012Y-12148D01*
X13506Y-12739D02*
X13843Y-12739D01*
X13674Y-12739D02*
X13674Y-12148D01*
X13731Y-12232D01*
X13787Y-12289D01*
X13843Y-12317D01*
X13253Y-12514D02*
X12803Y-12514D01*
X12409Y-12148D02*
X12353Y-12148D01*
X12296Y-12176D01*
X12268Y-12204D01*
X12240Y-12260D01*
X12212Y-12373D01*
X12212Y-12514D01*
X12240Y-12626D01*
X12268Y-12682D01*
X12296Y-12710D01*
X12353Y-12739D01*
X12409Y-12739D01*
X12465Y-12710D01*
X12493Y-12682D01*
X12521Y-12626D01*
X12550Y-12514D01*
X12550Y-12373D01*
X12521Y-12260D01*
X12493Y-12204D01*
X12465Y-12176D01*
X12409Y-12148D01*
X11847Y-12148D02*
X11790Y-12148D01*
X11734Y-12176D01*
X11706Y-12204D01*
X11678Y-12260D01*
X11650Y-12373D01*
X11650Y-12514D01*
X11678Y-12626D01*
X11706Y-12682D01*
X11734Y-12710D01*
X11790Y-12739D01*
X11847Y-12739D01*
X11903Y-12710D01*
X11931Y-12682D01*
X11959Y-12626D01*
X11987Y-12514D01*
X11987Y-12373D01*
X11959Y-12260D01*
X11931Y-12204D01*
X11903Y-12176D01*
X11847Y-12148D01*
X14299Y-11148D02*
X14243Y-11148D01*
X14187Y-11176D01*
X14159Y-11204D01*
X14131Y-11260D01*
X14102Y-11373D01*
X14102Y-11514D01*
X14131Y-11626D01*
X14159Y-11682D01*
X14187Y-11710D01*
X14243Y-11739D01*
X14299Y-11739D01*
X14356Y-11710D01*
X14384Y-11682D01*
X14412Y-11626D01*
X14440Y-11514D01*
X14440Y-11373D01*
X14412Y-11260D01*
X14384Y-11204D01*
X14356Y-11176D01*
X14299Y-11148D01*
X13877Y-11204D02*
X13849Y-11176D01*
X13793Y-11148D01*
X13652Y-11148D01*
X13596Y-11176D01*
X13568Y-11204D01*
X13540Y-11260D01*
X13540Y-11317D01*
X13568Y-11401D01*
X13906Y-11739D01*
X13540Y-11739D01*
X13287Y-11514D02*
X12837Y-11514D01*
X12584Y-11204D02*
X12556Y-11176D01*
X12499Y-11148D01*
X12359Y-11148D01*
X12303Y-11176D01*
X12275Y-11204D01*
X12246Y-11260D01*
X12246Y-11317D01*
X12275Y-11401D01*
X12612Y-11739D01*
X12246Y-11739D01*
X11881Y-11148D02*
X11825Y-11148D01*
X11768Y-11176D01*
X11740Y-11204D01*
X11712Y-11260D01*
X11684Y-11373D01*
X11684Y-11514D01*
X11712Y-11626D01*
X11740Y-11682D01*
X11768Y-11710D01*
X11825Y-11739D01*
X11881Y-11739D01*
X11937Y-11710D01*
X11965Y-11682D01*
X11993Y-11626D01*
X12021Y-11514D01*
X12021Y-11373D01*
X11993Y-11260D01*
X11965Y-11204D01*
X11937Y-11176D01*
X11881Y-11148D01*
X11122Y-11739D02*
X11459Y-11739D01*
X11290Y-11739D02*
X11290Y-11148D01*
X11347Y-11232D01*
X11403Y-11289D01*
X11459Y-11317D01*
X10615Y-11345D02*
X10615Y-11739D01*
X10756Y-11120D02*
X10897Y-11542D01*
X10531Y-11542D01*
G54D12*
X12750Y-32000D03*
G54D13*
X12750Y-33000D03*
X13750Y-32000D03*
X13750Y-33000D03*
X14750Y-32000D03*
X14750Y-33000D03*
X15750Y-32000D03*
X15750Y-33000D03*
X16750Y-32000D03*
X16750Y-33000D03*
X17750Y-32000D03*
X17750Y-33000D03*
X18750Y-32000D03*
X18750Y-33000D03*
X19750Y-32000D03*
X19750Y-33000D03*
G54D14*
X9250Y-13250D03*
X23750Y-13250D03*
X9250Y-32250D03*
X24000Y-32250D03*
G54D15*
X15250Y-13000D03*
G54D16*
X16250Y-13000D03*
X17250Y-13000D03*
X18250Y-13000D03*
G54D17*
X15250Y-19795D03*
X15250Y-19205D03*
G54D18*
X19700Y-21250D03*
X20300Y-21250D03*
X9550Y-21500D03*
X8950Y-21500D03*
G54D19*
X16250Y-19200D03*
X16250Y-19800D03*
G54D18*
X15700Y-23250D03*
X16300Y-23250D03*
X15700Y-22750D03*
X16300Y-22750D03*
X15700Y-22250D03*
X16300Y-22250D03*
X24950Y-23250D03*
X25550Y-23250D03*
X24950Y-22750D03*
X25550Y-22750D03*
X24950Y-22250D03*
X25550Y-22250D03*
G54D20*
X14250Y-22250D03*
X14250Y-22750D03*
X14250Y-23250D03*
X14250Y-23750D03*
X14250Y-24250D03*
X14250Y-24750D03*
X14250Y-25250D03*
X14250Y-25750D03*
X10250Y-25750D03*
X10250Y-25250D03*
X10250Y-24750D03*
X10250Y-24250D03*
X10250Y-23750D03*
X10250Y-23250D03*
X10250Y-22750D03*
X10250Y-22250D03*
X23500Y-22250D03*
X23500Y-22750D03*
X23500Y-23250D03*
X23500Y-23750D03*
X23500Y-24250D03*
X23500Y-24750D03*
X23500Y-25250D03*
X23500Y-25750D03*
X19500Y-25750D03*
X19500Y-25250D03*
X19500Y-24750D03*
X19500Y-24250D03*
X19500Y-23750D03*
X19500Y-23250D03*
X19500Y-22750D03*
X19500Y-22250D03*
G54D12*
X9500Y-16000D03*
G54D13*
X10500Y-16000D03*
X11500Y-16000D03*
X12500Y-16000D03*
X12500Y-19000D03*
X11500Y-19000D03*
X10500Y-19000D03*
X9500Y-19000D03*
G54D12*
X21000Y-16000D03*
G54D13*
X22000Y-16000D03*
X23000Y-16000D03*
X24000Y-16000D03*
X24000Y-19000D03*
X23000Y-19000D03*
X22000Y-19000D03*
X21000Y-19000D03*
G54D12*
X21500Y-69500D03*
G54D13*
X22500Y-69500D03*
X23500Y-69500D03*
X24500Y-69500D03*
X24500Y-66500D03*
X23500Y-66500D03*
X22500Y-66500D03*
X21500Y-66500D03*
G54D12*
X10000Y-69500D03*
G54D13*
X11000Y-69500D03*
X12000Y-69500D03*
X13000Y-69500D03*
X13000Y-66500D03*
X12000Y-66500D03*
X11000Y-66500D03*
X10000Y-66500D03*
G54D15*
X15750Y-72500D03*
G54D16*
X16750Y-72500D03*
X17750Y-72500D03*
X18750Y-72500D03*
G54D14*
X24500Y-53250D03*
X9750Y-53250D03*
X24250Y-72250D03*
X9750Y-72250D03*
G54D12*
X13250Y-53500D03*
G54D13*
X13250Y-52500D03*
X14250Y-53500D03*
X14250Y-52500D03*
X15250Y-53500D03*
X15250Y-52500D03*
X16250Y-53500D03*
X16250Y-52500D03*
X17250Y-53500D03*
X17250Y-52500D03*
X18250Y-53500D03*
X18250Y-52500D03*
X19250Y-53500D03*
X19250Y-52500D03*
X20250Y-53500D03*
X20250Y-52500D03*
G54D21*
X16250Y-18250D03*
X16250Y-20500D03*
X8750Y-22250D03*
X9250Y-63250D03*
X16750Y-65000D03*
X16750Y-67250D03*
X21000Y-21250D03*
X14250Y-26750D03*
X8750Y-24250D03*
X15250Y-18250D03*
X15750Y-67250D03*
X9250Y-61250D03*
X14750Y-58750D03*
X21500Y-64250D03*
X11500Y-21250D03*
X12000Y-64250D03*
X19750Y-28500D03*
X20250Y-57000D03*
X18750Y-28500D03*
X19250Y-57000D03*
X22250Y-26500D03*
X22750Y-59000D03*
X14250Y-31000D03*
X14750Y-54500D03*
X15250Y-30500D03*
X15750Y-55000D03*
X17750Y-29000D03*
X18250Y-56500D03*
X16250Y-30000D03*
X16750Y-55500D03*
X17250Y-26500D03*
X17750Y-59000D03*
X18250Y-26000D03*
X18750Y-59500D03*
X20250Y-27250D03*
X20750Y-58250D03*
X21000Y-28000D03*
X21500Y-57500D03*
X12750Y-27500D03*
X13250Y-58000D03*
X13250Y-27000D03*
X13750Y-58500D03*
X15250Y-24750D03*
X15750Y-60750D03*
X15750Y-25250D03*
X16250Y-60250D03*
X16750Y-29500D03*
X17250Y-56000D03*
X12500Y-21250D03*
X13000Y-64250D03*
X8000Y-22750D03*
X15750Y-21250D03*
X18250Y-21250D03*
X18750Y-64250D03*
X16250Y-64250D03*
X8500Y-62750D03*
X8750Y-23250D03*
X17250Y-22000D03*
X17750Y-63500D03*
X9250Y-62250D03*
X10500Y-21250D03*
X11000Y-64250D03*
X24000Y-21250D03*
X24500Y-64250D03*
X23000Y-21250D03*
X23500Y-64250D03*
X22000Y-21250D03*
X22500Y-64250D03*
G54D22*
X9500Y-22250D02*
X10250Y-22250D01*
X25550Y-22750D02*
X25550Y-22250D01*
X25550Y-23250D02*
X25550Y-22750D01*
X19700Y-20800D02*
X19700Y-21250D01*
X19750Y-20750D02*
X19700Y-20800D01*
X19750Y-20500D02*
X19750Y-20750D01*
X21750Y-20500D02*
X19750Y-20500D01*
X24750Y-20500D02*
X21750Y-20500D01*
X25550Y-21300D02*
X24750Y-20500D01*
X25550Y-22250D02*
X25550Y-21300D01*
X19500Y-21450D02*
X19700Y-21250D01*
X19500Y-22250D02*
X19500Y-21450D01*
X16250Y-18250D02*
X16250Y-19200D01*
X19750Y-20500D02*
X16250Y-20500D01*
X8750Y-22250D02*
X9500Y-22250D01*
X16300Y-22250D02*
X16300Y-22750D01*
X16300Y-22750D02*
X16300Y-23250D01*
X9550Y-22250D02*
X9500Y-22250D01*
X9550Y-21500D02*
X9550Y-22250D01*
X16300Y-21800D02*
X16250Y-21750D01*
X16250Y-21750D02*
X15000Y-21750D01*
X15000Y-21750D02*
X14750Y-21500D01*
X14750Y-21500D02*
X14750Y-20750D01*
X14750Y-20750D02*
X15000Y-20500D01*
X15000Y-20500D02*
X16250Y-20500D01*
X16300Y-22250D02*
X16300Y-21800D01*
X16750Y-72500D02*
X16750Y-69000D01*
X16750Y-69000D02*
X16750Y-67250D01*
X16750Y-65000D02*
X16250Y-65000D01*
X16250Y-65000D02*
X14500Y-63250D01*
X14500Y-63250D02*
X9250Y-63250D01*
X16750Y-65000D02*
X16750Y-67250D01*
X20300Y-23050D02*
X21500Y-24250D01*
X21500Y-24250D02*
X21500Y-26500D01*
X21500Y-26500D02*
X21500Y-26750D01*
X21500Y-26750D02*
X21750Y-27000D01*
X21750Y-27000D02*
X23000Y-27000D01*
X23000Y-27000D02*
X23250Y-27000D01*
X23250Y-27000D02*
X23500Y-26750D01*
X23500Y-26750D02*
X23500Y-25750D01*
X20300Y-21250D02*
X20300Y-23050D01*
X15250Y-18250D02*
X15250Y-19205D01*
X20300Y-21250D02*
X21000Y-21250D01*
X8950Y-20200D02*
X8500Y-19750D01*
X8500Y-19750D02*
X8500Y-18500D01*
X8500Y-18500D02*
X8750Y-18250D01*
X8750Y-18250D02*
X15250Y-18250D01*
X8950Y-21500D02*
X8950Y-20200D01*
X8750Y-24250D02*
X8250Y-24250D01*
X8250Y-24250D02*
X7500Y-23500D01*
X7500Y-23500D02*
X7500Y-22000D01*
X7500Y-22000D02*
X8000Y-21500D01*
X8000Y-21500D02*
X8950Y-21500D01*
X14250Y-25750D02*
X14250Y-26750D01*
X13000Y-69500D02*
X15750Y-69500D01*
X15750Y-67250D02*
X15750Y-69500D01*
X15750Y-69500D02*
X15750Y-72500D01*
X20750Y-70250D02*
X20750Y-72750D01*
X15750Y-73000D02*
X15750Y-72500D01*
X16250Y-73500D02*
X15750Y-73000D01*
X20000Y-73500D02*
X16250Y-73500D01*
X20750Y-72750D02*
X20000Y-73500D01*
X12250Y-61250D02*
X9250Y-61250D01*
X14750Y-58750D02*
X12250Y-61250D01*
X20750Y-65000D02*
X20750Y-70250D01*
X21500Y-64250D02*
X20750Y-65000D01*
X22500Y-69500D02*
X22500Y-70000D01*
X22500Y-70000D02*
X22250Y-70250D01*
X22250Y-70250D02*
X20750Y-70250D01*
X23500Y-69500D02*
X24500Y-69500D01*
X22500Y-69500D02*
X23500Y-69500D01*
X12000Y-69500D02*
X13000Y-69500D01*
X11000Y-69500D02*
X12000Y-69500D01*
X13000Y-22750D02*
X11500Y-21250D01*
X14250Y-22750D02*
X13000Y-22750D01*
X14250Y-22750D02*
X15700Y-22750D01*
X12000Y-64250D02*
X12000Y-66500D01*
X16245Y-19795D02*
X16250Y-19800D01*
X15250Y-19795D02*
X16245Y-19795D01*
X19750Y-28500D02*
X19250Y-28000D01*
X19250Y-28000D02*
X12500Y-28000D01*
X12500Y-28000D02*
X12250Y-27750D01*
X12250Y-27750D02*
X12250Y-25500D01*
X12250Y-25500D02*
X11000Y-24250D01*
X11000Y-24250D02*
X10250Y-24250D01*
X20250Y-53500D02*
X20250Y-57000D01*
X12000Y-28500D02*
X18750Y-28500D01*
X11750Y-28250D02*
X12000Y-28500D01*
X11750Y-25500D02*
X11750Y-28250D01*
X11000Y-24750D02*
X11750Y-25500D01*
X10250Y-24750D02*
X11000Y-24750D01*
X19250Y-57000D02*
X19250Y-53500D01*
X22500Y-23750D02*
X22250Y-24000D01*
X22250Y-24000D02*
X22250Y-26500D01*
X23500Y-23750D02*
X22500Y-23750D01*
X20500Y-51500D02*
X21500Y-52500D01*
X21500Y-55250D02*
X21500Y-52500D01*
X22750Y-56500D02*
X21500Y-55250D01*
X19750Y-51500D02*
X20500Y-51500D01*
X13250Y-52500D02*
X13250Y-51750D01*
X13500Y-51500D02*
X19750Y-51500D01*
X13250Y-51750D02*
X13500Y-51500D01*
X22750Y-56500D02*
X22750Y-59000D01*
X23500Y-24250D02*
X24750Y-24250D01*
X24750Y-24250D02*
X25500Y-25000D01*
X25500Y-25000D02*
X25500Y-30250D01*
X25500Y-30250D02*
X24750Y-31000D01*
X23000Y-31000D02*
X14250Y-31000D01*
X24750Y-31000D02*
X23000Y-31000D01*
X14750Y-53000D02*
X14250Y-52500D01*
G54D23*
X14750Y-54250D02*
X14750Y-53000D01*
G54D22*
X14750Y-54500D02*
X14750Y-54250D01*
X15250Y-30500D02*
X23500Y-30500D01*
X24500Y-30500D02*
X25000Y-30000D01*
X25000Y-30000D02*
X25000Y-25250D01*
X25000Y-25250D02*
X24500Y-24750D01*
X24500Y-24750D02*
X23500Y-24750D01*
X23500Y-30500D02*
X24500Y-30500D01*
X15750Y-54250D02*
X15750Y-55000D01*
G54D23*
X15750Y-54250D02*
X15750Y-53000D01*
G54D22*
X15250Y-52500D02*
X15750Y-53000D01*
X11250Y-25500D02*
X11000Y-25250D01*
X11000Y-25250D02*
X10250Y-25250D01*
X11250Y-28750D02*
X11250Y-25500D01*
X11500Y-29000D02*
X11250Y-28750D01*
X17750Y-29000D02*
X11500Y-29000D01*
X18250Y-53500D02*
X18250Y-56500D01*
X23750Y-30000D02*
X16250Y-30000D01*
X24500Y-29750D02*
X24250Y-30000D01*
X24250Y-30000D02*
X23750Y-30000D01*
X24250Y-25250D02*
X24500Y-25500D01*
X24500Y-25500D02*
X24500Y-29500D01*
X24500Y-29500D02*
X24500Y-29750D01*
X23500Y-25250D02*
X24250Y-25250D01*
X16750Y-53000D02*
X16250Y-52500D01*
G54D23*
X16750Y-54250D02*
X16750Y-53000D01*
G54D22*
X16750Y-55500D02*
X16750Y-54250D01*
X17250Y-26500D02*
X19250Y-26500D01*
X19250Y-26500D02*
X19500Y-26250D01*
X19500Y-26250D02*
X19500Y-25750D01*
X17750Y-57000D02*
X17750Y-59000D01*
X17750Y-54250D02*
X17750Y-57000D01*
G54D23*
X17750Y-54250D02*
X17750Y-53000D01*
G54D22*
X17250Y-52500D02*
X17750Y-53000D01*
X18250Y-26000D02*
X19000Y-25250D01*
X19000Y-25250D02*
X19500Y-25250D01*
X18750Y-58000D02*
X18750Y-59500D01*
X18750Y-54250D02*
X18750Y-58000D01*
G54D23*
X18750Y-54250D02*
X18750Y-53000D01*
G54D22*
X18250Y-52500D02*
X18750Y-53000D01*
X20250Y-24750D02*
X20250Y-27250D01*
X19500Y-24750D02*
X19750Y-24750D01*
X19750Y-24750D02*
X20250Y-24750D01*
X20750Y-58250D02*
X19750Y-57250D01*
X19750Y-57250D02*
X19750Y-54250D01*
X19750Y-53000D02*
X19250Y-52500D01*
G54D23*
X19750Y-54250D02*
X19750Y-53000D01*
G54D22*
X21000Y-28000D02*
X21000Y-25000D01*
X21000Y-24750D02*
X21000Y-25000D01*
X19500Y-24250D02*
X20250Y-24250D01*
X20500Y-24250D02*
X21000Y-24750D01*
X20250Y-24250D02*
X20500Y-24250D01*
X20750Y-56750D02*
X21500Y-57500D01*
X20750Y-53000D02*
X20750Y-56750D01*
X20250Y-52500D02*
X20750Y-53000D01*
X16500Y-24750D02*
X15500Y-23750D01*
X15500Y-23750D02*
X14250Y-23750D01*
X12750Y-27500D02*
X14250Y-27500D01*
X14500Y-27500D02*
X16500Y-25500D01*
X16500Y-25500D02*
X16500Y-24750D01*
X14250Y-27500D02*
X14500Y-27500D01*
X13250Y-53500D02*
X13250Y-58000D01*
X14250Y-24250D02*
X13750Y-24250D01*
X13750Y-24250D02*
X13250Y-24750D01*
X13250Y-27000D02*
X13250Y-24750D01*
X14250Y-53500D02*
X14250Y-58000D01*
X14250Y-58000D02*
X13750Y-58500D01*
X15250Y-24750D02*
X14250Y-24750D01*
X15250Y-53500D02*
X15250Y-60250D01*
X15250Y-60250D02*
X15750Y-60750D01*
X15750Y-25250D02*
X14250Y-25250D01*
X16250Y-53500D02*
X16250Y-60250D01*
X10250Y-29000D02*
X10250Y-25750D01*
X10750Y-29500D02*
X10250Y-29000D01*
X16750Y-29500D02*
X10750Y-29500D01*
X17250Y-53500D02*
X17250Y-56000D01*
X12500Y-21250D02*
X13500Y-22250D01*
X13500Y-22250D02*
X14250Y-22250D01*
X14250Y-22250D02*
X15700Y-22250D01*
X13000Y-66500D02*
X13000Y-64250D01*
X10250Y-22750D02*
X8000Y-22750D01*
X19000Y-22750D02*
X18250Y-22000D01*
X18250Y-22000D02*
X18250Y-21250D01*
X19500Y-22750D02*
X19000Y-22750D01*
X18250Y-21250D02*
X15750Y-21250D01*
X18750Y-72500D02*
X18750Y-69000D01*
X18750Y-69000D02*
X18750Y-64250D01*
X14750Y-62750D02*
X8500Y-62750D01*
X16250Y-64250D02*
X14750Y-62750D01*
X8750Y-23250D02*
X10250Y-23250D01*
X18500Y-23250D02*
X17250Y-22000D01*
X19500Y-23250D02*
X18500Y-23250D01*
X17750Y-72500D02*
X17750Y-69000D01*
X17750Y-69000D02*
X17750Y-63500D01*
X13750Y-62250D02*
X15250Y-62250D01*
X15250Y-62250D02*
X16500Y-63500D01*
X16500Y-63500D02*
X17750Y-63500D01*
X13750Y-62250D02*
X9250Y-62250D01*
X12500Y-23250D02*
X10500Y-21250D01*
X14250Y-23250D02*
X12500Y-23250D01*
X14250Y-23250D02*
X15700Y-23250D01*
X11000Y-64250D02*
X11000Y-66500D01*
X23750Y-22250D02*
X24000Y-22000D01*
X24000Y-22000D02*
X24000Y-21250D01*
X23500Y-22250D02*
X23750Y-22250D01*
X23500Y-22250D02*
X24950Y-22250D01*
X24500Y-64250D02*
X24500Y-66500D01*
X23000Y-21250D02*
X22750Y-21500D01*
X22750Y-21500D02*
X22500Y-21750D01*
X22500Y-21750D02*
X22500Y-22250D01*
X22500Y-22250D02*
X23000Y-22750D01*
X23000Y-22750D02*
X23500Y-22750D01*
X23500Y-22750D02*
X24950Y-22750D01*
X23500Y-66500D02*
X23500Y-64250D01*
X22750Y-23250D02*
X22000Y-22500D01*
X22000Y-22500D02*
X22000Y-21250D01*
X23500Y-23250D02*
X22750Y-23250D01*
X23500Y-23250D02*
X24950Y-23250D01*
X22500Y-64250D02*
X22500Y-66500D01*
M02*
