G04 (created by PCBNEW (2013-07-07 BZR 4022)-stable) date dim. 09 mars 2014 21:57:11 CET*
%MOIN*%
G04 Gerber Fmt 3.4, Leading zero omitted, Abs format*
%FSLAX34Y34*%
G01*
G70*
G90*
G04 APERTURE LIST*
%ADD10C,0.00590551*%
%ADD11C,0.012*%
%ADD12C,0.015*%
%ADD13C,0.0026*%
%ADD14C,0.004*%
%ADD15C,0.0047*%
%ADD16C,0.005*%
%ADD17C,0.008*%
%ADD18C,0.0107*%
%ADD19C,0.0045*%
G04 APERTURE END LIST*
G54D10*
G54D11*
X15250Y-30800D02*
X15250Y-31100D01*
X15250Y-31100D02*
X11250Y-31100D01*
X11250Y-31100D02*
X11250Y-33900D01*
X11250Y-33900D02*
X21250Y-33900D01*
X21250Y-33900D02*
X21250Y-31100D01*
X21250Y-31100D02*
X17250Y-31100D01*
X17250Y-31100D02*
X17250Y-30800D01*
X8450Y-30800D02*
X8450Y-34200D01*
X8450Y-34200D02*
X24050Y-34200D01*
X24050Y-34200D02*
X24050Y-30800D01*
X24050Y-30800D02*
X8450Y-30800D01*
X12150Y-32000D02*
X11650Y-32300D01*
X11650Y-32300D02*
X11650Y-31700D01*
X11650Y-31700D02*
X12150Y-32000D01*
G54D12*
X15250Y-11750D02*
X15250Y-12000D01*
X15250Y-12000D02*
X18250Y-12000D01*
X18250Y-12000D02*
X18250Y-11750D01*
X18750Y-14250D02*
X14750Y-14250D01*
X14750Y-14250D02*
X14750Y-11750D01*
X14750Y-11750D02*
X18750Y-11750D01*
X18750Y-11750D02*
X18750Y-14250D01*
G54D13*
X15427Y-19323D02*
X15073Y-19323D01*
X15073Y-19323D02*
X15073Y-19166D01*
X15427Y-19166D02*
X15073Y-19166D01*
X15427Y-19323D02*
X15427Y-19166D01*
X15427Y-19834D02*
X15073Y-19834D01*
X15073Y-19834D02*
X15073Y-19677D01*
X15427Y-19677D02*
X15073Y-19677D01*
X15427Y-19834D02*
X15427Y-19677D01*
X15427Y-19500D02*
X15368Y-19500D01*
X15368Y-19500D02*
X15368Y-19382D01*
X15427Y-19382D02*
X15368Y-19382D01*
X15427Y-19500D02*
X15427Y-19382D01*
X15132Y-19500D02*
X15073Y-19500D01*
X15073Y-19500D02*
X15073Y-19382D01*
X15132Y-19382D02*
X15073Y-19382D01*
X15132Y-19500D02*
X15132Y-19382D01*
X15309Y-19500D02*
X15191Y-19500D01*
X15191Y-19500D02*
X15191Y-19382D01*
X15309Y-19382D02*
X15191Y-19382D01*
X15309Y-19500D02*
X15309Y-19382D01*
G54D14*
X15407Y-19323D02*
X15407Y-19677D01*
X15093Y-19323D02*
X15093Y-19677D01*
G54D15*
X20197Y-20994D02*
X20472Y-20994D01*
X19803Y-20994D02*
X19528Y-20994D01*
X20197Y-21506D02*
X20472Y-21506D01*
X19528Y-21506D02*
X19803Y-21506D01*
X20472Y-21500D02*
X20472Y-21000D01*
X19528Y-21000D02*
X19528Y-21500D01*
X9053Y-21756D02*
X8778Y-21756D01*
X9447Y-21756D02*
X9722Y-21756D01*
X9053Y-21244D02*
X8778Y-21244D01*
X9722Y-21244D02*
X9447Y-21244D01*
X8778Y-21250D02*
X8778Y-21750D01*
X9722Y-21750D02*
X9722Y-21250D01*
G54D16*
X15975Y-19303D02*
X15975Y-19025D01*
X15975Y-19025D02*
X16525Y-19025D01*
X16525Y-19025D02*
X16525Y-19303D01*
X15975Y-19975D02*
X15975Y-19697D01*
X15975Y-19975D02*
X16525Y-19975D01*
X16525Y-19975D02*
X16525Y-19697D01*
X15803Y-23525D02*
X15525Y-23525D01*
X15525Y-23525D02*
X15525Y-22975D01*
X15525Y-22975D02*
X15803Y-22975D01*
X16475Y-23525D02*
X16197Y-23525D01*
X16475Y-23525D02*
X16475Y-22975D01*
X16475Y-22975D02*
X16197Y-22975D01*
X15803Y-23025D02*
X15525Y-23025D01*
X15525Y-23025D02*
X15525Y-22475D01*
X15525Y-22475D02*
X15803Y-22475D01*
X16475Y-23025D02*
X16197Y-23025D01*
X16475Y-23025D02*
X16475Y-22475D01*
X16475Y-22475D02*
X16197Y-22475D01*
X15803Y-22525D02*
X15525Y-22525D01*
X15525Y-22525D02*
X15525Y-21975D01*
X15525Y-21975D02*
X15803Y-21975D01*
X16475Y-22525D02*
X16197Y-22525D01*
X16475Y-22525D02*
X16475Y-21975D01*
X16475Y-21975D02*
X16197Y-21975D01*
X25053Y-23525D02*
X24775Y-23525D01*
X24775Y-23525D02*
X24775Y-22975D01*
X24775Y-22975D02*
X25053Y-22975D01*
X25725Y-23525D02*
X25447Y-23525D01*
X25725Y-23525D02*
X25725Y-22975D01*
X25725Y-22975D02*
X25447Y-22975D01*
X25053Y-23025D02*
X24775Y-23025D01*
X24775Y-23025D02*
X24775Y-22475D01*
X24775Y-22475D02*
X25053Y-22475D01*
X25725Y-23025D02*
X25447Y-23025D01*
X25725Y-23025D02*
X25725Y-22475D01*
X25725Y-22475D02*
X25447Y-22475D01*
X25053Y-22525D02*
X24775Y-22525D01*
X24775Y-22525D02*
X24775Y-21975D01*
X24775Y-21975D02*
X25053Y-21975D01*
X25725Y-22525D02*
X25447Y-22525D01*
X25725Y-22525D02*
X25725Y-21975D01*
X25725Y-21975D02*
X25447Y-21975D01*
G54D17*
X13800Y-21850D02*
X10650Y-21850D01*
X10650Y-26150D02*
X13800Y-26150D01*
X10650Y-21850D02*
X10650Y-26150D01*
X13800Y-26150D02*
X13800Y-21850D01*
X12050Y-21850D02*
X12050Y-22150D01*
X12050Y-22150D02*
X12450Y-22150D01*
X12450Y-22150D02*
X12450Y-21850D01*
X23050Y-21850D02*
X19900Y-21850D01*
X19900Y-26150D02*
X23050Y-26150D01*
X19900Y-21850D02*
X19900Y-26150D01*
X23050Y-26150D02*
X23050Y-21850D01*
X21300Y-21850D02*
X21300Y-22150D01*
X21300Y-22150D02*
X21700Y-22150D01*
X21700Y-22150D02*
X21700Y-21850D01*
G54D12*
X13000Y-18000D02*
X13000Y-17000D01*
X13000Y-17000D02*
X9000Y-17000D01*
X9000Y-17000D02*
X9000Y-18000D01*
X9000Y-18000D02*
X13000Y-18000D01*
X8500Y-15500D02*
X8500Y-19500D01*
X8500Y-19500D02*
X13500Y-19500D01*
X13500Y-19500D02*
X13500Y-15500D01*
X13500Y-15500D02*
X8500Y-15500D01*
X24500Y-18000D02*
X24500Y-17000D01*
X24500Y-17000D02*
X20500Y-17000D01*
X20500Y-17000D02*
X20500Y-18000D01*
X20500Y-18000D02*
X24500Y-18000D01*
X20000Y-15500D02*
X20000Y-19500D01*
X20000Y-19500D02*
X25000Y-19500D01*
X25000Y-19500D02*
X25000Y-15500D01*
X25000Y-15500D02*
X20000Y-15500D01*
G54D11*
X14566Y-35183D02*
X14566Y-34483D01*
X14299Y-34483D01*
X14233Y-34516D01*
X14199Y-34550D01*
X14166Y-34616D01*
X14166Y-34716D01*
X14199Y-34783D01*
X14233Y-34816D01*
X14299Y-34850D01*
X14566Y-34850D01*
X13899Y-34550D02*
X13866Y-34516D01*
X13799Y-34483D01*
X13633Y-34483D01*
X13566Y-34516D01*
X13533Y-34550D01*
X13499Y-34616D01*
X13499Y-34683D01*
X13533Y-34783D01*
X13933Y-35183D01*
X13499Y-35183D01*
X23400Y-30316D02*
X23433Y-30350D01*
X23533Y-30383D01*
X23600Y-30383D01*
X23700Y-30350D01*
X23766Y-30283D01*
X23800Y-30216D01*
X23833Y-30083D01*
X23833Y-29983D01*
X23800Y-29850D01*
X23766Y-29783D01*
X23700Y-29716D01*
X23600Y-29683D01*
X23533Y-29683D01*
X23433Y-29716D01*
X23400Y-29750D01*
X22966Y-29683D02*
X22833Y-29683D01*
X22766Y-29716D01*
X22700Y-29783D01*
X22666Y-29916D01*
X22666Y-30150D01*
X22700Y-30283D01*
X22766Y-30350D01*
X22833Y-30383D01*
X22966Y-30383D01*
X23033Y-30350D01*
X23100Y-30283D01*
X23133Y-30150D01*
X23133Y-29916D01*
X23100Y-29783D01*
X23033Y-29716D01*
X22966Y-29683D01*
X22366Y-30383D02*
X22366Y-29683D01*
X21966Y-30383D01*
X21966Y-29683D01*
X21633Y-30383D02*
X21633Y-29683D01*
X21233Y-30383D01*
X21233Y-29683D01*
X21066Y-30450D02*
X20533Y-30450D01*
X20266Y-29983D02*
X20333Y-29950D01*
X20366Y-29916D01*
X20399Y-29850D01*
X20399Y-29816D01*
X20366Y-29750D01*
X20333Y-29716D01*
X20266Y-29683D01*
X20133Y-29683D01*
X20066Y-29716D01*
X20033Y-29750D01*
X19999Y-29816D01*
X19999Y-29850D01*
X20033Y-29916D01*
X20066Y-29950D01*
X20133Y-29983D01*
X20266Y-29983D01*
X20333Y-30016D01*
X20366Y-30050D01*
X20399Y-30116D01*
X20399Y-30250D01*
X20366Y-30316D01*
X20333Y-30350D01*
X20266Y-30383D01*
X20133Y-30383D01*
X20066Y-30350D01*
X20033Y-30316D01*
X19999Y-30250D01*
X19999Y-30116D01*
X20033Y-30050D01*
X20066Y-30016D01*
X20133Y-29983D01*
X19766Y-29683D02*
X19299Y-30383D01*
X19299Y-29683D02*
X19766Y-30383D01*
X19066Y-29750D02*
X19033Y-29716D01*
X18966Y-29683D01*
X18799Y-29683D01*
X18733Y-29716D01*
X18699Y-29750D01*
X18666Y-29816D01*
X18666Y-29883D01*
X18699Y-29983D01*
X19099Y-30383D01*
X18666Y-30383D01*
X11249Y-13435D02*
X11278Y-13464D01*
X11364Y-13492D01*
X11421Y-13492D01*
X11507Y-13464D01*
X11564Y-13407D01*
X11592Y-13350D01*
X11621Y-13235D01*
X11621Y-13150D01*
X11592Y-13035D01*
X11564Y-12978D01*
X11507Y-12921D01*
X11421Y-12892D01*
X11364Y-12892D01*
X11278Y-12921D01*
X11249Y-12950D01*
X10878Y-12892D02*
X10764Y-12892D01*
X10707Y-12921D01*
X10649Y-12978D01*
X10621Y-13092D01*
X10621Y-13292D01*
X10649Y-13407D01*
X10707Y-13464D01*
X10764Y-13492D01*
X10878Y-13492D01*
X10935Y-13464D01*
X10992Y-13407D01*
X11021Y-13292D01*
X11021Y-13092D01*
X10992Y-12978D01*
X10935Y-12921D01*
X10878Y-12892D01*
X10078Y-13492D02*
X10364Y-13492D01*
X10364Y-12892D01*
X9764Y-12892D02*
X9649Y-12892D01*
X9592Y-12921D01*
X9535Y-12978D01*
X9507Y-13092D01*
X9507Y-13292D01*
X9535Y-13407D01*
X9592Y-13464D01*
X9649Y-13492D01*
X9764Y-13492D01*
X9821Y-13464D01*
X9878Y-13407D01*
X9907Y-13292D01*
X9907Y-13092D01*
X9878Y-12978D01*
X9821Y-12921D01*
X9764Y-12892D01*
X9250Y-13492D02*
X9250Y-12892D01*
X8907Y-13492D01*
X8907Y-12892D01*
X8621Y-13178D02*
X8421Y-13178D01*
X8335Y-13492D02*
X8621Y-13492D01*
X8621Y-12892D01*
X8335Y-12892D01*
X8164Y-12892D02*
X7821Y-12892D01*
X7992Y-13492D02*
X7992Y-12892D01*
X7707Y-12892D02*
X7364Y-12892D01*
X7535Y-13492D02*
X7535Y-12892D01*
X7164Y-13178D02*
X6964Y-13178D01*
X6878Y-13492D02*
X7164Y-13492D01*
X7164Y-12892D01*
X6878Y-12892D01*
X10407Y-15642D02*
X10207Y-16242D01*
X10007Y-15642D01*
X9835Y-16071D02*
X9550Y-16071D01*
X9892Y-16242D02*
X9692Y-15642D01*
X9492Y-16242D01*
X9007Y-16242D02*
X9292Y-16242D01*
X9292Y-15642D01*
X8721Y-15642D02*
X8721Y-15785D01*
X8864Y-15728D02*
X8721Y-15785D01*
X8578Y-15728D01*
X8807Y-15900D02*
X8721Y-15785D01*
X8635Y-15900D01*
X8264Y-15642D02*
X8264Y-15785D01*
X8407Y-15728D02*
X8264Y-15785D01*
X8121Y-15728D01*
X8350Y-15900D02*
X8264Y-15785D01*
X8178Y-15900D01*
X25749Y-13435D02*
X25778Y-13464D01*
X25864Y-13492D01*
X25921Y-13492D01*
X26007Y-13464D01*
X26064Y-13407D01*
X26092Y-13350D01*
X26121Y-13235D01*
X26121Y-13150D01*
X26092Y-13035D01*
X26064Y-12978D01*
X26007Y-12921D01*
X25921Y-12892D01*
X25864Y-12892D01*
X25778Y-12921D01*
X25749Y-12950D01*
X25378Y-12892D02*
X25264Y-12892D01*
X25207Y-12921D01*
X25149Y-12978D01*
X25121Y-13092D01*
X25121Y-13292D01*
X25149Y-13407D01*
X25207Y-13464D01*
X25264Y-13492D01*
X25378Y-13492D01*
X25435Y-13464D01*
X25492Y-13407D01*
X25521Y-13292D01*
X25521Y-13092D01*
X25492Y-12978D01*
X25435Y-12921D01*
X25378Y-12892D01*
X24578Y-13492D02*
X24864Y-13492D01*
X24864Y-12892D01*
X24264Y-12892D02*
X24149Y-12892D01*
X24092Y-12921D01*
X24035Y-12978D01*
X24007Y-13092D01*
X24007Y-13292D01*
X24035Y-13407D01*
X24092Y-13464D01*
X24149Y-13492D01*
X24264Y-13492D01*
X24321Y-13464D01*
X24378Y-13407D01*
X24407Y-13292D01*
X24407Y-13092D01*
X24378Y-12978D01*
X24321Y-12921D01*
X24264Y-12892D01*
X23750Y-13492D02*
X23750Y-12892D01*
X23407Y-13492D01*
X23407Y-12892D01*
X23121Y-13178D02*
X22921Y-13178D01*
X22835Y-13492D02*
X23121Y-13492D01*
X23121Y-12892D01*
X22835Y-12892D01*
X22664Y-12892D02*
X22321Y-12892D01*
X22492Y-13492D02*
X22492Y-12892D01*
X22207Y-12892D02*
X21864Y-12892D01*
X22035Y-13492D02*
X22035Y-12892D01*
X21664Y-13178D02*
X21464Y-13178D01*
X21378Y-13492D02*
X21664Y-13492D01*
X21664Y-12892D01*
X21378Y-12892D01*
X24907Y-15642D02*
X24707Y-16242D01*
X24507Y-15642D01*
X24335Y-16071D02*
X24050Y-16071D01*
X24392Y-16242D02*
X24192Y-15642D01*
X23992Y-16242D01*
X23507Y-16242D02*
X23792Y-16242D01*
X23792Y-15642D01*
X23221Y-15642D02*
X23221Y-15785D01*
X23364Y-15728D02*
X23221Y-15785D01*
X23078Y-15728D01*
X23307Y-15900D02*
X23221Y-15785D01*
X23135Y-15900D01*
X22764Y-15642D02*
X22764Y-15785D01*
X22907Y-15728D02*
X22764Y-15785D01*
X22621Y-15728D01*
X22850Y-15900D02*
X22764Y-15785D01*
X22678Y-15900D01*
X11249Y-32435D02*
X11278Y-32464D01*
X11364Y-32492D01*
X11421Y-32492D01*
X11507Y-32464D01*
X11564Y-32407D01*
X11592Y-32350D01*
X11621Y-32235D01*
X11621Y-32150D01*
X11592Y-32035D01*
X11564Y-31978D01*
X11507Y-31921D01*
X11421Y-31892D01*
X11364Y-31892D01*
X11278Y-31921D01*
X11249Y-31950D01*
X10878Y-31892D02*
X10764Y-31892D01*
X10707Y-31921D01*
X10649Y-31978D01*
X10621Y-32092D01*
X10621Y-32292D01*
X10649Y-32407D01*
X10707Y-32464D01*
X10764Y-32492D01*
X10878Y-32492D01*
X10935Y-32464D01*
X10992Y-32407D01*
X11021Y-32292D01*
X11021Y-32092D01*
X10992Y-31978D01*
X10935Y-31921D01*
X10878Y-31892D01*
X10078Y-32492D02*
X10364Y-32492D01*
X10364Y-31892D01*
X9764Y-31892D02*
X9649Y-31892D01*
X9592Y-31921D01*
X9535Y-31978D01*
X9507Y-32092D01*
X9507Y-32292D01*
X9535Y-32407D01*
X9592Y-32464D01*
X9649Y-32492D01*
X9764Y-32492D01*
X9821Y-32464D01*
X9878Y-32407D01*
X9907Y-32292D01*
X9907Y-32092D01*
X9878Y-31978D01*
X9821Y-31921D01*
X9764Y-31892D01*
X9250Y-32492D02*
X9250Y-31892D01*
X8907Y-32492D01*
X8907Y-31892D01*
X8621Y-32178D02*
X8421Y-32178D01*
X8335Y-32492D02*
X8621Y-32492D01*
X8621Y-31892D01*
X8335Y-31892D01*
X8164Y-31892D02*
X7821Y-31892D01*
X7992Y-32492D02*
X7992Y-31892D01*
X7707Y-31892D02*
X7364Y-31892D01*
X7535Y-32492D02*
X7535Y-31892D01*
X7164Y-32178D02*
X6964Y-32178D01*
X6878Y-32492D02*
X7164Y-32492D01*
X7164Y-31892D01*
X6878Y-31892D01*
X10407Y-34642D02*
X10207Y-35242D01*
X10007Y-34642D01*
X9835Y-35071D02*
X9550Y-35071D01*
X9892Y-35242D02*
X9692Y-34642D01*
X9492Y-35242D01*
X9007Y-35242D02*
X9292Y-35242D01*
X9292Y-34642D01*
X8721Y-34642D02*
X8721Y-34785D01*
X8864Y-34728D02*
X8721Y-34785D01*
X8578Y-34728D01*
X8807Y-34900D02*
X8721Y-34785D01*
X8635Y-34900D01*
X8264Y-34642D02*
X8264Y-34785D01*
X8407Y-34728D02*
X8264Y-34785D01*
X8121Y-34728D01*
X8350Y-34900D02*
X8264Y-34785D01*
X8178Y-34900D01*
X25999Y-32435D02*
X26028Y-32464D01*
X26114Y-32492D01*
X26171Y-32492D01*
X26257Y-32464D01*
X26314Y-32407D01*
X26342Y-32350D01*
X26371Y-32235D01*
X26371Y-32150D01*
X26342Y-32035D01*
X26314Y-31978D01*
X26257Y-31921D01*
X26171Y-31892D01*
X26114Y-31892D01*
X26028Y-31921D01*
X25999Y-31950D01*
X25628Y-31892D02*
X25514Y-31892D01*
X25457Y-31921D01*
X25399Y-31978D01*
X25371Y-32092D01*
X25371Y-32292D01*
X25399Y-32407D01*
X25457Y-32464D01*
X25514Y-32492D01*
X25628Y-32492D01*
X25685Y-32464D01*
X25742Y-32407D01*
X25771Y-32292D01*
X25771Y-32092D01*
X25742Y-31978D01*
X25685Y-31921D01*
X25628Y-31892D01*
X24828Y-32492D02*
X25114Y-32492D01*
X25114Y-31892D01*
X24514Y-31892D02*
X24399Y-31892D01*
X24342Y-31921D01*
X24285Y-31978D01*
X24257Y-32092D01*
X24257Y-32292D01*
X24285Y-32407D01*
X24342Y-32464D01*
X24399Y-32492D01*
X24514Y-32492D01*
X24571Y-32464D01*
X24628Y-32407D01*
X24657Y-32292D01*
X24657Y-32092D01*
X24628Y-31978D01*
X24571Y-31921D01*
X24514Y-31892D01*
X24000Y-32492D02*
X24000Y-31892D01*
X23657Y-32492D01*
X23657Y-31892D01*
X23371Y-32178D02*
X23171Y-32178D01*
X23085Y-32492D02*
X23371Y-32492D01*
X23371Y-31892D01*
X23085Y-31892D01*
X22914Y-31892D02*
X22571Y-31892D01*
X22742Y-32492D02*
X22742Y-31892D01*
X22457Y-31892D02*
X22114Y-31892D01*
X22285Y-32492D02*
X22285Y-31892D01*
X21914Y-32178D02*
X21714Y-32178D01*
X21628Y-32492D02*
X21914Y-32492D01*
X21914Y-31892D01*
X21628Y-31892D01*
X25157Y-34642D02*
X24957Y-35242D01*
X24757Y-34642D01*
X24585Y-35071D02*
X24300Y-35071D01*
X24642Y-35242D02*
X24442Y-34642D01*
X24242Y-35242D01*
X23757Y-35242D02*
X24042Y-35242D01*
X24042Y-34642D01*
X23471Y-34642D02*
X23471Y-34785D01*
X23614Y-34728D02*
X23471Y-34785D01*
X23328Y-34728D01*
X23557Y-34900D02*
X23471Y-34785D01*
X23385Y-34900D01*
X23014Y-34642D02*
X23014Y-34785D01*
X23157Y-34728D02*
X23014Y-34785D01*
X22871Y-34728D01*
X23100Y-34900D02*
X23014Y-34785D01*
X22928Y-34900D01*
G54D18*
X19065Y-10276D02*
X19065Y-9593D01*
X18902Y-9593D01*
X18862Y-9625D01*
X18841Y-9658D01*
X18821Y-9723D01*
X18821Y-9821D01*
X18841Y-9886D01*
X18862Y-9918D01*
X18902Y-9951D01*
X19065Y-9951D01*
X18413Y-10276D02*
X18658Y-10276D01*
X18536Y-10276D02*
X18536Y-9593D01*
X18576Y-9691D01*
X18617Y-9756D01*
X18658Y-9788D01*
G54D16*
X15730Y-19352D02*
X15530Y-19352D01*
X15530Y-19400D01*
X15540Y-19428D01*
X15559Y-19447D01*
X15578Y-19457D01*
X15616Y-19466D01*
X15645Y-19466D01*
X15683Y-19457D01*
X15702Y-19447D01*
X15721Y-19428D01*
X15730Y-19400D01*
X15730Y-19352D01*
X15730Y-19657D02*
X15730Y-19542D01*
X15730Y-19600D02*
X15530Y-19600D01*
X15559Y-19580D01*
X15578Y-19561D01*
X15588Y-19542D01*
X14930Y-19371D02*
X14930Y-19276D01*
X14730Y-19276D01*
X14826Y-19438D02*
X14826Y-19504D01*
X14930Y-19533D02*
X14930Y-19438D01*
X14730Y-19438D01*
X14730Y-19533D01*
X14930Y-19619D02*
X14730Y-19619D01*
X14730Y-19666D01*
X14740Y-19695D01*
X14759Y-19714D01*
X14778Y-19723D01*
X14816Y-19733D01*
X14845Y-19733D01*
X14883Y-19723D01*
X14902Y-19714D01*
X14921Y-19695D01*
X14930Y-19666D01*
X14930Y-19619D01*
G54D19*
X20061Y-21220D02*
X20071Y-21211D01*
X20080Y-21185D01*
X20080Y-21168D01*
X20071Y-21142D01*
X20052Y-21125D01*
X20033Y-21117D01*
X19995Y-21108D01*
X19966Y-21108D01*
X19928Y-21117D01*
X19909Y-21125D01*
X19890Y-21142D01*
X19880Y-21168D01*
X19880Y-21185D01*
X19890Y-21211D01*
X19900Y-21220D01*
X19900Y-21288D02*
X19890Y-21297D01*
X19880Y-21314D01*
X19880Y-21357D01*
X19890Y-21374D01*
X19900Y-21382D01*
X19919Y-21391D01*
X19938Y-21391D01*
X19966Y-21382D01*
X20080Y-21280D01*
X20080Y-21391D01*
X19430Y-21048D02*
X19430Y-20945D01*
X19430Y-20997D02*
X19230Y-20997D01*
X19259Y-20979D01*
X19278Y-20962D01*
X19288Y-20945D01*
X19230Y-21160D02*
X19230Y-21177D01*
X19240Y-21194D01*
X19250Y-21202D01*
X19269Y-21211D01*
X19307Y-21220D01*
X19354Y-21220D01*
X19392Y-21211D01*
X19411Y-21202D01*
X19421Y-21194D01*
X19430Y-21177D01*
X19430Y-21160D01*
X19421Y-21142D01*
X19411Y-21134D01*
X19392Y-21125D01*
X19354Y-21117D01*
X19307Y-21117D01*
X19269Y-21125D01*
X19250Y-21134D01*
X19240Y-21142D01*
X19230Y-21160D01*
X19230Y-21331D02*
X19230Y-21348D01*
X19240Y-21365D01*
X19250Y-21374D01*
X19269Y-21382D01*
X19307Y-21391D01*
X19354Y-21391D01*
X19392Y-21382D01*
X19411Y-21374D01*
X19421Y-21365D01*
X19430Y-21348D01*
X19430Y-21331D01*
X19421Y-21314D01*
X19411Y-21305D01*
X19392Y-21297D01*
X19354Y-21288D01*
X19307Y-21288D01*
X19269Y-21297D01*
X19250Y-21305D01*
X19240Y-21314D01*
X19230Y-21331D01*
X19297Y-21468D02*
X19430Y-21468D01*
X19316Y-21468D02*
X19307Y-21477D01*
X19297Y-21494D01*
X19297Y-21520D01*
X19307Y-21537D01*
X19326Y-21545D01*
X19430Y-21545D01*
X9311Y-21470D02*
X9321Y-21461D01*
X9330Y-21435D01*
X9330Y-21418D01*
X9321Y-21392D01*
X9302Y-21375D01*
X9283Y-21367D01*
X9245Y-21358D01*
X9216Y-21358D01*
X9178Y-21367D01*
X9159Y-21375D01*
X9140Y-21392D01*
X9130Y-21418D01*
X9130Y-21435D01*
X9140Y-21461D01*
X9150Y-21470D01*
X9330Y-21641D02*
X9330Y-21538D01*
X9330Y-21590D02*
X9130Y-21590D01*
X9159Y-21572D01*
X9178Y-21555D01*
X9188Y-21538D01*
X9980Y-21298D02*
X9980Y-21195D01*
X9980Y-21247D02*
X9780Y-21247D01*
X9809Y-21229D01*
X9828Y-21212D01*
X9838Y-21195D01*
X9780Y-21410D02*
X9780Y-21427D01*
X9790Y-21444D01*
X9800Y-21452D01*
X9819Y-21461D01*
X9857Y-21470D01*
X9904Y-21470D01*
X9942Y-21461D01*
X9961Y-21452D01*
X9971Y-21444D01*
X9980Y-21427D01*
X9980Y-21410D01*
X9971Y-21392D01*
X9961Y-21384D01*
X9942Y-21375D01*
X9904Y-21367D01*
X9857Y-21367D01*
X9819Y-21375D01*
X9800Y-21384D01*
X9790Y-21392D01*
X9780Y-21410D01*
X9780Y-21581D02*
X9780Y-21598D01*
X9790Y-21615D01*
X9800Y-21624D01*
X9819Y-21632D01*
X9857Y-21641D01*
X9904Y-21641D01*
X9942Y-21632D01*
X9961Y-21624D01*
X9971Y-21615D01*
X9980Y-21598D01*
X9980Y-21581D01*
X9971Y-21564D01*
X9961Y-21555D01*
X9942Y-21547D01*
X9904Y-21538D01*
X9857Y-21538D01*
X9819Y-21547D01*
X9800Y-21555D01*
X9790Y-21564D01*
X9780Y-21581D01*
X9847Y-21718D02*
X9980Y-21718D01*
X9866Y-21718D02*
X9857Y-21727D01*
X9847Y-21744D01*
X9847Y-21770D01*
X9857Y-21787D01*
X9876Y-21795D01*
X9980Y-21795D01*
X16255Y-19604D02*
X16315Y-19510D01*
X16357Y-19604D02*
X16357Y-19407D01*
X16289Y-19407D01*
X16272Y-19417D01*
X16263Y-19426D01*
X16255Y-19445D01*
X16255Y-19473D01*
X16263Y-19492D01*
X16272Y-19501D01*
X16289Y-19510D01*
X16357Y-19510D01*
X16083Y-19604D02*
X16186Y-19604D01*
X16135Y-19604D02*
X16135Y-19407D01*
X16152Y-19435D01*
X16169Y-19454D01*
X16186Y-19464D01*
X16271Y-18911D02*
X16374Y-18911D01*
X16322Y-18911D02*
X16322Y-18711D01*
X16340Y-18740D01*
X16357Y-18759D01*
X16374Y-18769D01*
X16194Y-18911D02*
X16194Y-18711D01*
X16177Y-18835D02*
X16125Y-18911D01*
X16125Y-18778D02*
X16194Y-18854D01*
X16104Y-23245D02*
X16010Y-23185D01*
X16104Y-23142D02*
X15907Y-23142D01*
X15907Y-23210D01*
X15917Y-23227D01*
X15926Y-23236D01*
X15945Y-23245D01*
X15973Y-23245D01*
X15992Y-23236D01*
X16001Y-23227D01*
X16010Y-23210D01*
X16010Y-23142D01*
X15907Y-23305D02*
X15907Y-23425D01*
X16104Y-23347D01*
X15411Y-23142D02*
X15411Y-23040D01*
X15411Y-23091D02*
X15211Y-23091D01*
X15240Y-23074D01*
X15259Y-23057D01*
X15269Y-23040D01*
X15211Y-23254D02*
X15211Y-23271D01*
X15221Y-23288D01*
X15231Y-23297D01*
X15250Y-23305D01*
X15288Y-23314D01*
X15335Y-23314D01*
X15373Y-23305D01*
X15392Y-23297D01*
X15402Y-23288D01*
X15411Y-23271D01*
X15411Y-23254D01*
X15402Y-23237D01*
X15392Y-23228D01*
X15373Y-23220D01*
X15335Y-23211D01*
X15288Y-23211D01*
X15250Y-23220D01*
X15231Y-23228D01*
X15221Y-23237D01*
X15211Y-23254D01*
X15411Y-23391D02*
X15211Y-23391D01*
X15335Y-23408D02*
X15411Y-23460D01*
X15278Y-23460D02*
X15354Y-23391D01*
X16104Y-22745D02*
X16010Y-22685D01*
X16104Y-22642D02*
X15907Y-22642D01*
X15907Y-22710D01*
X15917Y-22727D01*
X15926Y-22736D01*
X15945Y-22745D01*
X15973Y-22745D01*
X15992Y-22736D01*
X16001Y-22727D01*
X16010Y-22710D01*
X16010Y-22642D01*
X15907Y-22907D02*
X15907Y-22822D01*
X16001Y-22813D01*
X15992Y-22822D01*
X15982Y-22839D01*
X15982Y-22882D01*
X15992Y-22899D01*
X16001Y-22907D01*
X16020Y-22916D01*
X16067Y-22916D01*
X16085Y-22907D01*
X16095Y-22899D01*
X16104Y-22882D01*
X16104Y-22839D01*
X16095Y-22822D01*
X16085Y-22813D01*
X15411Y-22642D02*
X15411Y-22540D01*
X15411Y-22591D02*
X15211Y-22591D01*
X15240Y-22574D01*
X15259Y-22557D01*
X15269Y-22540D01*
X15211Y-22754D02*
X15211Y-22771D01*
X15221Y-22788D01*
X15231Y-22797D01*
X15250Y-22805D01*
X15288Y-22814D01*
X15335Y-22814D01*
X15373Y-22805D01*
X15392Y-22797D01*
X15402Y-22788D01*
X15411Y-22771D01*
X15411Y-22754D01*
X15402Y-22737D01*
X15392Y-22728D01*
X15373Y-22720D01*
X15335Y-22711D01*
X15288Y-22711D01*
X15250Y-22720D01*
X15231Y-22728D01*
X15221Y-22737D01*
X15211Y-22754D01*
X15411Y-22891D02*
X15211Y-22891D01*
X15335Y-22908D02*
X15411Y-22960D01*
X15278Y-22960D02*
X15354Y-22891D01*
X16104Y-22245D02*
X16010Y-22185D01*
X16104Y-22142D02*
X15907Y-22142D01*
X15907Y-22210D01*
X15917Y-22227D01*
X15926Y-22236D01*
X15945Y-22245D01*
X15973Y-22245D01*
X15992Y-22236D01*
X16001Y-22227D01*
X16010Y-22210D01*
X16010Y-22142D01*
X15907Y-22305D02*
X15907Y-22416D01*
X15982Y-22356D01*
X15982Y-22382D01*
X15992Y-22399D01*
X16001Y-22407D01*
X16020Y-22416D01*
X16067Y-22416D01*
X16085Y-22407D01*
X16095Y-22399D01*
X16104Y-22382D01*
X16104Y-22330D01*
X16095Y-22313D01*
X16085Y-22305D01*
X15411Y-22142D02*
X15411Y-22040D01*
X15411Y-22091D02*
X15211Y-22091D01*
X15240Y-22074D01*
X15259Y-22057D01*
X15269Y-22040D01*
X15211Y-22254D02*
X15211Y-22271D01*
X15221Y-22288D01*
X15231Y-22297D01*
X15250Y-22305D01*
X15288Y-22314D01*
X15335Y-22314D01*
X15373Y-22305D01*
X15392Y-22297D01*
X15402Y-22288D01*
X15411Y-22271D01*
X15411Y-22254D01*
X15402Y-22237D01*
X15392Y-22228D01*
X15373Y-22220D01*
X15335Y-22211D01*
X15288Y-22211D01*
X15250Y-22220D01*
X15231Y-22228D01*
X15221Y-22237D01*
X15211Y-22254D01*
X15411Y-22391D02*
X15211Y-22391D01*
X15335Y-22408D02*
X15411Y-22460D01*
X15278Y-22460D02*
X15354Y-22391D01*
X25354Y-23245D02*
X25260Y-23185D01*
X25354Y-23142D02*
X25157Y-23142D01*
X25157Y-23210D01*
X25167Y-23227D01*
X25176Y-23236D01*
X25195Y-23245D01*
X25223Y-23245D01*
X25242Y-23236D01*
X25251Y-23227D01*
X25260Y-23210D01*
X25260Y-23142D01*
X25157Y-23399D02*
X25157Y-23365D01*
X25167Y-23347D01*
X25176Y-23339D01*
X25204Y-23322D01*
X25242Y-23313D01*
X25317Y-23313D01*
X25335Y-23322D01*
X25345Y-23330D01*
X25354Y-23347D01*
X25354Y-23382D01*
X25345Y-23399D01*
X25335Y-23407D01*
X25317Y-23416D01*
X25270Y-23416D01*
X25251Y-23407D01*
X25242Y-23399D01*
X25232Y-23382D01*
X25232Y-23347D01*
X25242Y-23330D01*
X25251Y-23322D01*
X25270Y-23313D01*
X24661Y-23142D02*
X24661Y-23040D01*
X24661Y-23091D02*
X24461Y-23091D01*
X24490Y-23074D01*
X24509Y-23057D01*
X24519Y-23040D01*
X24461Y-23254D02*
X24461Y-23271D01*
X24471Y-23288D01*
X24481Y-23297D01*
X24500Y-23305D01*
X24538Y-23314D01*
X24585Y-23314D01*
X24623Y-23305D01*
X24642Y-23297D01*
X24652Y-23288D01*
X24661Y-23271D01*
X24661Y-23254D01*
X24652Y-23237D01*
X24642Y-23228D01*
X24623Y-23220D01*
X24585Y-23211D01*
X24538Y-23211D01*
X24500Y-23220D01*
X24481Y-23228D01*
X24471Y-23237D01*
X24461Y-23254D01*
X24661Y-23391D02*
X24461Y-23391D01*
X24585Y-23408D02*
X24661Y-23460D01*
X24528Y-23460D02*
X24604Y-23391D01*
X25354Y-22745D02*
X25260Y-22685D01*
X25354Y-22642D02*
X25157Y-22642D01*
X25157Y-22710D01*
X25167Y-22727D01*
X25176Y-22736D01*
X25195Y-22745D01*
X25223Y-22745D01*
X25242Y-22736D01*
X25251Y-22727D01*
X25260Y-22710D01*
X25260Y-22642D01*
X25223Y-22899D02*
X25354Y-22899D01*
X25148Y-22856D02*
X25289Y-22813D01*
X25289Y-22925D01*
X24661Y-22642D02*
X24661Y-22540D01*
X24661Y-22591D02*
X24461Y-22591D01*
X24490Y-22574D01*
X24509Y-22557D01*
X24519Y-22540D01*
X24461Y-22754D02*
X24461Y-22771D01*
X24471Y-22788D01*
X24481Y-22797D01*
X24500Y-22805D01*
X24538Y-22814D01*
X24585Y-22814D01*
X24623Y-22805D01*
X24642Y-22797D01*
X24652Y-22788D01*
X24661Y-22771D01*
X24661Y-22754D01*
X24652Y-22737D01*
X24642Y-22728D01*
X24623Y-22720D01*
X24585Y-22711D01*
X24538Y-22711D01*
X24500Y-22720D01*
X24481Y-22728D01*
X24471Y-22737D01*
X24461Y-22754D01*
X24661Y-22891D02*
X24461Y-22891D01*
X24585Y-22908D02*
X24661Y-22960D01*
X24528Y-22960D02*
X24604Y-22891D01*
X25354Y-22245D02*
X25260Y-22185D01*
X25354Y-22142D02*
X25157Y-22142D01*
X25157Y-22210D01*
X25167Y-22227D01*
X25176Y-22236D01*
X25195Y-22245D01*
X25223Y-22245D01*
X25242Y-22236D01*
X25251Y-22227D01*
X25260Y-22210D01*
X25260Y-22142D01*
X25176Y-22313D02*
X25167Y-22322D01*
X25157Y-22339D01*
X25157Y-22382D01*
X25167Y-22399D01*
X25176Y-22407D01*
X25195Y-22416D01*
X25214Y-22416D01*
X25242Y-22407D01*
X25354Y-22305D01*
X25354Y-22416D01*
X24661Y-22142D02*
X24661Y-22040D01*
X24661Y-22091D02*
X24461Y-22091D01*
X24490Y-22074D01*
X24509Y-22057D01*
X24519Y-22040D01*
X24461Y-22254D02*
X24461Y-22271D01*
X24471Y-22288D01*
X24481Y-22297D01*
X24500Y-22305D01*
X24538Y-22314D01*
X24585Y-22314D01*
X24623Y-22305D01*
X24642Y-22297D01*
X24652Y-22288D01*
X24661Y-22271D01*
X24661Y-22254D01*
X24652Y-22237D01*
X24642Y-22228D01*
X24623Y-22220D01*
X24585Y-22211D01*
X24538Y-22211D01*
X24500Y-22220D01*
X24481Y-22228D01*
X24471Y-22237D01*
X24461Y-22254D01*
X24661Y-22391D02*
X24461Y-22391D01*
X24585Y-22408D02*
X24661Y-22460D01*
X24528Y-22460D02*
X24604Y-22391D01*
G54D16*
X11602Y-23719D02*
X12007Y-23719D01*
X12054Y-23742D01*
X12078Y-23766D01*
X12102Y-23814D01*
X12102Y-23909D01*
X12078Y-23957D01*
X12054Y-23980D01*
X12007Y-24004D01*
X11602Y-24004D01*
X11650Y-24219D02*
X11626Y-24242D01*
X11602Y-24290D01*
X11602Y-24409D01*
X11626Y-24457D01*
X11650Y-24480D01*
X11697Y-24504D01*
X11745Y-24504D01*
X11816Y-24480D01*
X12102Y-24195D01*
X12102Y-24504D01*
X13352Y-22311D02*
X12852Y-22311D01*
X12852Y-22502D01*
X12876Y-22550D01*
X12900Y-22573D01*
X12947Y-22597D01*
X13019Y-22597D01*
X13066Y-22573D01*
X13090Y-22550D01*
X13114Y-22502D01*
X13114Y-22311D01*
X13304Y-23097D02*
X13328Y-23073D01*
X13352Y-23002D01*
X13352Y-22954D01*
X13328Y-22883D01*
X13280Y-22835D01*
X13233Y-22811D01*
X13138Y-22788D01*
X13066Y-22788D01*
X12971Y-22811D01*
X12923Y-22835D01*
X12876Y-22883D01*
X12852Y-22954D01*
X12852Y-23002D01*
X12876Y-23073D01*
X12900Y-23097D01*
X13090Y-23478D02*
X13090Y-23311D01*
X13352Y-23311D02*
X12852Y-23311D01*
X12852Y-23550D01*
X13066Y-23811D02*
X13042Y-23764D01*
X13019Y-23740D01*
X12971Y-23716D01*
X12947Y-23716D01*
X12900Y-23740D01*
X12876Y-23764D01*
X12852Y-23811D01*
X12852Y-23907D01*
X12876Y-23954D01*
X12900Y-23978D01*
X12947Y-24002D01*
X12971Y-24002D01*
X13019Y-23978D01*
X13042Y-23954D01*
X13066Y-23907D01*
X13066Y-23811D01*
X13090Y-23764D01*
X13114Y-23740D01*
X13161Y-23716D01*
X13257Y-23716D01*
X13304Y-23740D01*
X13328Y-23764D01*
X13352Y-23811D01*
X13352Y-23907D01*
X13328Y-23954D01*
X13304Y-23978D01*
X13257Y-24002D01*
X13161Y-24002D01*
X13114Y-23978D01*
X13090Y-23954D01*
X13066Y-23907D01*
X12852Y-24454D02*
X12852Y-24216D01*
X13090Y-24192D01*
X13066Y-24216D01*
X13042Y-24264D01*
X13042Y-24383D01*
X13066Y-24430D01*
X13090Y-24454D01*
X13138Y-24478D01*
X13257Y-24478D01*
X13304Y-24454D01*
X13328Y-24430D01*
X13352Y-24383D01*
X13352Y-24264D01*
X13328Y-24216D01*
X13304Y-24192D01*
X12852Y-24645D02*
X12852Y-24978D01*
X13352Y-24764D01*
X13019Y-25383D02*
X13352Y-25383D01*
X12828Y-25264D02*
X13185Y-25145D01*
X13185Y-25454D01*
X12852Y-25573D02*
X12852Y-25859D01*
X13352Y-25716D02*
X12852Y-25716D01*
X20852Y-23719D02*
X21257Y-23719D01*
X21304Y-23742D01*
X21328Y-23766D01*
X21352Y-23814D01*
X21352Y-23909D01*
X21328Y-23957D01*
X21304Y-23980D01*
X21257Y-24004D01*
X20852Y-24004D01*
X21352Y-24504D02*
X21352Y-24219D01*
X21352Y-24361D02*
X20852Y-24361D01*
X20923Y-24314D01*
X20971Y-24266D01*
X20995Y-24219D01*
X22602Y-22311D02*
X22102Y-22311D01*
X22102Y-22502D01*
X22126Y-22550D01*
X22150Y-22573D01*
X22197Y-22597D01*
X22269Y-22597D01*
X22316Y-22573D01*
X22340Y-22550D01*
X22364Y-22502D01*
X22364Y-22311D01*
X22554Y-23097D02*
X22578Y-23073D01*
X22602Y-23002D01*
X22602Y-22954D01*
X22578Y-22883D01*
X22530Y-22835D01*
X22483Y-22811D01*
X22388Y-22788D01*
X22316Y-22788D01*
X22221Y-22811D01*
X22173Y-22835D01*
X22126Y-22883D01*
X22102Y-22954D01*
X22102Y-23002D01*
X22126Y-23073D01*
X22150Y-23097D01*
X22340Y-23478D02*
X22340Y-23311D01*
X22602Y-23311D02*
X22102Y-23311D01*
X22102Y-23550D01*
X22316Y-23811D02*
X22292Y-23764D01*
X22269Y-23740D01*
X22221Y-23716D01*
X22197Y-23716D01*
X22150Y-23740D01*
X22126Y-23764D01*
X22102Y-23811D01*
X22102Y-23907D01*
X22126Y-23954D01*
X22150Y-23978D01*
X22197Y-24002D01*
X22221Y-24002D01*
X22269Y-23978D01*
X22292Y-23954D01*
X22316Y-23907D01*
X22316Y-23811D01*
X22340Y-23764D01*
X22364Y-23740D01*
X22411Y-23716D01*
X22507Y-23716D01*
X22554Y-23740D01*
X22578Y-23764D01*
X22602Y-23811D01*
X22602Y-23907D01*
X22578Y-23954D01*
X22554Y-23978D01*
X22507Y-24002D01*
X22411Y-24002D01*
X22364Y-23978D01*
X22340Y-23954D01*
X22316Y-23907D01*
X22102Y-24454D02*
X22102Y-24216D01*
X22340Y-24192D01*
X22316Y-24216D01*
X22292Y-24264D01*
X22292Y-24383D01*
X22316Y-24430D01*
X22340Y-24454D01*
X22388Y-24478D01*
X22507Y-24478D01*
X22554Y-24454D01*
X22578Y-24430D01*
X22602Y-24383D01*
X22602Y-24264D01*
X22578Y-24216D01*
X22554Y-24192D01*
X22102Y-24645D02*
X22102Y-24978D01*
X22602Y-24764D01*
X22269Y-25383D02*
X22602Y-25383D01*
X22078Y-25264D02*
X22435Y-25145D01*
X22435Y-25454D01*
X22102Y-25573D02*
X22102Y-25859D01*
X22602Y-25716D02*
X22102Y-25716D01*
G54D11*
X11800Y-15178D02*
X11714Y-15202D01*
X11571Y-15202D01*
X11514Y-15178D01*
X11485Y-15154D01*
X11457Y-15107D01*
X11457Y-15059D01*
X11485Y-15011D01*
X11514Y-14988D01*
X11571Y-14964D01*
X11685Y-14940D01*
X11742Y-14916D01*
X11771Y-14892D01*
X11800Y-14845D01*
X11800Y-14797D01*
X11771Y-14750D01*
X11742Y-14726D01*
X11685Y-14702D01*
X11542Y-14702D01*
X11457Y-14726D01*
X11257Y-14702D02*
X11114Y-15202D01*
X11000Y-14845D01*
X10885Y-15202D01*
X10742Y-14702D01*
X10542Y-14750D02*
X10514Y-14726D01*
X10457Y-14702D01*
X10314Y-14702D01*
X10257Y-14726D01*
X10228Y-14750D01*
X10200Y-14797D01*
X10200Y-14845D01*
X10228Y-14916D01*
X10571Y-15202D01*
X10200Y-15202D01*
X13528Y-20178D02*
X13442Y-20202D01*
X13300Y-20202D01*
X13242Y-20178D01*
X13214Y-20154D01*
X13185Y-20107D01*
X13185Y-20059D01*
X13214Y-20011D01*
X13242Y-19988D01*
X13300Y-19964D01*
X13414Y-19940D01*
X13471Y-19916D01*
X13500Y-19892D01*
X13528Y-19845D01*
X13528Y-19797D01*
X13500Y-19750D01*
X13471Y-19726D01*
X13414Y-19702D01*
X13271Y-19702D01*
X13185Y-19726D01*
X12985Y-19702D02*
X12842Y-20202D01*
X12728Y-19845D01*
X12614Y-20202D01*
X12471Y-19702D01*
X12242Y-20202D02*
X12242Y-19702D01*
X12042Y-19702D02*
X11700Y-19702D01*
X11871Y-20202D02*
X11871Y-19702D01*
X11157Y-20154D02*
X11185Y-20178D01*
X11271Y-20202D01*
X11328Y-20202D01*
X11414Y-20178D01*
X11471Y-20130D01*
X11500Y-20083D01*
X11528Y-19988D01*
X11528Y-19916D01*
X11500Y-19821D01*
X11471Y-19773D01*
X11414Y-19726D01*
X11328Y-19702D01*
X11271Y-19702D01*
X11185Y-19726D01*
X11157Y-19750D01*
X10900Y-20202D02*
X10900Y-19702D01*
X10900Y-19940D02*
X10557Y-19940D01*
X10557Y-20202D02*
X10557Y-19702D01*
X10414Y-20250D02*
X9957Y-20250D01*
X9871Y-19702D02*
X9471Y-20202D01*
X9471Y-19702D02*
X9871Y-20202D01*
X9385Y-20250D02*
X8928Y-20250D01*
X8528Y-19869D02*
X8528Y-20202D01*
X8671Y-19678D02*
X8814Y-20035D01*
X8442Y-20035D01*
X23300Y-15178D02*
X23214Y-15202D01*
X23071Y-15202D01*
X23014Y-15178D01*
X22985Y-15154D01*
X22957Y-15107D01*
X22957Y-15059D01*
X22985Y-15011D01*
X23014Y-14988D01*
X23071Y-14964D01*
X23185Y-14940D01*
X23242Y-14916D01*
X23271Y-14892D01*
X23300Y-14845D01*
X23300Y-14797D01*
X23271Y-14750D01*
X23242Y-14726D01*
X23185Y-14702D01*
X23042Y-14702D01*
X22957Y-14726D01*
X22757Y-14702D02*
X22614Y-15202D01*
X22500Y-14845D01*
X22385Y-15202D01*
X22242Y-14702D01*
X21700Y-15202D02*
X22042Y-15202D01*
X21871Y-15202D02*
X21871Y-14702D01*
X21928Y-14773D01*
X21985Y-14821D01*
X22042Y-14845D01*
X25028Y-20178D02*
X24942Y-20202D01*
X24800Y-20202D01*
X24742Y-20178D01*
X24714Y-20154D01*
X24685Y-20107D01*
X24685Y-20059D01*
X24714Y-20011D01*
X24742Y-19988D01*
X24800Y-19964D01*
X24914Y-19940D01*
X24971Y-19916D01*
X25000Y-19892D01*
X25028Y-19845D01*
X25028Y-19797D01*
X25000Y-19750D01*
X24971Y-19726D01*
X24914Y-19702D01*
X24771Y-19702D01*
X24685Y-19726D01*
X24485Y-19702D02*
X24342Y-20202D01*
X24228Y-19845D01*
X24114Y-20202D01*
X23971Y-19702D01*
X23742Y-20202D02*
X23742Y-19702D01*
X23542Y-19702D02*
X23200Y-19702D01*
X23371Y-20202D02*
X23371Y-19702D01*
X22657Y-20154D02*
X22685Y-20178D01*
X22771Y-20202D01*
X22828Y-20202D01*
X22914Y-20178D01*
X22971Y-20130D01*
X23000Y-20083D01*
X23028Y-19988D01*
X23028Y-19916D01*
X23000Y-19821D01*
X22971Y-19773D01*
X22914Y-19726D01*
X22828Y-19702D01*
X22771Y-19702D01*
X22685Y-19726D01*
X22657Y-19750D01*
X22400Y-20202D02*
X22400Y-19702D01*
X22400Y-19940D02*
X22057Y-19940D01*
X22057Y-20202D02*
X22057Y-19702D01*
X21914Y-20250D02*
X21457Y-20250D01*
X21371Y-19702D02*
X20971Y-20202D01*
X20971Y-19702D02*
X21371Y-20202D01*
X20885Y-20250D02*
X20428Y-20250D01*
X20028Y-19869D02*
X20028Y-20202D01*
X20171Y-19678D02*
X20314Y-20035D01*
X19942Y-20035D01*
M02*
