<?xml version="1.0" standalone="no"?>
 <!DOCTYPE svg PUBLIC "-//W3C//DTD SVG 1.1//EN" 
 "http://www.w3.org/Graphics/SVG/1.1/DTD/svg11.dtd"> 
<svg xmlns="http://www.w3.org/2000/svg" version="1.1" 
    width="29.7002cm" height="21.0007cm" viewBox="0 0 116930 82680 ">
<title>SVG Picture created as PCF8574T-Dessous_Cu.svg date 2014/03/10 20:26:53 </title>
  <desc>Picture generated by PCBNEW </desc>
<g style="fill:#000000; fill-opacity:1;stroke:#000000; stroke-opacity:1;
stroke-linecap:round; stroke-linejoin:round; "
 transform="translate(0 0) scale(1 1)">
</g>
<g style="fill:#000000; fill-opacity:0.0; 
stroke:#000000; stroke-width:118.11; stroke-opacity:1; 
stroke-linecap:round; stroke-linejoin:round;">
<path d="M105583 19812
L105583 19531
L105301 19503
L105329 19531
L105358 19587
L105358 19728
L105329 19784
L105301 19812
L105245 19840
L105104 19840
L105048 19812
L105020 19784
L104992 19728
L104992 19587
L105020 19531
L105048 19503
" />
<path d="M104992 20122
L104992 20234
L105020 20290
L105048 20318
L105133 20375
L105245 20403
L105470 20403
L105526 20375
L105554 20347
L105583 20290
L105583 20178
L105554 20122
L105526 20093
L105470 20065
L105329 20065
L105273 20093
L105245 20122
L105217 20178
L105217 20290
L105245 20347
L105273 20375
L105329 20403
" />
<path d="M105020 20684
L104992 20684
L104936 20656
L104908 20628
" />
<path d="M105583 21190
L105583 21078
L105554 21021
L105526 20993
L105442 20937
L105329 20909
L105104 20909
L105048 20937
L105020 20965
L104992 21021
L104992 21134
L105020 21190
L105048 21218
L105104 21246
L105245 21246
L105301 21218
L105329 21190
L105358 21134
L105358 21021
L105329 20965
L105301 20937
L105245 20909
" />
<path d="M104992 21528
L104992 21640
L105020 21696
L105048 21725
L105133 21781
L105245 21809
L105470 21809
L105526 21781
L105554 21753
L105583 21696
L105583 21584
L105554 21528
L105526 21500
L105470 21471
L105329 21471
L105273 21500
L105245 21528
L105217 21584
L105217 21696
L105245 21753
L105273 21781
L105329 21809
" />
<path d="M105583 22174
L105583 22231
L105554 22287
L105526 22315
L105470 22343
L105358 22371
L105217 22371
L105104 22343
L105048 22315
L105020 22287
L104992 22231
L104992 22174
L105020 22118
L105048 22090
L105104 22062
L105217 22034
L105358 22034
L105470 22062
L105526 22090
L105554 22118
L105583 22174
" />
<path d="M104992 23074
L105386 23074
" />
<path d="M105329 23074
L105358 23102
L105386 23159
L105386 23243
L105358 23299
L105301 23327
L104992 23327
" />
<path d="M105301 23327
L105358 23356
L105386 23412
L105386 23496
L105358 23552
L105301 23581
L104992 23581
" />
<path d="M104992 23862
L105386 23862
" />
<path d="M105329 23862
L105358 23890
L105386 23946
L105386 24030
L105358 24087
L105301 24115
L104992 24115
" />
<path d="M105301 24115
L105358 24143
L105386 24199
L105386 24284
L105358 24340
L105301 24368
L104992 24368
" />
<path d="M104699 33699
L104699 10199
" />
<path d="M83700 33700
L105762 33699
" />
<path d="M83700 10200
L105762 10199
" />
<path d="M104699 10199
L104469 10643
" />
<path d="M104699 10199
L104930 10643
" />
<path d="M104699 33699
L104469 33256
" />
<path d="M104699 33699
L104930 33256
" />
<path d="M91659 36576
L91659 36970
" />
<path d="M91519 36351
L91378 36773
L91744 36773
" />
<path d="M92053 36633
L91997 36604
L91968 36576
L91940 36520
L91940 36492
L91968 36436
L91997 36408
L92053 36379
L92165 36379
L92222 36408
L92250 36436
L92278 36492
L92278 36520
L92250 36576
L92222 36604
L92165 36633
L92053 36633
L91997 36661
L91968 36689
L91940 36745
L91940 36858
L91968 36914
L91997 36942
L92053 36970
L92165 36970
L92222 36942
L92250 36914
L92278 36858
L92278 36745
L92250 36689
L92222 36661
L92165 36633
" />
<path d="M92559 36942
L92559 36970
L92531 37026
L92503 37054
" />
<path d="M92896 36633
L92840 36604
L92812 36576
L92784 36520
L92784 36492
L92812 36436
L92840 36408
L92896 36379
L93009 36379
L93065 36408
L93093 36436
L93121 36492
L93121 36520
L93093 36576
L93065 36604
L93009 36633
L92896 36633
L92840 36661
L92812 36689
L92784 36745
L92784 36858
L92812 36914
L92840 36942
L92896 36970
L93009 36970
L93065 36942
L93093 36914
L93121 36858
L93121 36745
L93093 36689
L93065 36661
L93009 36633
" />
<path d="M93403 36970
L93515 36970
L93571 36942
L93600 36914
L93656 36829
L93684 36717
L93684 36492
L93656 36436
L93628 36408
L93571 36379
L93459 36379
L93403 36408
L93375 36436
L93346 36492
L93346 36633
L93375 36689
L93403 36717
L93459 36745
L93571 36745
L93628 36717
L93656 36689
L93684 36633
" />
<path d="M94218 36379
L93937 36379
L93909 36661
L93937 36633
L93993 36604
L94134 36604
L94190 36633
L94218 36661
L94246 36717
L94246 36858
L94218 36914
L94190 36942
L94134 36970
L93993 36970
L93937 36942
L93909 36914
" />
<path d="M94949 36970
L94949 36576
" />
<path d="M94949 36633
L94977 36604
L95034 36576
L95118 36576
L95174 36604
L95202 36661
L95202 36970
" />
<path d="M95202 36661
L95231 36604
L95287 36576
L95371 36576
L95427 36604
L95456 36661
L95456 36970
" />
<path d="M95737 36970
L95737 36576
" />
<path d="M95737 36633
L95765 36604
L95821 36576
L95905 36576
L95962 36604
L95990 36661
L95990 36970
" />
<path d="M95990 36661
L96018 36604
L96074 36576
L96159 36576
L96215 36604
L96243 36661
L96243 36970
" />
<path d="M84200 36199
L103450 36199
" />
<path d="M84200 8200
L84200 37262
" />
<path d="M103450 8200
L103450 37262
" />
<path d="M103450 36199
L103006 35969
" />
<path d="M103450 36199
L103006 36430
" />
<path d="M84200 36199
L84643 35969
" />
<path d="M84200 36199
L84643 36430
" />
<path d="M94526 14689
L94526 14098
" />
<path d="M94273 14154
L94245 14126
L94189 14098
L94048 14098
L93992 14126
L93964 14154
L93935 14210
L93935 14267
L93964 14351
L94301 14689
L93935 14689
" />
<path d="M93345 14632
L93373 14660
L93457 14689
L93514 14689
L93598 14660
L93654 14604
L93682 14548
L93710 14435
L93710 14351
L93682 14239
L93654 14182
L93598 14126
L93514 14098
L93457 14098
L93373 14126
L93345 14154
" />
<path d="M85020 14872
L85020 15153
" />
<path d="M85189 14815
L84598 15012
L85189 15209
" />
<path d="M85189 15406
L84598 15406
L84598 15547
L84626 15631
L84682 15687
L84739 15715
L84851 15743
L84935 15743
L85048 15715
L85104 15687
L85160 15631
L85189 15547
L85189 15406
" />
<path d="M85189 16334
L84907 16137
" />
<path d="M85189 15996
L84598 15996
L84598 16221
L84626 16278
L84654 16306
L84710 16334
L84795 16334
L84851 16306
L84879 16278
L84907 16221
L84907 15996
" />
<path d="M84879 16587
L84879 16784
" />
<path d="M85189 16868
L85189 16587
L84598 16587
L84598 16868
" />
<path d="M85160 17093
L85189 17178
L85189 17318
L85160 17374
L85132 17403
L85076 17431
L85020 17431
L84964 17403
L84935 17374
L84907 17318
L84879 17206
L84851 17149
L84823 17121
L84767 17093
L84710 17093
L84654 17121
L84626 17149
L84598 17206
L84598 17346
L84626 17431
" />
<path d="M85160 17656
L85189 17740
L85189 17881
L85160 17937
L85132 17965
L85076 17993
L85020 17993
L84964 17965
L84935 17937
L84907 17881
L84879 17768
L84851 17712
L84823 17684
L84767 17656
L84710 17656
L84654 17684
L84626 17712
L84598 17768
L84598 17909
L84626 17993
" />
<path d="M84879 18246
L84879 18443
" />
<path d="M85189 18527
L85189 18246
L84598 18246
L84598 18527
" />
<path d="M102770 15122
L102770 15403
" />
<path d="M102939 15065
L102348 15262
L102939 15459
" />
<path d="M102939 15656
L102348 15656
L102348 15797
L102376 15881
L102432 15937
L102489 15965
L102601 15993
L102685 15993
L102798 15965
L102854 15937
L102910 15881
L102939 15797
L102939 15656
" />
<path d="M102939 16584
L102657 16387
" />
<path d="M102939 16246
L102348 16246
L102348 16471
L102376 16528
L102404 16556
L102460 16584
L102545 16584
L102601 16556
L102629 16528
L102657 16471
L102657 16246
" />
<path d="M102629 16837
L102629 17034
" />
<path d="M102939 17118
L102939 16837
L102348 16837
L102348 17118
" />
<path d="M102910 17343
L102939 17428
L102939 17568
L102910 17624
L102882 17653
L102826 17681
L102770 17681
L102714 17653
L102685 17624
L102657 17568
L102629 17456
L102601 17399
L102573 17371
L102517 17343
L102460 17343
L102404 17371
L102376 17399
L102348 17456
L102348 17596
L102376 17681
" />
<path d="M102910 17906
L102939 17990
L102939 18131
L102910 18187
L102882 18215
L102826 18243
L102770 18243
L102714 18215
L102685 18187
L102657 18131
L102629 18018
L102601 17962
L102573 17934
L102517 17906
L102460 17906
L102404 17934
L102376 17962
L102348 18018
L102348 18159
L102376 18243
" />
<path d="M102629 18496
L102629 18693
" />
<path d="M102939 18777
L102939 18496
L102348 18496
L102348 18777
" />
<path d="M95459 18714
L95009 18714
" />
<path d="M95234 18939
L95234 18489
" />
<path d="M94446 18348
L94728 18348
L94756 18629
L94728 18601
L94671 18573
L94531 18573
L94475 18601
L94446 18629
L94418 18685
L94418 18826
L94446 18882
L94475 18910
L94531 18939
L94671 18939
L94728 18910
L94756 18882
" />
<path d="M94250 18348
L94053 18939
L93856 18348
" />
<path d="M85129 24056
L85129 23859
" />
<path d="M85439 23859
L84848 23859
L84848 24140
" />
<path d="M85045 24619
L85439 24619
" />
<path d="M84820 24478
L85242 24337
L85242 24703
" />
<path d="M85439 24928
L84848 24928
L84848 25068
L84876 25153
L84932 25209
L84989 25237
L85101 25265
L85185 25265
L85298 25237
L85354 25209
L85410 25153
L85439 25068
L85439 24928
" />
<path d="M85129 25518
L85129 25715
" />
<path d="M85439 25800
L85439 25518
L84848 25518
L84848 25800
" />
<path d="M85129 26250
L85157 26334
L85185 26362
L85242 26390
L85326 26390
L85382 26362
L85410 26334
L85439 26278
L85439 26053
L84848 26053
L84848 26250
L84876 26306
L84904 26334
L84960 26362
L85017 26362
L85073 26334
L85101 26306
L85129 26250
L85129 26053
" />
<path d="M84848 27262
L85270 27262
L85354 27234
L85410 27178
L85439 27093
L85439 27037
" />
<path d="M85439 27543
L84848 27543
" />
<path d="M85439 27881
L85101 27628
" />
<path d="M84848 27881
L85185 27543
" />
<path d="M84848 28077
L84848 28443
L85073 28246
L85073 28331
L85101 28387
L85129 28415
L85185 28443
L85326 28443
L85382 28415
L85410 28387
L85439 28331
L85439 28162
L85410 28106
L85382 28077
" />
<path d="M84848 28640
L84848 29005
L85073 28809
L85073 28893
L85101 28949
L85129 28977
L85185 29005
L85326 29005
L85382 28977
L85410 28949
L85439 28893
L85439 28724
L85410 28668
L85382 28640
" />
<path d="M84848 29371
L84848 29427
L84876 29484
L84904 29512
L84960 29540
L85073 29568
L85214 29568
L85326 29540
L85382 29512
L85410 29484
L85439 29427
L85439 29371
L85410 29315
L85382 29287
L85326 29259
L85214 29230
L85073 29230
L84960 29259
L84904 29287
L84876 29315
L84848 29371
" />
<path d="M86689 24397
L86098 24397
L86098 24622
L86126 24678
L86154 24706
L86210 24734
L86295 24734
L86351 24706
L86379 24678
L86407 24622
L86407 24397
" />
<path d="M86632 25325
L86660 25297
L86689 25212
L86689 25156
L86660 25072
L86604 25015
L86548 24987
L86435 24959
L86351 24959
L86239 24987
L86182 25015
L86126 25072
L86098 25156
L86098 25212
L86126 25297
L86154 25325
" />
<path d="M86379 25775
L86379 25578
" />
<path d="M86689 25578
L86098 25578
L86098 25859
" />
<path d="M86351 26168
L86323 26112
L86295 26084
L86239 26056
L86210 26056
L86154 26084
L86126 26112
L86098 26168
L86098 26281
L86126 26337
L86154 26365
L86210 26393
L86239 26393
L86295 26365
L86323 26337
L86351 26281
L86351 26168
L86379 26112
L86407 26084
L86464 26056
L86576 26056
L86632 26084
L86660 26112
L86689 26168
L86689 26281
L86660 26337
L86632 26365
L86576 26393
L86464 26393
L86407 26365
L86379 26337
L86351 26281
" />
<path d="M86098 26928
L86098 26646
L86379 26618
L86351 26646
L86323 26703
L86323 26843
L86351 26899
L86379 26928
L86435 26956
L86576 26956
L86632 26928
L86660 26899
L86689 26843
L86689 26703
L86660 26646
L86632 26618
" />
<path d="M86098 27153
L86098 27546
L86689 27293
" />
<path d="M86295 28024
L86689 28024
" />
<path d="M86070 27884
L86492 27743
L86492 28109
" />
<path d="M86098 28249
L86098 28587
" />
<path d="M86689 28418
L86098 28418
" />
<path d="M91606 11348
L91409 11939
L91212 11348
" />
<path d="M90706 11939
L91043 11939
" />
<path d="M90874 11939
L90874 11348
L90931 11432
L90987 11489
L91043 11517
" />
<path d="M90453 11714
L90003 11714
" />
<path d="M89609 11348
L89553 11348
L89496 11376
L89468 11404
L89440 11460
L89412 11573
L89412 11714
L89440 11826
L89468 11882
L89496 11910
L89553 11939
L89609 11939
L89665 11910
L89693 11882
L89721 11826
L89750 11714
L89750 11573
L89721 11460
L89693 11404
L89665 11376
L89609 11348
" />
<path d="M89047 11348
L88990 11348
L88934 11376
L88906 11404
L88878 11460
L88850 11573
L88850 11714
L88878 11826
L88906 11882
L88934 11910
L88990 11939
L89047 11939
L89103 11910
L89131 11882
L89159 11826
L89187 11714
L89187 11573
L89159 11460
L89131 11404
L89103 11376
L89047 11348
" />
<path d="M91499 10348
L91443 10348
L91387 10376
L91359 10404
L91331 10460
L91302 10573
L91302 10714
L91331 10826
L91359 10882
L91387 10910
L91443 10939
L91499 10939
L91556 10910
L91584 10882
L91612 10826
L91640 10714
L91640 10573
L91612 10460
L91584 10404
L91556 10376
L91499 10348
" />
<path d="M91077 10404
L91049 10376
L90993 10348
L90852 10348
L90796 10376
L90768 10404
L90740 10460
L90740 10517
L90768 10601
L91106 10939
L90740 10939
" />
<path d="M90487 10714
L90037 10714
" />
<path d="M89784 10404
L89756 10376
L89699 10348
L89559 10348
L89503 10376
L89475 10404
L89446 10460
L89446 10517
L89475 10601
L89812 10939
L89446 10939
" />
<path d="M89081 10348
L89025 10348
L88968 10376
L88940 10404
L88912 10460
L88884 10573
L88884 10714
L88912 10826
L88940 10882
L88968 10910
L89025 10939
L89081 10939
L89137 10910
L89165 10882
L89193 10826
L89221 10714
L89221 10573
L89193 10460
L89165 10404
L89137 10376
L89081 10348
" />
<path d="M88322 10939
L88659 10939
" />
<path d="M88490 10939
L88490 10348
L88547 10432
L88603 10489
L88659 10517
" />
<path d="M87815 10545
L87815 10939
" />
<path d="M87956 10320
L88097 10742
L87731 10742
" />
<path d="M92059 44413
L92059 44807
" />
<path d="M91919 44188
L91778 44610
L92144 44610
" />
<path d="M92453 44470
L92397 44441
L92368 44413
L92340 44357
L92340 44329
L92368 44273
L92397 44245
L92453 44216
L92565 44216
L92622 44245
L92650 44273
L92678 44329
L92678 44357
L92650 44413
L92622 44441
L92565 44470
L92453 44470
L92397 44498
L92368 44526
L92340 44582
L92340 44695
L92368 44751
L92397 44779
L92453 44807
L92565 44807
L92622 44779
L92650 44751
L92678 44695
L92678 44582
L92650 44526
L92622 44498
L92565 44470
" />
<path d="M92959 44779
L92959 44807
L92931 44863
L92903 44891
" />
<path d="M93296 44470
L93240 44441
L93212 44413
L93184 44357
L93184 44329
L93212 44273
L93240 44245
L93296 44216
L93409 44216
L93465 44245
L93493 44273
L93521 44329
L93521 44357
L93493 44413
L93465 44441
L93409 44470
L93296 44470
L93240 44498
L93212 44526
L93184 44582
L93184 44695
L93212 44751
L93240 44779
L93296 44807
L93409 44807
L93465 44779
L93493 44751
L93521 44695
L93521 44582
L93493 44526
L93465 44498
L93409 44470
" />
<path d="M93803 44807
L93915 44807
L93971 44779
L94000 44751
L94056 44666
L94084 44554
L94084 44329
L94056 44273
L94028 44245
L93971 44216
L93859 44216
L93803 44245
L93775 44273
L93746 44329
L93746 44470
L93775 44526
L93803 44554
L93859 44582
L93971 44582
L94028 44554
L94056 44526
L94084 44470
" />
<path d="M94618 44216
L94337 44216
L94309 44498
L94337 44470
L94393 44441
L94534 44441
L94590 44470
L94618 44498
L94646 44554
L94646 44695
L94618 44751
L94590 44779
L94534 44807
L94393 44807
L94337 44779
L94309 44751
" />
<path d="M95349 44807
L95349 44413
" />
<path d="M95349 44470
L95377 44441
L95434 44413
L95518 44413
L95574 44441
L95602 44498
L95602 44807
" />
<path d="M95602 44498
L95631 44441
L95687 44413
L95771 44413
L95827 44441
L95856 44498
L95856 44807
" />
<path d="M96137 44807
L96137 44413
" />
<path d="M96137 44470
L96165 44441
L96221 44413
L96305 44413
L96362 44441
L96390 44498
L96390 44807
" />
<path d="M96390 44498
L96418 44441
L96474 44413
L96559 44413
L96615 44441
L96643 44498
L96643 44807
" />
<path d="M84600 45100
L103850 45100
" />
<path d="M84600 73100
L84600 44037
" />
<path d="M103850 73100
L103850 44037
" />
<path d="M103850 45100
L103406 45330
" />
<path d="M103850 45100
L103406 44869
" />
<path d="M84600 45100
L85043 45330
" />
<path d="M84600 45100
L85043 44869
" />
<path d="M105983 57212
L105983 56931
L105701 56903
L105729 56931
L105758 56987
L105758 57128
L105729 57184
L105701 57212
L105645 57240
L105504 57240
L105448 57212
L105420 57184
L105392 57128
L105392 56987
L105420 56931
L105448 56903
" />
<path d="M105392 57522
L105392 57634
L105420 57690
L105448 57718
L105533 57775
L105645 57803
L105870 57803
L105926 57775
L105954 57747
L105983 57690
L105983 57578
L105954 57522
L105926 57493
L105870 57465
L105729 57465
L105673 57493
L105645 57522
L105617 57578
L105617 57690
L105645 57747
L105673 57775
L105729 57803
" />
<path d="M105420 58084
L105392 58084
L105336 58056
L105308 58028
" />
<path d="M105983 58590
L105983 58478
L105954 58421
L105926 58393
L105842 58337
L105729 58309
L105504 58309
L105448 58337
L105420 58365
L105392 58421
L105392 58534
L105420 58590
L105448 58618
L105504 58646
L105645 58646
L105701 58618
L105729 58590
L105758 58534
L105758 58421
L105729 58365
L105701 58337
L105645 58309
" />
<path d="M105392 58928
L105392 59040
L105420 59096
L105448 59125
L105533 59181
L105645 59209
L105870 59209
L105926 59181
L105954 59153
L105983 59096
L105983 58984
L105954 58928
L105926 58900
L105870 58871
L105729 58871
L105673 58900
L105645 58928
L105617 58984
L105617 59096
L105645 59153
L105673 59181
L105729 59209
" />
<path d="M105983 59574
L105983 59631
L105954 59687
L105926 59715
L105870 59743
L105758 59771
L105617 59771
L105504 59743
L105448 59715
L105420 59687
L105392 59631
L105392 59574
L105420 59518
L105448 59490
L105504 59462
L105617 59434
L105758 59434
L105870 59462
L105926 59490
L105954 59518
L105983 59574
" />
<path d="M105392 60474
L105786 60474
" />
<path d="M105729 60474
L105758 60502
L105786 60559
L105786 60643
L105758 60699
L105701 60727
L105392 60727
" />
<path d="M105701 60727
L105758 60756
L105786 60812
L105786 60896
L105758 60952
L105701 60981
L105392 60981
" />
<path d="M105392 61262
L105786 61262
" />
<path d="M105729 61262
L105758 61290
L105786 61346
L105786 61430
L105758 61487
L105701 61515
L105392 61515
" />
<path d="M105701 61515
L105758 61543
L105786 61599
L105786 61684
L105758 61740
L105701 61768
L105392 61768
" />
<path d="M105099 47600
L105099 71100
" />
<path d="M84100 47600
L106162 47600
" />
<path d="M84100 71100
L106162 71100
" />
<path d="M105099 71100
L104869 70656
" />
<path d="M105099 71100
L105330 70656
" />
<path d="M105099 47600
L104869 48043
" />
<path d="M105099 47600
L105330 48043
" />
</g>
<g style="fill:#000000; fill-opacity:0.0; 
stroke:#000000; stroke-width:39.3701; stroke-opacity:1; 
stroke-linecap:round; stroke-linejoin:round;">
</g>
<g style="fill:#000000; fill-opacity:1.0; 
stroke:#000000; stroke-width:39.3701; stroke-opacity:1; 
stroke-linecap:round; stroke-linejoin:round;">
<polyline style="fill-rule:evenodd;"
points="97919,15520
97919,14379
98480,14379
98480,15520
97919,15520
" /> 
<polyline style="fill-rule:evenodd;"
points="98919,15520
98919,14379
99480,14379
99480,15520
98919,15520
" /> 
<polyline style="fill-rule:evenodd;"
points="99919,15520
99919,14379
100480,14379
100480,15520
99919,15520
" /> 
<polyline style="fill-rule:evenodd;"
points="100919,15520
100919,14379
101480,14379
101480,15520
100919,15520
" /> 
<polyline style="fill-rule:evenodd;"
points="100919,19020
100919,17879
101480,17879
101480,19020
100919,19020
" /> 
<polyline style="fill-rule:evenodd;"
points="99919,19020
99919,17879
100480,17879
100480,19020
99919,19020
" /> 
<polyline style="fill-rule:evenodd;"
points="98919,19020
98919,17879
99480,17879
99480,19020
98919,19020
" /> 
<polyline style="fill-rule:evenodd;"
points="97919,19020
97919,17879
98480,17879
98480,19020
97919,19020
" /> 
<polyline style="fill-rule:evenodd;"
points="86419,15520
86419,14379
86980,14379
86980,15520
86419,15520
" /> 
<polyline style="fill-rule:evenodd;"
points="87419,15520
87419,14379
87980,14379
87980,15520
87419,15520
" /> 
<polyline style="fill-rule:evenodd;"
points="88419,15520
88419,14379
88980,14379
88980,15520
88419,15520
" /> 
<polyline style="fill-rule:evenodd;"
points="89419,15520
89419,14379
89980,14379
89980,15520
89419,15520
" /> 
<polyline style="fill-rule:evenodd;"
points="89419,19020
89419,17879
89980,17879
89980,19020
89419,19020
" /> 
<polyline style="fill-rule:evenodd;"
points="88419,19020
88419,17879
88980,17879
88980,19020
88419,19020
" /> 
<polyline style="fill-rule:evenodd;"
points="87419,19020
87419,17879
87980,17879
87980,19020
87419,19020
" /> 
<polyline style="fill-rule:evenodd;"
points="86419,19020
86419,17879
86980,17879
86980,19020
86419,19020
" /> 
<polyline style="fill-rule:evenodd;"
points="89615,31554
89615,30845
90284,30845
90284,31554
89615,31554
" /> 
<circle cx="89950" cy="32200" r="354.331" /> 
</g>
<g style="fill:#000000; fill-opacity:1.0; 
stroke:#000000; stroke-width:708.661; stroke-opacity:1; 
stroke-linecap:round; stroke-linejoin:round;">
<path d="M90950 31180
L90950 31219
" />
</g>
<g style="fill:#000000; fill-opacity:1.0; 
stroke:#000000; stroke-width:39.3701; stroke-opacity:1; 
stroke-linecap:round; stroke-linejoin:round;">
<circle cx="90950" cy="32200" r="354.331" /> 
</g>
<g style="fill:#000000; fill-opacity:1.0; 
stroke:#000000; stroke-width:708.661; stroke-opacity:1; 
stroke-linecap:round; stroke-linejoin:round;">
<path d="M91950 31180
L91950 31219
" />
</g>
<g style="fill:#000000; fill-opacity:1.0; 
stroke:#000000; stroke-width:39.3701; stroke-opacity:1; 
stroke-linecap:round; stroke-linejoin:round;">
<circle cx="91950" cy="32200" r="354.331" /> 
</g>
<g style="fill:#000000; fill-opacity:1.0; 
stroke:#000000; stroke-width:708.661; stroke-opacity:1; 
stroke-linecap:round; stroke-linejoin:round;">
<path d="M92950 31180
L92950 31219
" />
</g>
<g style="fill:#000000; fill-opacity:1.0; 
stroke:#000000; stroke-width:39.3701; stroke-opacity:1; 
stroke-linecap:round; stroke-linejoin:round;">
<circle cx="92950" cy="32200" r="354.331" /> 
</g>
<g style="fill:#000000; fill-opacity:1.0; 
stroke:#000000; stroke-width:708.661; stroke-opacity:1; 
stroke-linecap:round; stroke-linejoin:round;">
<path d="M93950 31180
L93950 31219
" />
</g>
<g style="fill:#000000; fill-opacity:1.0; 
stroke:#000000; stroke-width:39.3701; stroke-opacity:1; 
stroke-linecap:round; stroke-linejoin:round;">
<circle cx="93950" cy="32200" r="354.331" /> 
</g>
<g style="fill:#000000; fill-opacity:1.0; 
stroke:#000000; stroke-width:708.661; stroke-opacity:1; 
stroke-linecap:round; stroke-linejoin:round;">
<path d="M94950 31180
L94950 31219
" />
</g>
<g style="fill:#000000; fill-opacity:1.0; 
stroke:#000000; stroke-width:39.3701; stroke-opacity:1; 
stroke-linecap:round; stroke-linejoin:round;">
<circle cx="94950" cy="32200" r="354.331" /> 
</g>
<g style="fill:#000000; fill-opacity:1.0; 
stroke:#000000; stroke-width:708.661; stroke-opacity:1; 
stroke-linecap:round; stroke-linejoin:round;">
<path d="M95950 31180
L95950 31219
" />
</g>
<g style="fill:#000000; fill-opacity:1.0; 
stroke:#000000; stroke-width:39.3701; stroke-opacity:1; 
stroke-linecap:round; stroke-linejoin:round;">
<circle cx="95950" cy="32200" r="354.331" /> 
</g>
<g style="fill:#000000; fill-opacity:1.0; 
stroke:#000000; stroke-width:708.661; stroke-opacity:1; 
stroke-linecap:round; stroke-linejoin:round;">
<path d="M96950 31180
L96950 31219
" />
</g>
<g style="fill:#000000; fill-opacity:1.0; 
stroke:#000000; stroke-width:39.3701; stroke-opacity:1; 
stroke-linecap:round; stroke-linejoin:round;">
<circle cx="96950" cy="32200" r="354.331" /> 
<circle cx="86450" cy="12450" r="1751.81" /> 
<circle cx="100950" cy="12450" r="1751.81" /> 
<circle cx="86450" cy="31450" r="1751.81" /> 
<circle cx="101200" cy="31450" r="1751.81" /> 
<polyline style="fill-rule:evenodd;"
points="92823,11826
92823,12573
92076,12573
92076,11826
92823,11826
" /> 
<circle cx="93450" cy="12200" r="373.815" /> 
<circle cx="94450" cy="12200" r="373.815" /> 
<circle cx="95450" cy="12200" r="373.815" /> 
<polyline style="fill-rule:evenodd;"
points="92587,19132
92312,19132
92312,18857
92587,18857
92587,19132
" /> 
<polyline style="fill-rule:evenodd;"
points="92587,18542
92312,18542
92312,18267
92587,18267
92587,18542
" /> 
<polyline style="fill-rule:evenodd;"
points="96794,20655
96794,20244
97005,20244
97005,20655
96794,20655
" /> 
<polyline style="fill-rule:evenodd;"
points="97394,20655
97394,20244
97605,20244
97605,20655
97394,20655
" /> 
<polyline style="fill-rule:evenodd;"
points="86855,20494
86855,20905
86644,20905
86644,20494
86855,20494
" /> 
<polyline style="fill-rule:evenodd;"
points="86255,20494
86255,20905
86044,20905
86044,20494
86255,20494
" /> 
<polyline style="fill-rule:evenodd;"
points="93244,18294
93655,18294
93655,18505
93244,18505
93244,18294
" /> 
<polyline style="fill-rule:evenodd;"
points="93244,18894
93655,18894
93655,19105
93244,19105
93244,18894
" /> 
<polyline style="fill-rule:evenodd;"
points="92794,22655
92794,22244
93005,22244
93005,22655
92794,22655
" /> 
<polyline style="fill-rule:evenodd;"
points="93394,22655
93394,22244
93605,22244
93605,22655
93394,22655
" /> 
<polyline style="fill-rule:evenodd;"
points="92794,22155
92794,21744
93005,21744
93005,22155
92794,22155
" /> 
<polyline style="fill-rule:evenodd;"
points="93394,22155
93394,21744
93605,21744
93605,22155
93394,22155
" /> 
<polyline style="fill-rule:evenodd;"
points="92794,21655
92794,21244
93005,21244
93005,21655
92794,21655
" /> 
<polyline style="fill-rule:evenodd;"
points="93394,21655
93394,21244
93605,21244
93605,21655
93394,21655
" /> 
<polyline style="fill-rule:evenodd;"
points="102044,22655
102044,22244
102255,22244
102255,22655
102044,22655
" /> 
<polyline style="fill-rule:evenodd;"
points="102644,22655
102644,22244
102855,22244
102855,22655
102644,22655
" /> 
<polyline style="fill-rule:evenodd;"
points="102044,22155
102044,21744
102255,21744
102255,22155
102044,22155
" /> 
<polyline style="fill-rule:evenodd;"
points="102644,22155
102644,21744
102855,21744
102855,22155
102644,22155
" /> 
<polyline style="fill-rule:evenodd;"
points="102044,21655
102044,21244
102255,21244
102255,21655
102044,21655
" /> 
<polyline style="fill-rule:evenodd;"
points="102644,21655
102644,21244
102855,21244
102855,21655
102644,21655
" /> 
<polyline style="fill-rule:evenodd;"
points="91244,21369
91655,21369
91655,21530
91244,21530
91244,21369
" /> 
<polyline style="fill-rule:evenodd;"
points="91244,21869
91655,21869
91655,22030
91244,22030
91244,21869
" /> 
<polyline style="fill-rule:evenodd;"
points="91244,22369
91655,22369
91655,22530
91244,22530
91244,22369
" /> 
<polyline style="fill-rule:evenodd;"
points="91244,22869
91655,22869
91655,23030
91244,23030
91244,22869
" /> 
<polyline style="fill-rule:evenodd;"
points="91244,23369
91655,23369
91655,23530
91244,23530
91244,23369
" /> 
<polyline style="fill-rule:evenodd;"
points="91244,23869
91655,23869
91655,24030
91244,24030
91244,23869
" /> 
<polyline style="fill-rule:evenodd;"
points="91244,24369
91655,24369
91655,24530
91244,24530
91244,24369
" /> 
<polyline style="fill-rule:evenodd;"
points="91244,24869
91655,24869
91655,25030
91244,25030
91244,24869
" /> 
<polyline style="fill-rule:evenodd;"
points="87244,24869
87655,24869
87655,25030
87244,25030
87244,24869
" /> 
<polyline style="fill-rule:evenodd;"
points="87244,24369
87655,24369
87655,24530
87244,24530
87244,24369
" /> 
<polyline style="fill-rule:evenodd;"
points="87244,23869
87655,23869
87655,24030
87244,24030
87244,23869
" /> 
<polyline style="fill-rule:evenodd;"
points="87244,23369
87655,23369
87655,23530
87244,23530
87244,23369
" /> 
<polyline style="fill-rule:evenodd;"
points="87244,22869
87655,22869
87655,23030
87244,23030
87244,22869
" /> 
<polyline style="fill-rule:evenodd;"
points="87244,22369
87655,22369
87655,22530
87244,22530
87244,22369
" /> 
<polyline style="fill-rule:evenodd;"
points="87244,21869
87655,21869
87655,22030
87244,22030
87244,21869
" /> 
<polyline style="fill-rule:evenodd;"
points="87244,21369
87655,21369
87655,21530
87244,21530
87244,21369
" /> 
<polyline style="fill-rule:evenodd;"
points="100494,21369
100905,21369
100905,21530
100494,21530
100494,21369
" /> 
<polyline style="fill-rule:evenodd;"
points="100494,21869
100905,21869
100905,22030
100494,22030
100494,21869
" /> 
<polyline style="fill-rule:evenodd;"
points="100494,22369
100905,22369
100905,22530
100494,22530
100494,22369
" /> 
<polyline style="fill-rule:evenodd;"
points="100494,22869
100905,22869
100905,23030
100494,23030
100494,22869
" /> 
<polyline style="fill-rule:evenodd;"
points="100494,23369
100905,23369
100905,23530
100494,23530
100494,23369
" /> 
<polyline style="fill-rule:evenodd;"
points="100494,23869
100905,23869
100905,24030
100494,24030
100494,23869
" /> 
<polyline style="fill-rule:evenodd;"
points="100494,24369
100905,24369
100905,24530
100494,24530
100494,24369
" /> 
<polyline style="fill-rule:evenodd;"
points="100494,24869
100905,24869
100905,25030
100494,25030
100494,24869
" /> 
<polyline style="fill-rule:evenodd;"
points="96494,24869
96905,24869
96905,25030
96494,25030
96494,24869
" /> 
<polyline style="fill-rule:evenodd;"
points="96494,24369
96905,24369
96905,24530
96494,24530
96494,24369
" /> 
<polyline style="fill-rule:evenodd;"
points="96494,23869
96905,23869
96905,24030
96494,24030
96494,23869
" /> 
<polyline style="fill-rule:evenodd;"
points="96494,23369
96905,23369
96905,23530
96494,23530
96494,23369
" /> 
<polyline style="fill-rule:evenodd;"
points="96494,22869
96905,22869
96905,23030
96494,23030
96494,22869
" /> 
<polyline style="fill-rule:evenodd;"
points="96494,22369
96905,22369
96905,22530
96494,22530
96494,22369
" /> 
<polyline style="fill-rule:evenodd;"
points="96494,21869
96905,21869
96905,22030
96494,22030
96494,21869
" /> 
<polyline style="fill-rule:evenodd;"
points="96494,21369
96905,21369
96905,21530
96494,21530
96494,21369
" /> 
<polyline style="fill-rule:evenodd;"
points="93223,68726
93223,69473
92476,69473
92476,68726
93223,68726
" /> 
<circle cx="93850" cy="69100" r="373.815" /> 
<circle cx="94850" cy="69100" r="373.815" /> 
<circle cx="95850" cy="69100" r="373.815" /> 
<circle cx="101600" cy="49850" r="1751.81" /> 
<circle cx="86850" cy="49850" r="1751.81" /> 
<circle cx="101350" cy="68850" r="1751.81" /> 
<circle cx="86850" cy="68850" r="1751.81" /> 
<polyline style="fill-rule:evenodd;"
points="90015,50454
90015,49745
90684,49745
90684,50454
90015,50454
" /> 
<circle cx="90350" cy="49100" r="354.331" /> 
</g>
<g style="fill:#000000; fill-opacity:1.0; 
stroke:#000000; stroke-width:708.661; stroke-opacity:1; 
stroke-linecap:round; stroke-linejoin:round;">
<path d="M91350 50080
L91350 50119
" />
</g>
<g style="fill:#000000; fill-opacity:1.0; 
stroke:#000000; stroke-width:39.3701; stroke-opacity:1; 
stroke-linecap:round; stroke-linejoin:round;">
<circle cx="91350" cy="49100" r="354.331" /> 
</g>
<g style="fill:#000000; fill-opacity:1.0; 
stroke:#000000; stroke-width:708.661; stroke-opacity:1; 
stroke-linecap:round; stroke-linejoin:round;">
<path d="M92350 50080
L92350 50119
" />
</g>
<g style="fill:#000000; fill-opacity:1.0; 
stroke:#000000; stroke-width:39.3701; stroke-opacity:1; 
stroke-linecap:round; stroke-linejoin:round;">
<circle cx="92350" cy="49100" r="354.331" /> 
</g>
<g style="fill:#000000; fill-opacity:1.0; 
stroke:#000000; stroke-width:708.661; stroke-opacity:1; 
stroke-linecap:round; stroke-linejoin:round;">
<path d="M93350 50080
L93350 50119
" />
</g>
<g style="fill:#000000; fill-opacity:1.0; 
stroke:#000000; stroke-width:39.3701; stroke-opacity:1; 
stroke-linecap:round; stroke-linejoin:round;">
<circle cx="93350" cy="49100" r="354.331" /> 
</g>
<g style="fill:#000000; fill-opacity:1.0; 
stroke:#000000; stroke-width:708.661; stroke-opacity:1; 
stroke-linecap:round; stroke-linejoin:round;">
<path d="M94350 50080
L94350 50119
" />
</g>
<g style="fill:#000000; fill-opacity:1.0; 
stroke:#000000; stroke-width:39.3701; stroke-opacity:1; 
stroke-linecap:round; stroke-linejoin:round;">
<circle cx="94350" cy="49100" r="354.331" /> 
</g>
<g style="fill:#000000; fill-opacity:1.0; 
stroke:#000000; stroke-width:708.661; stroke-opacity:1; 
stroke-linecap:round; stroke-linejoin:round;">
<path d="M95350 50080
L95350 50119
" />
</g>
<g style="fill:#000000; fill-opacity:1.0; 
stroke:#000000; stroke-width:39.3701; stroke-opacity:1; 
stroke-linecap:round; stroke-linejoin:round;">
<circle cx="95350" cy="49100" r="354.331" /> 
</g>
<g style="fill:#000000; fill-opacity:1.0; 
stroke:#000000; stroke-width:708.661; stroke-opacity:1; 
stroke-linecap:round; stroke-linejoin:round;">
<path d="M96350 50080
L96350 50119
" />
</g>
<g style="fill:#000000; fill-opacity:1.0; 
stroke:#000000; stroke-width:39.3701; stroke-opacity:1; 
stroke-linecap:round; stroke-linejoin:round;">
<circle cx="96350" cy="49100" r="354.331" /> 
</g>
<g style="fill:#000000; fill-opacity:1.0; 
stroke:#000000; stroke-width:708.661; stroke-opacity:1; 
stroke-linecap:round; stroke-linejoin:round;">
<path d="M97350 50080
L97350 50119
" />
</g>
<g style="fill:#000000; fill-opacity:1.0; 
stroke:#000000; stroke-width:39.3701; stroke-opacity:1; 
stroke-linecap:round; stroke-linejoin:round;">
<circle cx="97350" cy="49100" r="354.331" /> 
<circle cx="93450" cy="17450" r="236.22" /> 
<circle cx="93450" cy="19700" r="236.22" /> 
<circle cx="85950" cy="21450" r="236.22" /> 
<circle cx="86350" cy="59850" r="236.22" /> 
<circle cx="93850" cy="61600" r="236.22" /> 
<circle cx="93850" cy="63850" r="236.22" /> 
<circle cx="98200" cy="20450" r="236.22" /> 
<circle cx="91450" cy="25950" r="236.22" /> 
<circle cx="85950" cy="23450" r="236.22" /> 
<circle cx="92450" cy="17450" r="236.22" /> 
<circle cx="92850" cy="63850" r="236.22" /> 
<circle cx="86350" cy="57850" r="236.22" /> 
<circle cx="91850" cy="55350" r="236.22" /> 
<circle cx="98600" cy="60850" r="236.22" /> 
<circle cx="96950" cy="27700" r="236.22" /> 
<circle cx="97350" cy="53600" r="236.22" /> 
<circle cx="95950" cy="27700" r="236.22" /> 
<circle cx="96350" cy="53600" r="236.22" /> 
<circle cx="99450" cy="25700" r="236.22" /> 
<circle cx="99850" cy="55600" r="236.22" /> 
<circle cx="91450" cy="30200" r="236.22" /> 
<circle cx="91850" cy="51100" r="236.22" /> 
<circle cx="92450" cy="29700" r="236.22" /> 
<circle cx="92850" cy="51600" r="236.22" /> 
<circle cx="94950" cy="28200" r="236.22" /> 
<circle cx="95350" cy="53100" r="236.22" /> 
<circle cx="93450" cy="29200" r="236.22" /> 
<circle cx="93850" cy="52100" r="236.22" /> 
<circle cx="94450" cy="25700" r="236.22" /> 
<circle cx="94850" cy="55600" r="236.22" /> 
<circle cx="95450" cy="25200" r="236.22" /> 
<circle cx="95850" cy="56100" r="236.22" /> 
<circle cx="97450" cy="26450" r="236.22" /> 
<circle cx="97850" cy="54850" r="236.22" /> 
<circle cx="98200" cy="27200" r="236.22" /> 
<circle cx="98600" cy="54100" r="236.22" /> 
<circle cx="89950" cy="26700" r="236.22" /> 
<circle cx="90350" cy="54600" r="236.22" /> 
<circle cx="90450" cy="26200" r="236.22" /> 
<circle cx="90850" cy="55100" r="236.22" /> 
<circle cx="92450" cy="23950" r="236.22" /> 
<circle cx="92850" cy="57350" r="236.22" /> 
<circle cx="92950" cy="24450" r="236.22" /> 
<circle cx="93350" cy="56850" r="236.22" /> 
<circle cx="93950" cy="28700" r="236.22" /> 
<circle cx="94350" cy="52600" r="236.22" /> 
<circle cx="85200" cy="21950" r="236.22" /> 
<circle cx="92950" cy="20450" r="236.22" /> 
<circle cx="95450" cy="20450" r="236.22" /> 
<circle cx="95850" cy="60850" r="236.22" /> 
<circle cx="93350" cy="60850" r="236.22" /> 
<circle cx="85600" cy="59350" r="236.22" /> 
<circle cx="85950" cy="22450" r="236.22" /> 
<circle cx="94450" cy="21200" r="236.22" /> 
<circle cx="94850" cy="60100" r="236.22" /> 
<circle cx="86350" cy="58850" r="236.22" /> 
</g>
<g style="fill:#000000; fill-opacity:1.0; 
stroke:#000000; stroke-width:196.85; stroke-opacity:1; 
stroke-linecap:round; stroke-linejoin:round;">
<path d="M86700 21450
L87450 21450
" />
<path d="M102750 21950
L102750 21450
" />
<path d="M102750 22450
L102750 21950
" />
<path d="M96700 20650
L96900 20450
" />
<path d="M96700 21450
L96700 20650
" />
<path d="M93450 17450
L93450 18400
" />
<path d="M96950 19700
L96950 19950
" />
<path d="M96950 19950
L96900 20000
" />
<path d="M96900 20000
L96900 20450
" />
<path d="M96950 19700
L93450 19700
" />
<path d="M85950 21450
L86700 21450
" />
<path d="M93500 21450
L93500 21950
" />
<path d="M93500 21950
L93500 22450
" />
<path d="M86750 21450
L86700 21450
" />
<path d="M86750 20700
L86750 21450
" />
<path d="M93500 21000
L93450 20950
" />
<path d="M93450 20950
L92200 20950
" />
<path d="M92200 20950
L91950 20700
" />
<path d="M91950 20700
L91950 19950
" />
<path d="M91950 19950
L92200 19700
" />
<path d="M92200 19700
L93450 19700
" />
<path d="M93500 21450
L93500 21000
" />
<path d="M96900 19300
L96900 20450
" />
<path d="M101950 19700
L101950 18000
" />
<path d="M102750 20500
L101950 19700
" />
<path d="M102750 21450
L102750 20500
" />
<path d="M101950 17350
L101700 17100
" />
<path d="M101700 17100
L97400 17100
" />
<path d="M97400 17100
L96900 17600
" />
<path d="M96900 17600
L96900 19300
" />
<path d="M101950 18000
L101950 17350
" />
<path d="M93850 69100
L93850 65600
" />
<path d="M93850 65600
L93850 63850
" />
<path d="M93850 61600
L93350 61600
" />
<path d="M93350 61600
L91600 59850
" />
<path d="M91600 59850
L86350 59850
" />
<path d="M93850 61600
L93850 63850
" />
<path d="M97500 22250
L98700 23450
" />
<path d="M98700 23450
L98700 25700
" />
<path d="M98700 25700
L98700 25950
" />
<path d="M98700 25950
L98950 26200
" />
<path d="M98950 26200
L100200 26200
" />
<path d="M100200 26200
L100450 26200
" />
<path d="M100450 26200
L100700 25950
" />
<path d="M100700 25950
L100700 24950
" />
<path d="M97500 20450
L97500 22250
" />
<path d="M92450 17450
L92450 18405
" />
<path d="M97500 20450
L98200 20450
" />
<path d="M86150 19400
L85700 18950
" />
<path d="M85700 18950
L85700 17700
" />
<path d="M85700 17700
L85950 17450
" />
<path d="M85950 17450
L92450 17450
" />
<path d="M86150 20700
L86150 19400
" />
<path d="M85950 23450
L85450 23450
" />
<path d="M85450 23450
L84700 22700
" />
<path d="M84700 22700
L84700 21200
" />
<path d="M84700 21200
L85200 20700
" />
<path d="M85200 20700
L86150 20700
" />
<path d="M91450 24950
L91450 25950
" />
<path d="M87700 14950
L88700 14950
" />
<path d="M88700 14950
L89700 14950
" />
<path d="M89950 14950
L92450 17450
" />
<path d="M89700 14950
L89950 14950
" />
<path d="M101200 14950
L100200 14950
" />
<path d="M100200 14950
L99200 14950
" />
<path d="M99200 16200
L99100 16300
" />
<path d="M99100 16300
L92900 16300
" />
<path d="M92900 16300
L92450 16750
" />
<path d="M92450 16750
L92450 17450
" />
<path d="M99200 14950
L99200 16200
" />
<path d="M92850 63850
L92850 66100
" />
<path d="M92850 66100
L92850 69100
" />
<path d="M97850 66850
L97850 69350
" />
<path d="M92850 69600
L92850 69100
" />
<path d="M93350 70100
L92850 69600
" />
<path d="M97100 70100
L93350 70100
" />
<path d="M97850 69350
L97100 70100
" />
<path d="M89350 57850
L86350 57850
" />
<path d="M91850 55350
L89350 57850
" />
<path d="M97850 61600
L97850 66850
" />
<path d="M98600 60850
L97850 61600
" />
<path d="M89450 21200
L88700 20450
" />
<path d="M90200 21950
L89450 21200
" />
<path d="M91450 21950
L90200 21950
" />
<path d="M91450 21950
L92900 21950
" />
<path d="M88700 20450
L89450 21200
" />
<path d="M88700 18450
L88700 20450
" />
<path d="M93445 18995
L93450 19000
" />
<path d="M92450 18995
L93445 18995
" />
<path d="M96950 27700
L96450 27200
" />
<path d="M96450 27200
L89700 27200
" />
<path d="M89700 27200
L89450 26950
" />
<path d="M89450 26950
L89450 24700
" />
<path d="M89450 24700
L88200 23450
" />
<path d="M88200 23450
L87450 23450
" />
<path d="M97350 50100
L97350 53600
" />
<path d="M89200 27700
L95950 27700
" />
<path d="M88950 27450
L89200 27700
" />
<path d="M88950 24700
L88950 27450
" />
<path d="M88200 23950
L88950 24700
" />
<path d="M87450 23950
L88200 23950
" />
<path d="M96350 53600
L96350 50100
" />
<path d="M99700 22950
L99450 23200
" />
<path d="M99450 23200
L99450 25700
" />
<path d="M100700 22950
L99700 22950
" />
<path d="M97600 48100
L98600 49100
" />
<path d="M98600 51850
L98600 49100
" />
<path d="M99850 53100
L98600 51850
" />
<path d="M96850 48100
L97600 48100
" />
<path d="M90350 49100
L90350 48350
" />
<path d="M90600 48100
L96850 48100
" />
<path d="M90350 48350
L90600 48100
" />
<path d="M99850 53100
L99850 55600
" />
<path d="M100700 23450
L101950 23450
" />
<path d="M101950 23450
L102700 24200
" />
<path d="M102700 24200
L102700 26100
" />
<path d="M96500 30200
L91450 30200
" />
<path d="M98600 30200
L100800 28000
" />
<path d="M100800 28000
L101500 28000
" />
<path d="M101500 28000
L102700 26800
" />
<path d="M102700 26800
L102700 26100
" />
<path d="M96500 30200
L98600 30200
" />
<path d="M91850 49600
L91350 49100
" />
</g>
<g style="fill:#000000; fill-opacity:1.0; 
stroke:#000000; stroke-width:137.795; stroke-opacity:1; 
stroke-linecap:round; stroke-linejoin:round;">
<path d="M91850 50850
L91850 49600
" />
</g>
<g style="fill:#000000; fill-opacity:1.0; 
stroke:#000000; stroke-width:196.85; stroke-opacity:1; 
stroke-linecap:round; stroke-linejoin:round;">
<path d="M91850 51100
L91850 50850
" />
<path d="M92450 29700
L96400 29700
" />
<path d="M102200 26400
L102200 24450
" />
<path d="M102200 24450
L101700 23950
" />
<path d="M101700 23950
L100700 23950
" />
<path d="M98200 29700
L100500 27400
" />
<path d="M100500 27400
L101200 27400
" />
<path d="M101200 27400
L102200 26400
" />
<path d="M96400 29700
L98200 29700
" />
<path d="M92850 50850
L92850 51600
" />
</g>
<g style="fill:#000000; fill-opacity:1.0; 
stroke:#000000; stroke-width:137.795; stroke-opacity:1; 
stroke-linecap:round; stroke-linejoin:round;">
<path d="M92850 50850
L92850 49600
" />
</g>
<g style="fill:#000000; fill-opacity:1.0; 
stroke:#000000; stroke-width:196.85; stroke-opacity:1; 
stroke-linecap:round; stroke-linejoin:round;">
<path d="M92350 49100
L92850 49600
" />
<path d="M88450 24700
L88200 24450
" />
<path d="M88200 24450
L87450 24450
" />
<path d="M88450 27950
L88450 24700
" />
<path d="M88700 28200
L88450 27950
" />
<path d="M94950 28200
L88700 28200
" />
<path d="M95350 50100
L95350 53100
" />
<path d="M95900 29200
L93450 29200
" />
<path d="M101700 24700
L101700 24900
" />
<path d="M101450 24450
L101700 24700
" />
<path d="M100700 24450
L101450 24450
" />
<path d="M97800 29200
L100100 26900
" />
<path d="M100100 26900
L100800 26900
" />
<path d="M100800 26900
L101700 26000
" />
<path d="M101700 26000
L101700 24900
" />
<path d="M95900 29200
L97800 29200
" />
<path d="M93850 49600
L93350 49100
" />
</g>
<g style="fill:#000000; fill-opacity:1.0; 
stroke:#000000; stroke-width:137.795; stroke-opacity:1; 
stroke-linecap:round; stroke-linejoin:round;">
<path d="M93850 50850
L93850 49600
" />
</g>
<g style="fill:#000000; fill-opacity:1.0; 
stroke:#000000; stroke-width:196.85; stroke-opacity:1; 
stroke-linecap:round; stroke-linejoin:round;">
<path d="M93850 52100
L93850 50850
" />
<path d="M94450 25700
L96450 25700
" />
<path d="M96450 25700
L96700 25450
" />
<path d="M96700 25450
L96700 24950
" />
<path d="M94850 53600
L94850 55600
" />
<path d="M94850 50850
L94850 53600
" />
</g>
<g style="fill:#000000; fill-opacity:1.0; 
stroke:#000000; stroke-width:137.795; stroke-opacity:1; 
stroke-linecap:round; stroke-linejoin:round;">
<path d="M94850 50850
L94850 49600
" />
</g>
<g style="fill:#000000; fill-opacity:1.0; 
stroke:#000000; stroke-width:196.85; stroke-opacity:1; 
stroke-linecap:round; stroke-linejoin:round;">
<path d="M94350 49100
L94850 49600
" />
<path d="M95450 25200
L96200 24450
" />
<path d="M96200 24450
L96700 24450
" />
<path d="M95850 54600
L95850 56100
" />
<path d="M95850 50850
L95850 54600
" />
</g>
<g style="fill:#000000; fill-opacity:1.0; 
stroke:#000000; stroke-width:137.795; stroke-opacity:1; 
stroke-linecap:round; stroke-linejoin:round;">
<path d="M95850 50850
L95850 49600
" />
</g>
<g style="fill:#000000; fill-opacity:1.0; 
stroke:#000000; stroke-width:196.85; stroke-opacity:1; 
stroke-linecap:round; stroke-linejoin:round;">
<path d="M95350 49100
L95850 49600
" />
<path d="M97450 23950
L97450 26450
" />
<path d="M96700 23950
L96950 23950
" />
<path d="M96950 23950
L97450 23950
" />
<path d="M97850 54850
L96850 53850
" />
<path d="M96850 53850
L96850 50850
" />
<path d="M96850 49600
L96350 49100
" />
</g>
<g style="fill:#000000; fill-opacity:1.0; 
stroke:#000000; stroke-width:137.795; stroke-opacity:1; 
stroke-linecap:round; stroke-linejoin:round;">
<path d="M96850 50850
L96850 49600
" />
</g>
<g style="fill:#000000; fill-opacity:1.0; 
stroke:#000000; stroke-width:196.85; stroke-opacity:1; 
stroke-linecap:round; stroke-linejoin:round;">
<path d="M98200 27200
L98200 24200
" />
<path d="M98200 23950
L98200 24200
" />
<path d="M96700 23450
L97450 23450
" />
<path d="M97700 23450
L98200 23950
" />
<path d="M97450 23450
L97700 23450
" />
<path d="M97850 53350
L98600 54100
" />
<path d="M97850 49600
L97850 53350
" />
<path d="M97350 49100
L97850 49600
" />
<path d="M93700 23950
L92700 22950
" />
<path d="M92700 22950
L91450 22950
" />
<path d="M89950 26700
L91450 26700
" />
<path d="M91700 26700
L93700 24700
" />
<path d="M93700 24700
L93700 23950
" />
<path d="M91450 26700
L91700 26700
" />
<path d="M90350 50100
L90350 54600
" />
<path d="M91450 23450
L90950 23450
" />
<path d="M90950 23450
L90450 23950
" />
<path d="M90450 26200
L90450 23950
" />
<path d="M91350 50100
L91350 54600
" />
<path d="M91350 54600
L90850 55100
" />
<path d="M92450 23950
L91450 23950
" />
<path d="M92350 50100
L92350 56850
" />
<path d="M92350 56850
L92850 57350
" />
<path d="M92950 24450
L91450 24450
" />
<path d="M93350 50100
L93350 56850
" />
<path d="M87450 28200
L87450 24950
" />
<path d="M87950 28700
L87450 28200
" />
<path d="M93950 28700
L87950 28700
" />
<path d="M94350 50100
L94350 52600
" />
<path d="M90200 20950
L90700 21450
" />
<path d="M89700 20450
L90200 20950
" />
<path d="M90700 21450
L91450 21450
" />
<path d="M91450 21450
L92900 21450
" />
<path d="M89700 20450
L90200 20950
" />
<path d="M89700 18450
L89700 20450
" />
<path d="M87450 21950
L85200 21950
" />
<path d="M96200 21950
L95450 21200
" />
<path d="M95450 21200
L95450 20450
" />
<path d="M96700 21950
L96200 21950
" />
<path d="M95450 20450
L92950 20450
" />
<path d="M95850 69100
L95850 65600
" />
<path d="M95850 65600
L95850 60850
" />
<path d="M91850 59350
L85600 59350
" />
<path d="M93350 60850
L91850 59350
" />
<path d="M85950 22450
L87450 22450
" />
<path d="M95700 22450
L94450 21200
" />
<path d="M96700 22450
L95700 22450
" />
<path d="M94850 69100
L94850 65600
" />
<path d="M94850 65600
L94850 60100
" />
<path d="M90850 58850
L92350 58850
" />
<path d="M92350 58850
L93600 60100
" />
<path d="M93600 60100
L94850 60100
" />
<path d="M90850 58850
L86350 58850
" />
<path d="M88450 21200
L87700 20450
" />
<path d="M89700 22450
L88450 21200
" />
<path d="M91450 22450
L89700 22450
" />
<path d="M91450 22450
L92900 22450
" />
<path d="M87700 20450
L88450 21200
" />
<path d="M87700 18450
L87700 20450
" />
<path d="M101200 21450
L102150 21450
" />
<path d="M100700 21450
L101200 21450
" />
<path d="M101200 18450
L101200 21450
" />
<path d="M100200 20450
L99950 20700
" />
<path d="M99950 20700
L99700 20950
" />
<path d="M99700 21200
L99700 21450
" />
<path d="M99700 21450
L100200 21950
" />
<path d="M100200 21950
L100700 21950
" />
<path d="M100700 21950
L102150 21950
" />
<path d="M100200 20450
L100200 18450
" />
<path d="M99700 20950
L100200 20450
" />
<path d="M99700 21200
L99700 20950
" />
<path d="M99950 22450
L99200 21700
" />
<path d="M99200 20950
L99200 20450
" />
<path d="M99200 21700
L99200 20950
" />
<path d="M100700 22450
L99950 22450
" />
<path d="M100700 22450
L102150 22450
" />
<path d="M99200 20950
L99200 18450
" />
</g>
<g style="fill:#000000; fill-opacity:1.0; 
stroke:#000000; stroke-width:39.3701; stroke-opacity:1; 
stroke-linecap:round; stroke-linejoin:round;">
<polyline style="fill-rule:evenodd;"
points="103800,71050
103621,71050
103621,49449
103314,48706
102746,48137
102003,47828
101199,47828
100456,48135
99887,48703
99578,49446
99578,50250
99885,50993
100453,51562
101196,51871
102000,51871
102743,51564
103312,50996
103621,50253
103621,49449
103621,71050
103371,71050
103371,68449
103064,67706
102496,67137
101753,66828
100949,66828
100355,67073
100355,55499
100279,55313
100198,55232
100198,53100
100198,53100
100198,53100
100176,52988
100171,52966
100171,52966
100096,52853
100096,52853
98948,51705
98948,49100
98921,48966
98846,48853
98846,48853
97846,47853
97733,47778
97711,47773
97600,47751
97599,47751
96850,47751
90600,47751
90466,47778
90353,47853
90353,47853
90103,48103
90028,48216
90023,48238
90001,48350
90001,48350
90001,48568
89996,48570
89821,48746
89726,48975
89725,49223
89820,49453
89873,49505
89854,49513
89783,49584
89745,49676
89745,49775
89745,50523
89783,50615
89853,50685
89945,50723
90001,50724
90001,54232
89921,54313
89844,54498
89844,54700
89920,54886
90063,55028
90248,55105
90344,55105
90344,55200
90420,55386
90563,55528
90748,55605
90950,55605
91136,55529
91278,55386
91355,55201
91355,55086
91596,54846
91596,54846
91596,54846
91671,54733
91698,54600
91698,54600
91698,54599
91698,51584
91748,51605
91950,51605
92001,51584
92001,56849
92001,56850
92023,56961
92028,56983
92103,57096
92344,57336
92344,57450
92420,57636
92563,57778
92748,57855
92950,57855
93136,57779
93278,57636
93355,57451
93355,57355
93450,57355
93636,57279
93778,57136
93855,56951
93855,56749
93779,56563
93698,56482
93698,52584
93748,52605
93844,52605
93844,52700
93920,52886
94063,53028
94248,53105
94450,53105
94501,53084
94501,53600
94501,55232
94421,55313
94344,55498
94344,55700
94420,55886
94563,56028
94748,56105
94950,56105
95136,56029
95278,55886
95355,55701
95355,55499
95279,55313
95198,55232
95198,53600
95198,53584
95248,53605
95450,53605
95501,53584
95501,54600
95501,55732
95421,55813
95344,55998
95344,56200
95420,56386
95563,56528
95748,56605
95950,56605
96136,56529
96278,56386
96355,56201
96355,55999
96279,55813
96198,55732
96198,54600
96198,54084
96248,54105
96450,54105
96575,54054
96603,54096
97344,54836
97344,54950
97420,55136
97563,55278
97748,55355
97950,55355
98136,55279
98278,55136
98355,54951
98355,54749
98279,54563
98136,54421
97951,54344
97836,54344
97555,54062
97636,54029
97778,53886
97812,53805
98094,54086
98094,54200
98170,54386
98313,54528
98498,54605
98700,54605
98886,54529
99028,54386
99105,54201
99105,53999
99029,53813
98886,53671
98701,53594
98586,53594
98198,53205
98198,49600
98198,49600
98198,49600
98171,49466
98096,49353
98096,49353
97972,49229
97973,49224
97974,48976
97967,48960
98251,49244
98251,51849
98251,51850
98273,51961
98278,51983
98353,52096
99501,53244
99501,55232
99421,55313
99344,55498
99344,55700
99420,55886
99563,56028
99748,56105
99950,56105
100136,56029
100278,55886
100355,55701
100355,55499
100355,67073
100206,67135
99637,67703
99328,68446
99328,69250
99635,69993
100203,70562
100946,70871
101750,70871
102493,70564
103062,69996
103371,69253
103371,68449
103371,71050
96493,71050
96493,68972
96395,68735
96214,68554
96198,68547
96198,65600
96198,61217
96278,61136
96355,60951
96355,60749
96279,60563
96136,60421
95951,60344
95749,60344
95563,60420
95421,60563
95344,60748
95344,60950
95420,61136
95501,61217
95501,65600
95501,68547
95485,68554
95349,68689
95214,68554
95198,68547
95198,65600
95198,60467
95278,60386
95355,60201
95355,59999
95279,59813
95136,59671
94951,59594
94749,59594
94563,59670
94482,59751
93744,59751
92596,58603
92483,58528
92461,58523
92350,58501
92349,58501
90850,58501
88871,58501
88871,49449
88564,48706
87996,48137
87253,47828
86449,47828
85706,48135
85137,48703
84828,49446
84828,50250
85135,50993
85703,51562
86446,51871
87250,51871
87993,51564
88562,50996
88871,50253
88871,49449
88871,58501
86717,58501
86636,58421
86451,58344
86249,58344
86063,58420
85921,58563
85844,58748
85844,58903
85701,58844
85499,58844
85313,58920
85171,59063
85094,59248
85094,59450
85170,59636
85313,59778
85498,59855
85700,59855
85844,59796
85844,59950
85920,60136
86063,60278
86248,60355
86450,60355
86636,60279
86717,60198
91455,60198
93103,61846
93103,61846
93216,61921
93350,61948
93350,61948
93350,61948
93482,61948
93501,61967
93501,63482
93421,63563
93344,63748
93344,63950
93420,64136
93501,64217
93501,65600
93501,68547
93485,68554
93304,68735
93206,68971
93206,69227
93304,69464
93485,69645
93721,69743
93977,69743
94214,69645
94350,69510
94485,69645
94721,69743
94977,69743
95214,69645
95350,69510
95485,69645
95721,69743
95977,69743
96214,69645
96395,69464
96493,69228
96493,68972
96493,71050
88871,71050
88871,68449
88564,67706
87996,67137
87253,66828
86449,66828
85706,67135
85137,67703
84828,68446
84828,69250
85135,69993
85703,70562
86446,70871
87250,70871
87993,70564
88562,69996
88871,69253
88871,68449
88871,71050
84650,71050
84650,47650
103800,47650
103800,71050
" /> 
</g>
<g style="fill:#000000; fill-opacity:0.0; 
stroke:#000000; stroke-width:100; stroke-opacity:1; 
stroke-linecap:round; stroke-linejoin:round;">
<polyline fill="none;"
points="103800,71050
103621,71050
103621,49449
103314,48706
102746,48137
102003,47828
101199,47828
100456,48135
99887,48703
99578,49446
99578,50250
99885,50993
100453,51562
101196,51871
102000,51871
102743,51564
103312,50996
103621,50253
103621,49449
103621,71050
103371,71050
103371,68449
103064,67706
102496,67137
101753,66828
100949,66828
100355,67073
100355,55499
100279,55313
100198,55232
100198,53100
100198,53100
100198,53100
100176,52988
100171,52966
100171,52966
100096,52853
100096,52853
98948,51705
98948,49100
98921,48966
98846,48853
98846,48853
97846,47853
97733,47778
97711,47773
97600,47751
97599,47751
96850,47751
90600,47751
90466,47778
90353,47853
90353,47853
90103,48103
90028,48216
90023,48238
90001,48350
90001,48350
90001,48568
89996,48570
89821,48746
89726,48975
89725,49223
89820,49453
89873,49505
89854,49513
89783,49584
89745,49676
89745,49775
89745,50523
89783,50615
89853,50685
89945,50723
90001,50724
90001,54232
89921,54313
89844,54498
89844,54700
89920,54886
90063,55028
90248,55105
90344,55105
90344,55200
90420,55386
90563,55528
90748,55605
90950,55605
91136,55529
91278,55386
91355,55201
91355,55086
91596,54846
91596,54846
91596,54846
91671,54733
91698,54600
91698,54600
91698,54599
91698,51584
91748,51605
91950,51605
92001,51584
92001,56849
92001,56850
92023,56961
92028,56983
92103,57096
92344,57336
92344,57450
92420,57636
92563,57778
92748,57855
92950,57855
93136,57779
93278,57636
93355,57451
93355,57355
93450,57355
93636,57279
93778,57136
93855,56951
93855,56749
93779,56563
93698,56482
93698,52584
93748,52605
93844,52605
93844,52700
93920,52886
94063,53028
94248,53105
94450,53105
94501,53084
94501,53600
94501,55232
94421,55313
94344,55498
94344,55700
94420,55886
94563,56028
94748,56105
94950,56105
95136,56029
95278,55886
95355,55701
95355,55499
95279,55313
95198,55232
95198,53600
95198,53584
95248,53605
95450,53605
95501,53584
95501,54600
95501,55732
95421,55813
95344,55998
95344,56200
95420,56386
95563,56528
95748,56605
95950,56605
96136,56529
96278,56386
96355,56201
96355,55999
96279,55813
96198,55732
96198,54600
96198,54084
96248,54105
96450,54105
96575,54054
96603,54096
97344,54836
97344,54950
97420,55136
97563,55278
97748,55355
97950,55355
98136,55279
98278,55136
98355,54951
98355,54749
98279,54563
98136,54421
97951,54344
97836,54344
97555,54062
97636,54029
97778,53886
97812,53805
98094,54086
98094,54200
98170,54386
98313,54528
98498,54605
98700,54605
98886,54529
99028,54386
99105,54201
99105,53999
99029,53813
98886,53671
98701,53594
98586,53594
98198,53205
98198,49600
98198,49600
98198,49600
98171,49466
98096,49353
98096,49353
97972,49229
97973,49224
97974,48976
97967,48960
98251,49244
98251,51849
98251,51850
98273,51961
98278,51983
98353,52096
99501,53244
99501,55232
99421,55313
99344,55498
99344,55700
99420,55886
99563,56028
99748,56105
99950,56105
100136,56029
100278,55886
100355,55701
100355,55499
100355,67073
100206,67135
99637,67703
99328,68446
99328,69250
99635,69993
100203,70562
100946,70871
101750,70871
102493,70564
103062,69996
103371,69253
103371,68449
103371,71050
96493,71050
96493,68972
96395,68735
96214,68554
96198,68547
96198,65600
96198,61217
96278,61136
96355,60951
96355,60749
96279,60563
96136,60421
95951,60344
95749,60344
95563,60420
95421,60563
95344,60748
95344,60950
95420,61136
95501,61217
95501,65600
95501,68547
95485,68554
95349,68689
95214,68554
95198,68547
95198,65600
95198,60467
95278,60386
95355,60201
95355,59999
95279,59813
95136,59671
94951,59594
94749,59594
94563,59670
94482,59751
93744,59751
92596,58603
92483,58528
92461,58523
92350,58501
92349,58501
90850,58501
88871,58501
88871,49449
88564,48706
87996,48137
87253,47828
86449,47828
85706,48135
85137,48703
84828,49446
84828,50250
85135,50993
85703,51562
86446,51871
87250,51871
87993,51564
88562,50996
88871,50253
88871,49449
88871,58501
86717,58501
86636,58421
86451,58344
86249,58344
86063,58420
85921,58563
85844,58748
85844,58903
85701,58844
85499,58844
85313,58920
85171,59063
85094,59248
85094,59450
85170,59636
85313,59778
85498,59855
85700,59855
85844,59796
85844,59950
85920,60136
86063,60278
86248,60355
86450,60355
86636,60279
86717,60198
91455,60198
93103,61846
93103,61846
93216,61921
93350,61948
93350,61948
93350,61948
93482,61948
93501,61967
93501,63482
93421,63563
93344,63748
93344,63950
93420,64136
93501,64217
93501,65600
93501,68547
93485,68554
93304,68735
93206,68971
93206,69227
93304,69464
93485,69645
93721,69743
93977,69743
94214,69645
94350,69510
94485,69645
94721,69743
94977,69743
95214,69645
95350,69510
95485,69645
95721,69743
95977,69743
96214,69645
96395,69464
96493,69228
96493,68972
96493,71050
88871,71050
88871,68449
88564,67706
87996,67137
87253,66828
86449,66828
85706,67135
85137,67703
84828,68446
84828,69250
85135,69993
85703,70562
86446,70871
87250,70871
87993,70564
88562,69996
88871,69253
88871,68449
88871,71050
84650,71050
84650,47650
103800,47650
103800,71050
" /> 
</g>
<g style="fill:#000000; fill-opacity:1.0; 
stroke:#000000; stroke-width:39.3701; stroke-opacity:1; 
stroke-linecap:round; stroke-linejoin:round;">
<polyline style="fill-rule:evenodd;"
points="92951,24955
91555,26351
91450,26351
90934,26351
90955,26301
90955,26099
90879,25913
90798,25832
90798,24094
90974,23917
90974,24099
91012,24191
91021,24199
91013,24208
90975,24300
90974,24399
90974,24599
91012,24691
91083,24761
91175,24799
91274,24800
91724,24800
91728,24798
92582,24798
92663,24878
92848,24955
92951,24955
" /> 
</g>
<g style="fill:#000000; fill-opacity:0.0; 
stroke:#000000; stroke-width:100; stroke-opacity:1; 
stroke-linecap:round; stroke-linejoin:round;">
<polyline fill="none;"
points="92951,24955
91555,26351
91450,26351
90934,26351
90955,26301
90955,26099
90879,25913
90798,25832
90798,24094
90974,23917
90974,24099
91012,24191
91021,24199
91013,24208
90975,24300
90974,24399
90974,24599
91012,24691
91083,24761
91175,24799
91274,24800
91724,24800
91728,24798
92582,24798
92663,24878
92848,24955
92951,24955
" /> 
</g>
<g style="fill:#000000; fill-opacity:1.0; 
stroke:#000000; stroke-width:39.3701; stroke-opacity:1; 
stroke-linecap:round; stroke-linejoin:round;">
<polyline style="fill-rule:evenodd;"
points="101601,17630
101549,17609
101450,17609
100850,17609
100758,17647
100699,17705
100641,17647
100549,17609
100450,17609
99850,17609
99758,17647
99699,17705
99641,17647
99549,17609
99450,17609
98850,17609
98758,17647
98699,17705
98641,17647
98549,17609
98450,17609
97850,17609
97758,17647
97688,17717
97650,17809
97649,17908
97649,19090
97687,19181
97758,19252
97850,19290
97949,19290
98549,19290
98641,19252
98700,19194
98758,19252
98850,19290
98851,19290
98851,20450
98851,20950
98851,21699
98851,21700
98873,21811
98878,21833
98953,21946
99623,22616
99566,22628
99453,22703
99453,22703
99203,22953
99128,23066
99123,23088
99101,23200
99101,23200
99101,25332
99021,25413
98944,25598
98944,25800
99020,25986
99163,26128
99348,26205
99550,26205
99736,26129
99878,25986
99955,25801
99955,25599
99879,25413
99798,25332
99798,23344
99844,23298
100225,23298
100225,23300
100224,23399
100224,23599
100262,23691
100271,23699
100263,23708
100225,23800
100224,23899
100224,24099
100262,24191
100271,24199
100263,24208
100225,24300
100224,24399
100224,24599
100262,24691
100333,24761
100425,24799
100524,24800
100974,24800
100978,24798
101305,24798
101351,24844
101351,24900
101351,25855
100655,26551
100100,26551
99966,26578
99853,26653
99853,26653
97655,28851
95900,28851
94434,28851
94455,28801
94455,28599
94434,28548
94582,28548
94663,28628
94848,28705
95050,28705
95236,28629
95378,28486
95455,28301
95455,28099
95434,28048
95582,28048
95663,28128
95848,28205
96050,28205
96236,28129
96378,27986
96450,27814
96520,27986
96663,28128
96848,28205
97050,28205
97236,28129
97378,27986
97455,27801
97455,27599
97379,27413
97236,27271
97051,27194
96936,27194
96696,26953
96583,26878
96561,26873
96450,26851
96449,26851
92041,26851
93946,24946
93946,24946
93946,24946
94021,24833
94048,24700
94048,24700
94048,24700
94048,23950
94021,23816
93946,23703
93946,23703
93140,22897
93166,22887
93199,22853
93233,22886
93325,22924
93424,22925
93674,22925
93766,22887
93836,22816
93874,22724
93875,22625
93875,22175
93874,22175
93875,22125
93875,21675
93874,21675
93875,21625
93875,21175
93848,21111
93848,21000
93848,21000
93848,21000
93821,20866
93776,20798
94136,20798
94021,20913
93944,21098
93944,21300
94020,21486
94163,21628
94348,21705
94463,21705
95453,22696
95453,22696
95566,22771
95566,22771
95588,22776
95700,22798
95700,22798
95700,22798
96225,22798
96225,22800
96224,22899
96224,23099
96262,23191
96271,23199
96263,23208
96225,23300
96224,23399
96224,23599
96262,23691
96271,23699
96263,23708
96225,23800
96224,23899
96224,24099
96225,24101
96200,24101
96199,24101
96066,24128
95953,24203
95953,24203
95463,24694
95349,24694
95163,24770
95021,24913
94944,25098
94944,25300
94965,25351
94817,25351
94736,25271
94551,25194
94349,25194
94163,25270
94021,25413
93944,25598
93944,25800
94020,25986
94163,26128
94348,26205
94550,26205
94736,26129
94817,26048
96449,26048
96450,26048
96450,26048
96561,26026
96583,26021
96583,26021
96696,25946
96946,25696
96946,25696
96946,25696
97021,25583
97048,25450
97048,25269
97066,25262
97101,25226
97101,26082
97021,26163
96944,26348
96944,26550
97020,26736
97163,26878
97348,26955
97550,26955
97736,26879
97851,26763
97851,26832
97771,26913
97694,27098
97694,27300
97770,27486
97913,27628
98098,27705
98300,27705
98486,27629
98628,27486
98705,27301
98705,27099
98629,26913
98548,26832
98548,24200
98548,23950
98548,23950
98548,23950
98521,23816
98446,23703
98446,23703
97946,23203
97833,23128
97811,23123
97700,23101
97699,23101
97450,23101
97174,23101
97174,23099
97175,23000
97175,22800
97137,22708
97128,22700
97136,22691
97174,22599
97175,22500
97175,22300
97137,22208
97128,22200
97136,22191
97174,22099
97175,22000
97175,21800
97137,21708
97128,21700
97136,21691
97174,21599
97175,21500
97175,21300
97137,21208
97066,21138
97048,21130
97048,20925
97074,20925
97166,20887
97236,20816
97274,20724
97275,20625
97275,20175
97250,20115
97271,20083
97298,19950
97298,19950
97298,19949
97298,19700
97271,19566
97248,19531
97248,19300
97248,17744
97544,17448
101555,17448
101601,17494
101601,17630
" /> 
</g>
<g style="fill:#000000; fill-opacity:0.0; 
stroke:#000000; stroke-width:100; stroke-opacity:1; 
stroke-linecap:round; stroke-linejoin:round;">
<polyline fill="none;"
points="101601,17630
101549,17609
101450,17609
100850,17609
100758,17647
100699,17705
100641,17647
100549,17609
100450,17609
99850,17609
99758,17647
99699,17705
99641,17647
99549,17609
99450,17609
98850,17609
98758,17647
98699,17705
98641,17647
98549,17609
98450,17609
97850,17609
97758,17647
97688,17717
97650,17809
97649,17908
97649,19090
97687,19181
97758,19252
97850,19290
97949,19290
98549,19290
98641,19252
98700,19194
98758,19252
98850,19290
98851,19290
98851,20450
98851,20950
98851,21699
98851,21700
98873,21811
98878,21833
98953,21946
99623,22616
99566,22628
99453,22703
99453,22703
99203,22953
99128,23066
99123,23088
99101,23200
99101,23200
99101,25332
99021,25413
98944,25598
98944,25800
99020,25986
99163,26128
99348,26205
99550,26205
99736,26129
99878,25986
99955,25801
99955,25599
99879,25413
99798,25332
99798,23344
99844,23298
100225,23298
100225,23300
100224,23399
100224,23599
100262,23691
100271,23699
100263,23708
100225,23800
100224,23899
100224,24099
100262,24191
100271,24199
100263,24208
100225,24300
100224,24399
100224,24599
100262,24691
100333,24761
100425,24799
100524,24800
100974,24800
100978,24798
101305,24798
101351,24844
101351,24900
101351,25855
100655,26551
100100,26551
99966,26578
99853,26653
99853,26653
97655,28851
95900,28851
94434,28851
94455,28801
94455,28599
94434,28548
94582,28548
94663,28628
94848,28705
95050,28705
95236,28629
95378,28486
95455,28301
95455,28099
95434,28048
95582,28048
95663,28128
95848,28205
96050,28205
96236,28129
96378,27986
96450,27814
96520,27986
96663,28128
96848,28205
97050,28205
97236,28129
97378,27986
97455,27801
97455,27599
97379,27413
97236,27271
97051,27194
96936,27194
96696,26953
96583,26878
96561,26873
96450,26851
96449,26851
92041,26851
93946,24946
93946,24946
93946,24946
94021,24833
94048,24700
94048,24700
94048,24700
94048,23950
94021,23816
93946,23703
93946,23703
93140,22897
93166,22887
93199,22853
93233,22886
93325,22924
93424,22925
93674,22925
93766,22887
93836,22816
93874,22724
93875,22625
93875,22175
93874,22175
93875,22125
93875,21675
93874,21675
93875,21625
93875,21175
93848,21111
93848,21000
93848,21000
93848,21000
93821,20866
93776,20798
94136,20798
94021,20913
93944,21098
93944,21300
94020,21486
94163,21628
94348,21705
94463,21705
95453,22696
95453,22696
95566,22771
95566,22771
95588,22776
95700,22798
95700,22798
95700,22798
96225,22798
96225,22800
96224,22899
96224,23099
96262,23191
96271,23199
96263,23208
96225,23300
96224,23399
96224,23599
96262,23691
96271,23699
96263,23708
96225,23800
96224,23899
96224,24099
96225,24101
96200,24101
96199,24101
96066,24128
95953,24203
95953,24203
95463,24694
95349,24694
95163,24770
95021,24913
94944,25098
94944,25300
94965,25351
94817,25351
94736,25271
94551,25194
94349,25194
94163,25270
94021,25413
93944,25598
93944,25800
94020,25986
94163,26128
94348,26205
94550,26205
94736,26129
94817,26048
96449,26048
96450,26048
96450,26048
96561,26026
96583,26021
96583,26021
96696,25946
96946,25696
96946,25696
96946,25696
97021,25583
97048,25450
97048,25269
97066,25262
97101,25226
97101,26082
97021,26163
96944,26348
96944,26550
97020,26736
97163,26878
97348,26955
97550,26955
97736,26879
97851,26763
97851,26832
97771,26913
97694,27098
97694,27300
97770,27486
97913,27628
98098,27705
98300,27705
98486,27629
98628,27486
98705,27301
98705,27099
98629,26913
98548,26832
98548,24200
98548,23950
98548,23950
98548,23950
98521,23816
98446,23703
98446,23703
97946,23203
97833,23128
97811,23123
97700,23101
97699,23101
97450,23101
97174,23101
97174,23099
97175,23000
97175,22800
97137,22708
97128,22700
97136,22691
97174,22599
97175,22500
97175,22300
97137,22208
97128,22200
97136,22191
97174,22099
97175,22000
97175,21800
97137,21708
97128,21700
97136,21691
97174,21599
97175,21500
97175,21300
97137,21208
97066,21138
97048,21130
97048,20925
97074,20925
97166,20887
97236,20816
97274,20724
97275,20625
97275,20175
97250,20115
97271,20083
97298,19950
97298,19950
97298,19949
97298,19700
97271,19566
97248,19531
97248,19300
97248,17744
97544,17448
101555,17448
101601,17494
101601,17630
" /> 
</g>
<g style="fill:#000000; fill-opacity:1.0; 
stroke:#000000; stroke-width:39.3701; stroke-opacity:1; 
stroke-linecap:round; stroke-linejoin:round;">
<polyline style="fill-rule:evenodd;"
points="103400,33650
103221,33650
103221,31049
102914,30306
102346,29737
101603,29428
100799,29428
100056,29735
99487,30303
99178,31046
99178,31850
99485,32593
100053,33162
100796,33471
101600,33471
102343,33164
102912,32596
103221,31853
103221,31049
103221,33650
84250,33650
84250,33450
84250,18949
85672,18949
85672,14450
84250,14450
84250,10250
87338,10250
87338,10629
86853,10428
86049,10428
85306,10735
84737,11303
84428,12046
84428,12850
84735,13593
85303,14162
86046,14471
86149,14471
86149,15590
86187,15681
86258,15752
86350,15790
86449,15790
87049,15790
87141,15752
87211,15682
87249,15590
87250,15491
87250,14309
87248,14307
87593,14164
88162,13596
88471,12853
88471,12422
91971,12422
91971,11422
92061,11422
92061,10250
103400,10250
103400,14700
102971,14700
102971,12049
102664,11306
102096,10737
101353,10428
100549,10428
99806,10735
99237,11303
98928,12046
98928,12850
99235,13593
99803,14162
100546,14471
101350,14471
102093,14164
102662,13596
102971,12853
102971,12049
102971,14700
101859,14700
101859,16795
101833,16778
101811,16773
101700,16751
101699,16751
98750,16751
98750,15491
98750,14309
98712,14218
98641,14147
98549,14109
98450,14109
97850,14109
97758,14147
97688,14217
97650,14309
97649,14408
97649,15590
97687,15681
97758,15752
97850,15790
97949,15790
98549,15790
98641,15752
98711,15682
98749,15590
98750,15491
98750,16751
97400,16751
97400,16751
97266,16778
97153,16853
97153,16853
96653,17353
96578,17466
96573,17488
96551,17600
96551,17600
96551,19300
96551,19351
96093,19351
96093,12072
95995,11835
95814,11654
95578,11556
95322,11556
95085,11654
94949,11789
94814,11654
94578,11556
94322,11556
94085,11654
93949,11789
93814,11654
93578,11556
93322,11556
93085,11654
92904,11835
92806,12071
92806,12327
92904,12564
93085,12745
93321,12843
93577,12843
93814,12745
93950,12610
94085,12745
94321,12843
94577,12843
94814,12745
94950,12610
95085,12745
95321,12843
95577,12843
95814,12745
95995,12564
96093,12328
96093,12072
96093,19351
95908,19351
95908,17859
94976,17859
94976,15172
94976,13609
92923,13609
92923,15172
94976,15172
94976,17859
93798,17859
93798,17817
93878,17736
93955,17551
93955,17349
93879,17163
93736,17021
93551,16944
93349,16944
93163,17020
93021,17163
92944,17348
92944,17550
93020,17736
93101,17817
93101,18055
93083,18062
93013,18133
92975,18225
92974,18324
92974,18574
93004,18646
92769,18646
92748,18626
92656,18588
92557,18587
92243,18587
92151,18625
92081,18696
92043,18788
92042,18887
92042,19201
92080,19293
92149,19361
92066,19378
91953,19453
91953,19453
91703,19703
91628,19816
91623,19838
91601,19950
91601,19950
91601,20699
91601,20700
91623,20811
91628,20833
91703,20946
91858,21101
91728,21101
91724,21100
91625,21099
91175,21099
91171,21101
90844,21101
90446,20703
90446,20703
90048,20305
90048,19290
90049,19290
90141,19252
90211,19182
90249,19090
90250,18991
90250,17809
90212,17718
90141,17647
90049,17609
89950,17609
89350,17609
89258,17647
89199,17705
89141,17647
89049,17609
88950,17609
88350,17609
88258,17647
88199,17705
88141,17647
88049,17609
87950,17609
87350,17609
87258,17647
87199,17705
87141,17647
87049,17609
86950,17609
86350,17609
86258,17647
86188,17717
86150,17809
86149,17908
86149,19090
86187,19181
86258,19252
86350,19290
86449,19290
87049,19290
87141,19252
87200,19194
87258,19252
87350,19290
87351,19290
87351,20449
87351,20450
87373,20561
87378,20583
87453,20696
88203,21446
88203,21446
89453,22696
89453,22696
89566,22771
89566,22771
89588,22776
89700,22798
89700,22798
89700,22798
90975,22798
90975,22800
90974,22899
90974,23099
90975,23101
90950,23101
90950,23101
90816,23128
90703,23203
90703,23203
90203,23703
90128,23816
90123,23838
90101,23950
90101,23950
90101,25832
90021,25913
89944,26098
89944,26194
89849,26194
89798,26215
89798,24700
89798,24700
89798,24700
89776,24588
89771,24566
89771,24566
89696,24453
89696,24453
88446,23203
88333,23128
88311,23123
88200,23101
88199,23101
87924,23101
87924,23099
87925,23000
87925,22800
87887,22708
87878,22700
87886,22691
87924,22599
87925,22500
87925,22300
87887,22208
87878,22200
87886,22191
87924,22099
87925,22000
87925,21800
87887,21708
87878,21700
87886,21691
87924,21599
87925,21500
87925,21300
87887,21208
87816,21138
87724,21100
87625,21099
87175,21099
87171,21101
87098,21101
87098,21038
87124,20974
87125,20875
87125,20425
87087,20333
87016,20263
86924,20225
86825,20224
86575,20224
86483,20262
86413,20333
86375,20425
86374,20524
86374,20974
86401,21038
86401,21101
86317,21101
86236,21021
86051,20944
85849,20944
85663,21020
85521,21163
85444,21348
85444,21503
85301,21444
85099,21444
84913,21520
84771,21663
84694,21848
84694,22050
84770,22236
84913,22378
85098,22455
85300,22455
85444,22396
85444,22550
85520,22736
85663,22878
85848,22955
86050,22955
86236,22879
86317,22798
86975,22798
86975,22800
86974,22899
86974,23099
87012,23191
87021,23199
87013,23208
86975,23300
86974,23399
86974,23599
87012,23691
87021,23699
87013,23708
86975,23800
86974,23899
86974,23947
85922,23947
85922,23410
84359,23410
84359,29989
85051,29989
84737,30303
84428,31046
84428,31850
84735,32593
85303,33162
86046,33471
86850,33471
87593,33164
88162,32596
88471,31853
88471,31049
88164,30306
87596,29737
86853,29428
86049,29428
85922,29480
85922,28952
87172,28952
87172,28399
87203,28446
87703,28946
87703,28946
87816,29021
87950,29048
87950,29048
87950,29048
92965,29048
92944,29098
92944,29300
92965,29351
92817,29351
92736,29271
92551,29194
92349,29194
92163,29270
92021,29413
91944,29598
91944,29800
91965,29851
91817,29851
91736,29771
91551,29694
91349,29694
91163,29770
91021,29913
90944,30098
90944,30300
91020,30486
91135,30600
90950,30563
90718,30609
90535,30731
90516,30684
90446,30614
90354,30576
90254,30575
89546,30575
89454,30613
89383,30684
89345,30776
89345,30875
89345,31623
89383,31715
89453,31785
89473,31793
89421,31846
89326,32075
89325,32323
89420,32553
89596,32728
89825,32823
90073,32824
90303,32729
90450,32582
90596,32728
90825,32823
91073,32824
91303,32729
91450,32582
91596,32728
91825,32823
92073,32824
92303,32729
92450,32582
92596,32728
92825,32823
93073,32824
93303,32729
93450,32582
93596,32728
93825,32823
94073,32824
94303,32729
94450,32582
94596,32728
94825,32823
95073,32824
95303,32729
95450,32582
95596,32728
95825,32823
96073,32824
96303,32729
96450,32582
96596,32728
96825,32823
97073,32824
97303,32729
97478,32553
97573,32324
97574,32076
97479,31846
97326,31693
97377,31659
97508,31463
97554,31231
97554,31168
97508,30936
97377,30740
97181,30609
96950,30563
96718,30609
96522,30740
96450,30849
96377,30740
96181,30609
95950,30563
95718,30609
95522,30740
95450,30849
95377,30740
95181,30609
94950,30563
94718,30609
94522,30740
94450,30849
94377,30740
94181,30609
93950,30563
93718,30609
93522,30740
93450,30849
93377,30740
93181,30609
92950,30563
92718,30609
92522,30740
92450,30849
92377,30740
92181,30609
91950,30563
91764,30600
91817,30548
96500,30548
98599,30548
98600,30548
98600,30548
98711,30526
98733,30521
98733,30521
98846,30446
100944,28348
101499,28348
101500,28348
101500,28348
101611,28326
101633,28321
101633,28321
101746,28246
102946,27046
102946,27046
102946,27046
103021,26933
103048,26800
103048,26800
103048,26800
103048,26100
103048,24200
103048,24199
103048,24199
103021,24066
102946,23953
102946,23953
102196,23203
102083,23128
102061,23123
101950,23101
101949,23101
101174,23101
101174,23099
101175,23000
101175,22800
101174,22798
101805,22798
101812,22816
101883,22886
101975,22924
102074,22925
102324,22925
102416,22887
102449,22853
102483,22886
102575,22924
102674,22925
102924,22925
103016,22887
103086,22816
103124,22724
103125,22625
103125,22175
103124,22175
103125,22125
103125,21675
103124,21675
103125,21625
103125,21175
103098,21111
103098,20500
103098,20499
103098,20499
103071,20366
102996,20253
102996,20253
102298,19555
102298,19199
103400,19199
103400,33650
" /> 
</g>
<g style="fill:#000000; fill-opacity:0.0; 
stroke:#000000; stroke-width:100; stroke-opacity:1; 
stroke-linecap:round; stroke-linejoin:round;">
<polyline fill="none;"
points="103400,33650
103221,33650
103221,31049
102914,30306
102346,29737
101603,29428
100799,29428
100056,29735
99487,30303
99178,31046
99178,31850
99485,32593
100053,33162
100796,33471
101600,33471
102343,33164
102912,32596
103221,31853
103221,31049
103221,33650
84250,33650
84250,33450
84250,18949
85672,18949
85672,14450
84250,14450
84250,10250
87338,10250
87338,10629
86853,10428
86049,10428
85306,10735
84737,11303
84428,12046
84428,12850
84735,13593
85303,14162
86046,14471
86149,14471
86149,15590
86187,15681
86258,15752
86350,15790
86449,15790
87049,15790
87141,15752
87211,15682
87249,15590
87250,15491
87250,14309
87248,14307
87593,14164
88162,13596
88471,12853
88471,12422
91971,12422
91971,11422
92061,11422
92061,10250
103400,10250
103400,14700
102971,14700
102971,12049
102664,11306
102096,10737
101353,10428
100549,10428
99806,10735
99237,11303
98928,12046
98928,12850
99235,13593
99803,14162
100546,14471
101350,14471
102093,14164
102662,13596
102971,12853
102971,12049
102971,14700
101859,14700
101859,16795
101833,16778
101811,16773
101700,16751
101699,16751
98750,16751
98750,15491
98750,14309
98712,14218
98641,14147
98549,14109
98450,14109
97850,14109
97758,14147
97688,14217
97650,14309
97649,14408
97649,15590
97687,15681
97758,15752
97850,15790
97949,15790
98549,15790
98641,15752
98711,15682
98749,15590
98750,15491
98750,16751
97400,16751
97400,16751
97266,16778
97153,16853
97153,16853
96653,17353
96578,17466
96573,17488
96551,17600
96551,17600
96551,19300
96551,19351
96093,19351
96093,12072
95995,11835
95814,11654
95578,11556
95322,11556
95085,11654
94949,11789
94814,11654
94578,11556
94322,11556
94085,11654
93949,11789
93814,11654
93578,11556
93322,11556
93085,11654
92904,11835
92806,12071
92806,12327
92904,12564
93085,12745
93321,12843
93577,12843
93814,12745
93950,12610
94085,12745
94321,12843
94577,12843
94814,12745
94950,12610
95085,12745
95321,12843
95577,12843
95814,12745
95995,12564
96093,12328
96093,12072
96093,19351
95908,19351
95908,17859
94976,17859
94976,15172
94976,13609
92923,13609
92923,15172
94976,15172
94976,17859
93798,17859
93798,17817
93878,17736
93955,17551
93955,17349
93879,17163
93736,17021
93551,16944
93349,16944
93163,17020
93021,17163
92944,17348
92944,17550
93020,17736
93101,17817
93101,18055
93083,18062
93013,18133
92975,18225
92974,18324
92974,18574
93004,18646
92769,18646
92748,18626
92656,18588
92557,18587
92243,18587
92151,18625
92081,18696
92043,18788
92042,18887
92042,19201
92080,19293
92149,19361
92066,19378
91953,19453
91953,19453
91703,19703
91628,19816
91623,19838
91601,19950
91601,19950
91601,20699
91601,20700
91623,20811
91628,20833
91703,20946
91858,21101
91728,21101
91724,21100
91625,21099
91175,21099
91171,21101
90844,21101
90446,20703
90446,20703
90048,20305
90048,19290
90049,19290
90141,19252
90211,19182
90249,19090
90250,18991
90250,17809
90212,17718
90141,17647
90049,17609
89950,17609
89350,17609
89258,17647
89199,17705
89141,17647
89049,17609
88950,17609
88350,17609
88258,17647
88199,17705
88141,17647
88049,17609
87950,17609
87350,17609
87258,17647
87199,17705
87141,17647
87049,17609
86950,17609
86350,17609
86258,17647
86188,17717
86150,17809
86149,17908
86149,19090
86187,19181
86258,19252
86350,19290
86449,19290
87049,19290
87141,19252
87200,19194
87258,19252
87350,19290
87351,19290
87351,20449
87351,20450
87373,20561
87378,20583
87453,20696
88203,21446
88203,21446
89453,22696
89453,22696
89566,22771
89566,22771
89588,22776
89700,22798
89700,22798
89700,22798
90975,22798
90975,22800
90974,22899
90974,23099
90975,23101
90950,23101
90950,23101
90816,23128
90703,23203
90703,23203
90203,23703
90128,23816
90123,23838
90101,23950
90101,23950
90101,25832
90021,25913
89944,26098
89944,26194
89849,26194
89798,26215
89798,24700
89798,24700
89798,24700
89776,24588
89771,24566
89771,24566
89696,24453
89696,24453
88446,23203
88333,23128
88311,23123
88200,23101
88199,23101
87924,23101
87924,23099
87925,23000
87925,22800
87887,22708
87878,22700
87886,22691
87924,22599
87925,22500
87925,22300
87887,22208
87878,22200
87886,22191
87924,22099
87925,22000
87925,21800
87887,21708
87878,21700
87886,21691
87924,21599
87925,21500
87925,21300
87887,21208
87816,21138
87724,21100
87625,21099
87175,21099
87171,21101
87098,21101
87098,21038
87124,20974
87125,20875
87125,20425
87087,20333
87016,20263
86924,20225
86825,20224
86575,20224
86483,20262
86413,20333
86375,20425
86374,20524
86374,20974
86401,21038
86401,21101
86317,21101
86236,21021
86051,20944
85849,20944
85663,21020
85521,21163
85444,21348
85444,21503
85301,21444
85099,21444
84913,21520
84771,21663
84694,21848
84694,22050
84770,22236
84913,22378
85098,22455
85300,22455
85444,22396
85444,22550
85520,22736
85663,22878
85848,22955
86050,22955
86236,22879
86317,22798
86975,22798
86975,22800
86974,22899
86974,23099
87012,23191
87021,23199
87013,23208
86975,23300
86974,23399
86974,23599
87012,23691
87021,23699
87013,23708
86975,23800
86974,23899
86974,23947
85922,23947
85922,23410
84359,23410
84359,29989
85051,29989
84737,30303
84428,31046
84428,31850
84735,32593
85303,33162
86046,33471
86850,33471
87593,33164
88162,32596
88471,31853
88471,31049
88164,30306
87596,29737
86853,29428
86049,29428
85922,29480
85922,28952
87172,28952
87172,28399
87203,28446
87703,28946
87703,28946
87816,29021
87950,29048
87950,29048
87950,29048
92965,29048
92944,29098
92944,29300
92965,29351
92817,29351
92736,29271
92551,29194
92349,29194
92163,29270
92021,29413
91944,29598
91944,29800
91965,29851
91817,29851
91736,29771
91551,29694
91349,29694
91163,29770
91021,29913
90944,30098
90944,30300
91020,30486
91135,30600
90950,30563
90718,30609
90535,30731
90516,30684
90446,30614
90354,30576
90254,30575
89546,30575
89454,30613
89383,30684
89345,30776
89345,30875
89345,31623
89383,31715
89453,31785
89473,31793
89421,31846
89326,32075
89325,32323
89420,32553
89596,32728
89825,32823
90073,32824
90303,32729
90450,32582
90596,32728
90825,32823
91073,32824
91303,32729
91450,32582
91596,32728
91825,32823
92073,32824
92303,32729
92450,32582
92596,32728
92825,32823
93073,32824
93303,32729
93450,32582
93596,32728
93825,32823
94073,32824
94303,32729
94450,32582
94596,32728
94825,32823
95073,32824
95303,32729
95450,32582
95596,32728
95825,32823
96073,32824
96303,32729
96450,32582
96596,32728
96825,32823
97073,32824
97303,32729
97478,32553
97573,32324
97574,32076
97479,31846
97326,31693
97377,31659
97508,31463
97554,31231
97554,31168
97508,30936
97377,30740
97181,30609
96950,30563
96718,30609
96522,30740
96450,30849
96377,30740
96181,30609
95950,30563
95718,30609
95522,30740
95450,30849
95377,30740
95181,30609
94950,30563
94718,30609
94522,30740
94450,30849
94377,30740
94181,30609
93950,30563
93718,30609
93522,30740
93450,30849
93377,30740
93181,30609
92950,30563
92718,30609
92522,30740
92450,30849
92377,30740
92181,30609
91950,30563
91764,30600
91817,30548
96500,30548
98599,30548
98600,30548
98600,30548
98711,30526
98733,30521
98733,30521
98846,30446
100944,28348
101499,28348
101500,28348
101500,28348
101611,28326
101633,28321
101633,28321
101746,28246
102946,27046
102946,27046
102946,27046
103021,26933
103048,26800
103048,26800
103048,26800
103048,26100
103048,24200
103048,24199
103048,24199
103021,24066
102946,23953
102946,23953
102196,23203
102083,23128
102061,23123
101950,23101
101949,23101
101174,23101
101174,23099
101175,23000
101175,22800
101174,22798
101805,22798
101812,22816
101883,22886
101975,22924
102074,22925
102324,22925
102416,22887
102449,22853
102483,22886
102575,22924
102674,22925
102924,22925
103016,22887
103086,22816
103124,22724
103125,22625
103125,22175
103124,22175
103125,22125
103125,21675
103124,21675
103125,21625
103125,21175
103098,21111
103098,20500
103098,20499
103098,20499
103071,20366
102996,20253
102996,20253
102298,19555
102298,19199
103400,19199
103400,33650
" /> 
</g>
<g style="fill:#FFFFFF; fill-opacity:0.0; 
stroke:#FFFFFF; stroke-width:39.3701; stroke-opacity:1; 
stroke-linecap:round; stroke-linejoin:round;">
</g>
<g style="fill:#FFFFFF; fill-opacity:1.0; 
stroke:#FFFFFF; stroke-width:39.3701; stroke-opacity:1; 
stroke-linecap:round; stroke-linejoin:round;">
<circle cx="93450" cy="17450" r="98.4252" /> 
<circle cx="93450" cy="19700" r="98.4252" /> 
<circle cx="85950" cy="21450" r="98.4252" /> 
<circle cx="86350" cy="59850" r="98.4252" /> 
<circle cx="93850" cy="61600" r="98.4252" /> 
<circle cx="93850" cy="63850" r="98.4252" /> 
<circle cx="98200" cy="20450" r="98.4252" /> 
<circle cx="91450" cy="25950" r="98.4252" /> 
<circle cx="85950" cy="23450" r="98.4252" /> 
<circle cx="92450" cy="17450" r="98.4252" /> 
<circle cx="92850" cy="63850" r="98.4252" /> 
<circle cx="86350" cy="57850" r="98.4252" /> 
<circle cx="91850" cy="55350" r="98.4252" /> 
<circle cx="98600" cy="60850" r="98.4252" /> 
<circle cx="96950" cy="27700" r="98.4252" /> 
<circle cx="97350" cy="53600" r="98.4252" /> 
<circle cx="95950" cy="27700" r="98.4252" /> 
<circle cx="96350" cy="53600" r="98.4252" /> 
<circle cx="99450" cy="25700" r="98.4252" /> 
<circle cx="99850" cy="55600" r="98.4252" /> 
<circle cx="91450" cy="30200" r="98.4252" /> 
<circle cx="91850" cy="51100" r="98.4252" /> 
<circle cx="92450" cy="29700" r="98.4252" /> 
<circle cx="92850" cy="51600" r="98.4252" /> 
<circle cx="94950" cy="28200" r="98.4252" /> 
<circle cx="95350" cy="53100" r="98.4252" /> 
<circle cx="93450" cy="29200" r="98.4252" /> 
<circle cx="93850" cy="52100" r="98.4252" /> 
<circle cx="94450" cy="25700" r="98.4252" /> 
<circle cx="94850" cy="55600" r="98.4252" /> 
<circle cx="95450" cy="25200" r="98.4252" /> 
<circle cx="95850" cy="56100" r="98.4252" /> 
<circle cx="97450" cy="26450" r="98.4252" /> 
<circle cx="97850" cy="54850" r="98.4252" /> 
<circle cx="98200" cy="27200" r="98.4252" /> 
<circle cx="98600" cy="54100" r="98.4252" /> 
<circle cx="89950" cy="26700" r="98.4252" /> 
<circle cx="90350" cy="54600" r="98.4252" /> 
<circle cx="90450" cy="26200" r="98.4252" /> 
<circle cx="90850" cy="55100" r="98.4252" /> 
<circle cx="92450" cy="23950" r="98.4252" /> 
<circle cx="92850" cy="57350" r="98.4252" /> 
<circle cx="92950" cy="24450" r="98.4252" /> 
<circle cx="93350" cy="56850" r="98.4252" /> 
<circle cx="93950" cy="28700" r="98.4252" /> 
<circle cx="94350" cy="52600" r="98.4252" /> 
<circle cx="85200" cy="21950" r="98.4252" /> 
<circle cx="92950" cy="20450" r="98.4252" /> 
<circle cx="95450" cy="20450" r="98.4252" /> 
<circle cx="95850" cy="60850" r="98.4252" /> 
<circle cx="93350" cy="60850" r="98.4252" /> 
<circle cx="85600" cy="59350" r="98.4252" /> 
<circle cx="85950" cy="22450" r="98.4252" /> 
<circle cx="94450" cy="21200" r="98.4252" /> 
<circle cx="94850" cy="60100" r="98.4252" /> 
<circle cx="86350" cy="58850" r="98.4252" /> 
<circle cx="89950" cy="31200" r="160.315" /> 
<circle cx="89950" cy="32200" r="137.795" /> 
<circle cx="90950" cy="31200" r="137.795" /> 
<circle cx="90950" cy="32200" r="137.795" /> 
<circle cx="91950" cy="31200" r="137.795" /> 
<circle cx="91950" cy="32200" r="137.795" /> 
<circle cx="92950" cy="31200" r="137.795" /> 
<circle cx="92950" cy="32200" r="137.795" /> 
<circle cx="93950" cy="31200" r="137.795" /> 
<circle cx="93950" cy="32200" r="137.795" /> 
<circle cx="94950" cy="31200" r="137.795" /> 
<circle cx="94950" cy="32200" r="137.795" /> 
<circle cx="95950" cy="31200" r="137.795" /> 
<circle cx="95950" cy="32200" r="137.795" /> 
<circle cx="96950" cy="31200" r="137.795" /> 
<circle cx="96950" cy="32200" r="137.795" /> 
<circle cx="86450" cy="12450" r="767.815" /> 
<circle cx="100950" cy="12450" r="767.815" /> 
<circle cx="86450" cy="31450" r="767.815" /> 
<circle cx="101200" cy="31450" r="767.815" /> 
<circle cx="92450" cy="12200" r="177.315" /> 
<circle cx="93450" cy="12200" r="177.315" /> 
<circle cx="94450" cy="12200" r="177.315" /> 
<circle cx="95450" cy="12200" r="177.315" /> 
<circle cx="92850" cy="69100" r="177.315" /> 
<circle cx="93850" cy="69100" r="177.315" /> 
<circle cx="94850" cy="69100" r="177.315" /> 
<circle cx="95850" cy="69100" r="177.315" /> 
<circle cx="101600" cy="49850" r="767.815" /> 
<circle cx="86850" cy="49850" r="767.815" /> 
<circle cx="101350" cy="68850" r="767.815" /> 
<circle cx="86850" cy="68850" r="767.815" /> 
<circle cx="90350" cy="50100" r="160.315" /> 
<circle cx="90350" cy="49100" r="137.795" /> 
<circle cx="91350" cy="50100" r="137.795" /> 
<circle cx="91350" cy="49100" r="137.795" /> 
<circle cx="92350" cy="50100" r="137.795" /> 
<circle cx="92350" cy="49100" r="137.795" /> 
<circle cx="93350" cy="50100" r="137.795" /> 
<circle cx="93350" cy="49100" r="137.795" /> 
<circle cx="94350" cy="50100" r="137.795" /> 
<circle cx="94350" cy="49100" r="137.795" /> 
<circle cx="95350" cy="50100" r="137.795" /> 
<circle cx="95350" cy="49100" r="137.795" /> 
<circle cx="96350" cy="50100" r="137.795" /> 
<circle cx="96350" cy="49100" r="137.795" /> 
<circle cx="97350" cy="50100" r="137.795" /> 
<circle cx="97350" cy="49100" r="137.795" /> 
</g> 
</svg>
