<?xml version="1.0" standalone="no"?>
 <!DOCTYPE svg PUBLIC "-//W3C//DTD SVG 1.1//EN" 
 "http://www.w3.org/Graphics/SVG/1.1/DTD/svg11.dtd"> 
<svg xmlns="http://www.w3.org/2000/svg" version="1.1" 
    width="29.7002cm" height="21.0007cm" viewBox="0 0 116930 82680 ">
<title>SVG Picture created as PCF8573-Dessus_Cu.svg date 2014/03/24 22:12:27 </title>
  <desc>Picture generated by PCBNEW </desc>
<g style="fill:#000000; fill-opacity:1;stroke:#000000; stroke-opacity:1;
stroke-linecap:round; stroke-linejoin:round; "
 transform="translate(0 0) scale(1 1)">
</g>
<g style="fill:#000000; fill-opacity:0.0; 
stroke:#000000; stroke-width:118.11; stroke-opacity:1; 
stroke-linecap:round; stroke-linejoin:round;">
<path d="M12123 25295
L11729 25295
" />
<path d="M12348 25435
L11926 25576
L11926 25210
" />
<path d="M11729 24676
L11729 25014
" />
<path d="M11729 24845
L12320 24845
L12235 24901
L12179 24957
L12151 25014
" />
<path d="M11757 24395
L11729 24395
L11673 24423
L11645 24451
" />
<path d="M12123 23889
L11729 23889
" />
<path d="M12348 24029
L11926 24170
L11926 23804
" />
<path d="M12320 23467
L12320 23411
L12291 23354
L12263 23326
L12207 23298
L12095 23270
L11954 23270
L11841 23298
L11785 23326
L11757 23354
L11729 23411
L11729 23467
L11757 23523
L11785 23551
L11841 23579
L11954 23608
L12095 23608
L12207 23579
L12263 23551
L12291 23523
L12320 23467
" />
<path d="M12263 23045
L12291 23017
L12320 22961
L12320 22820
L12291 22764
L12263 22736
L12207 22708
L12151 22708
L12066 22736
L11729 23073
L11729 22708
" />
<path d="M11729 22005
L12123 22005
" />
<path d="M12066 22005
L12095 21977
L12123 21920
L12123 21836
L12095 21780
L12038 21752
L11729 21752
" />
<path d="M12038 21752
L12095 21723
L12123 21667
L12123 21583
L12095 21527
L12038 21498
L11729 21498
" />
<path d="M11729 21217
L12123 21217
" />
<path d="M12066 21217
L12095 21189
L12123 21133
L12123 21049
L12095 20992
L12038 20964
L11729 20964
" />
<path d="M12038 20964
L12095 20936
L12123 20880
L12123 20795
L12095 20739
L12038 20711
L11729 20711
" />
<path d="M12500 14979
L12500 31279
" />
<path d="M31200 14980
L11437 14979
" />
<path d="M31200 31280
L11437 31279
" />
<path d="M12500 31279
L12269 30836
" />
<path d="M12500 31279
L12730 30836
" />
<path d="M12500 14979
L12269 15423
" />
<path d="M12500 14979
L12730 15423
" />
<path d="M20284 34966
L20284 34572
" />
<path d="M20144 35191
L20003 34769
L20369 34769
" />
<path d="M20706 35163
L20762 35163
L20818 35134
L20847 35106
L20875 35050
L20903 34938
L20903 34797
L20875 34684
L20847 34628
L20818 34600
L20762 34572
L20706 34572
L20650 34600
L20622 34628
L20593 34684
L20565 34797
L20565 34938
L20593 35050
L20622 35106
L20650 35134
L20706 35163
" />
<path d="M21184 34600
L21184 34572
L21156 34516
L21128 34488
" />
<path d="M21521 34909
L21465 34938
L21437 34966
L21409 35022
L21409 35050
L21437 35106
L21465 35134
L21521 35163
L21634 35163
L21690 35134
L21718 35106
L21746 35050
L21746 35022
L21718 34966
L21690 34938
L21634 34909
L21521 34909
L21465 34881
L21437 34853
L21409 34797
L21409 34684
L21437 34628
L21465 34600
L21521 34572
L21634 34572
L21690 34600
L21718 34628
L21746 34684
L21746 34797
L21718 34853
L21690 34881
L21634 34909
" />
<path d="M22028 34572
L22140 34572
L22196 34600
L22225 34628
L22281 34713
L22309 34825
L22309 35050
L22281 35106
L22253 35134
L22196 35163
L22084 35163
L22028 35134
L22000 35106
L21971 35050
L21971 34909
L22000 34853
L22028 34825
L22084 34797
L22196 34797
L22253 34825
L22281 34853
L22309 34909
" />
<path d="M22815 34966
L22815 34572
" />
<path d="M22674 35191
L22534 34769
L22899 34769
" />
<path d="M23574 34572
L23574 34966
" />
<path d="M23574 34909
L23602 34938
L23659 34966
L23743 34966
L23799 34938
L23827 34881
L23827 34572
" />
<path d="M23827 34881
L23856 34938
L23912 34966
L23996 34966
L24052 34938
L24081 34881
L24081 34572
" />
<path d="M24362 34572
L24362 34966
" />
<path d="M24362 34909
L24390 34938
L24446 34966
L24530 34966
L24587 34938
L24615 34881
L24615 34572
" />
<path d="M24615 34881
L24643 34938
L24699 34966
L24784 34966
L24840 34938
L24868 34881
L24868 34572
" />
<path d="M30500 34279
L14400 34279
" />
<path d="M30500 14680
L30500 35342
" />
<path d="M14400 14680
L14400 35342
" />
<path d="M14400 34279
L14843 34049
" />
<path d="M14400 34279
L14843 34510
" />
<path d="M30500 34279
L30056 34049
" />
<path d="M30500 34279
L30056 34510
" />
<path d="M29025 53669
L29109 53640
L29250 53640
L29306 53669
L29334 53697
L29362 53753
L29362 53809
L29334 53865
L29306 53894
L29250 53922
L29137 53950
L29081 53978
L29053 54006
L29025 54062
L29025 54119
L29053 54175
L29081 54203
L29137 54231
L29278 54231
L29362 54203
" />
<path d="M29840 53669
L29784 53640
L29671 53640
L29615 53669
L29587 53725
L29587 53950
L29615 54006
L29671 54034
L29784 54034
L29840 54006
L29868 53950
L29868 53894
L29587 53837
" />
<path d="M30374 53669
L30318 53640
L30206 53640
L30149 53669
L30121 53697
L30093 53753
L30093 53922
L30121 53978
L30149 54006
L30206 54034
L30318 54034
L30374 54006
" />
<path d="M28995 56840
L28995 57431
L29192 57009
L29389 57431
L29389 56840
" />
<path d="M29670 56840
L29670 57234
" />
<path d="M29670 57431
L29642 57403
L29670 57375
L29698 57403
L29670 57431
L29670 57375
" />
<path d="M29951 57234
L29951 56840
" />
<path d="M29951 57178
L29979 57206
L30035 57234
L30120 57234
L30176 57206
L30204 57150
L30204 56840
" />
<path d="M18539 56903
L17948 56903
" />
<path d="M18004 57156
L17976 57184
L17948 57240
L17948 57381
L17976 57437
L18004 57465
L18060 57494
L18117 57494
L18201 57465
L18539 57128
L18539 57494
" />
<path d="M18482 58084
L18510 58056
L18539 57972
L18539 57915
L18510 57831
L18454 57775
L18398 57747
L18285 57719
L18201 57719
L18089 57747
L18032 57775
L17976 57831
L17948 57915
L17948 57972
L17976 58056
L18004 58084
" />
<path d="M23314 62856
L23314 63306
" />
<path d="M23229 63784
L23257 63869
L23285 63897
L23342 63925
L23426 63925
L23482 63897
L23510 63869
L23539 63812
L23539 63587
L22948 63587
L22948 63784
L22976 63840
L23004 63869
L23060 63897
L23117 63897
L23173 63869
L23201 63840
L23229 63784
L23229 63587
" />
<path d="M23370 64150
L23370 64431
" />
<path d="M23539 64094
L22948 64290
L23539 64487
" />
<path d="M22948 64600
L22948 64937
" />
<path d="M23539 64768
L22948 64768
" />
<path d="M22948 65050
L22948 65387
" />
<path d="M23539 65218
L22948 65218
" />
<path d="M19914 62856
L19914 63306
" />
<path d="M20139 63081
L19689 63081
" />
<path d="M19829 63784
L19857 63869
L19885 63897
L19942 63925
L20026 63925
L20082 63897
L20110 63869
L20139 63812
L20139 63587
L19548 63587
L19548 63784
L19576 63840
L19604 63869
L19660 63897
L19717 63897
L19773 63869
L19801 63840
L19829 63784
L19829 63587
" />
<path d="M19970 64150
L19970 64431
" />
<path d="M20139 64094
L19548 64290
L20139 64487
" />
<path d="M19548 64600
L19548 64937
" />
<path d="M20139 64768
L19548 64768
" />
<path d="M19548 65050
L19548 65387
" />
<path d="M20139 65218
L19548 65218
" />
<path d="M21072 51840
L21072 52431
L21297 52431
L21353 52403
L21381 52375
L21409 52319
L21409 52234
L21381 52178
L21353 52150
L21297 52122
L21072 52122
" />
<path d="M22000 51897
L21971 51869
L21887 51840
L21831 51840
L21747 51869
L21690 51925
L21662 51981
L21634 52094
L21634 52178
L21662 52290
L21690 52347
L21747 52403
L21831 52431
L21887 52431
L21971 52403
L22000 52375
" />
<path d="M22450 52150
L22253 52150
" />
<path d="M22253 51840
L22253 52431
L22534 52431
" />
<path d="M22843 52178
L22787 52206
L22759 52234
L22731 52290
L22731 52319
L22759 52375
L22787 52403
L22843 52431
L22956 52431
L23012 52403
L23040 52375
L23068 52319
L23068 52290
L23040 52234
L23012 52206
L22956 52178
L22843 52178
L22787 52150
L22759 52122
L22731 52065
L22731 51953
L22759 51897
L22787 51869
L22843 51840
L22956 51840
L23012 51869
L23040 51897
L23068 51953
L23068 52065
L23040 52122
L23012 52150
L22956 52178
" />
<path d="M23603 52431
L23321 52431
L23293 52150
L23321 52178
L23378 52206
L23518 52206
L23574 52178
L23603 52150
L23631 52094
L23631 51953
L23603 51897
L23574 51869
L23518 51840
L23378 51840
L23321 51869
L23293 51897
" />
<path d="M23828 52431
L24221 52431
L23968 51840
" />
<path d="M24390 52431
L24756 52431
L24559 52206
L24643 52206
L24699 52178
L24727 52150
L24756 52094
L24756 51953
L24727 51897
L24699 51869
L24643 51840
L24474 51840
L24418 51869
L24390 51897
" />
<path d="M21845 51205
L21648 51205
" />
<path d="M21648 50896
L21648 51486
L21929 51486
" />
<path d="M22407 51289
L22407 50896
" />
<path d="M22267 51514
L22126 51092
L22492 51092
" />
<path d="M22717 50896
L22717 51486
L22857 51486
L22942 51458
L22998 51402
L23026 51346
L23054 51233
L23054 51149
L23026 51036
L22998 50980
L22942 50924
L22857 50896
L22717 50896
" />
<path d="M23307 51205
L23504 51205
" />
<path d="M23588 50896
L23307 50896
L23307 51486
L23588 51486
" />
<path d="M24038 51205
L24123 51177
L24151 51149
L24179 51092
L24179 51008
L24151 50952
L24123 50924
L24067 50896
L23842 50896
L23842 51486
L24038 51486
L24095 51458
L24123 51430
L24151 51374
L24151 51317
L24123 51261
L24095 51233
L24038 51205
L23842 51205
" />
<path d="M21100 50541
L21156 50541
L21212 50513
L21240 50485
L21268 50429
L21297 50316
L21297 50176
L21268 50063
L21240 50007
L21212 49979
L21156 49951
L21100 49951
L21043 49979
L21015 50007
L20987 50063
L20959 50176
L20959 50316
L20987 50429
L21015 50485
L21043 50513
L21100 50541
" />
<path d="M21493 50541
L21859 50541
L21662 50316
L21747 50316
L21803 50288
L21831 50260
L21859 50204
L21859 50063
L21831 50007
L21803 49979
L21747 49951
L21578 49951
L21522 49979
L21493 50007
" />
<path d="M22112 50176
L22562 50176
" />
<path d="M22815 50485
L22843 50513
L22900 50541
L23040 50541
L23096 50513
L23124 50485
L23153 50429
L23153 50373
L23124 50288
L22787 49951
L23153 49951
" />
<path d="M23518 50541
L23574 50541
L23631 50513
L23659 50485
L23687 50429
L23715 50316
L23715 50176
L23687 50063
L23659 50007
L23631 49979
L23574 49951
L23518 49951
L23462 49979
L23434 50007
L23406 50063
L23378 50176
L23378 50316
L23406 50429
L23434 50485
L23462 50513
L23518 50541
" />
<path d="M24277 49951
L23940 49951
" />
<path d="M24109 49951
L24109 50541
L24052 50457
L23996 50401
L23940 50373
" />
<path d="M24784 50344
L24784 49951
" />
<path d="M24643 50569
L24502 50148
L24868 50148
" />
<path d="M20484 46303
L20484 45909
" />
<path d="M20344 46528
L20203 46106
L20569 46106
" />
<path d="M20906 46500
L20962 46500
L21018 46471
L21047 46443
L21075 46387
L21103 46275
L21103 46134
L21075 46021
L21047 45965
L21018 45937
L20962 45909
L20906 45909
L20850 45937
L20822 45965
L20793 46021
L20765 46134
L20765 46275
L20793 46387
L20822 46443
L20850 46471
L20906 46500
" />
<path d="M21384 45937
L21384 45909
L21356 45853
L21328 45825
" />
<path d="M21721 46246
L21665 46275
L21637 46303
L21609 46359
L21609 46387
L21637 46443
L21665 46471
L21721 46500
L21834 46500
L21890 46471
L21918 46443
L21946 46387
L21946 46359
L21918 46303
L21890 46275
L21834 46246
L21721 46246
L21665 46218
L21637 46190
L21609 46134
L21609 46021
L21637 45965
L21665 45937
L21721 45909
L21834 45909
L21890 45937
L21918 45965
L21946 46021
L21946 46134
L21918 46190
L21890 46218
L21834 46246
" />
<path d="M22228 45909
L22340 45909
L22396 45937
L22425 45965
L22481 46050
L22509 46162
L22509 46387
L22481 46443
L22453 46471
L22396 46500
L22284 46500
L22228 46471
L22200 46443
L22171 46387
L22171 46246
L22200 46190
L22228 46162
L22284 46134
L22396 46134
L22453 46162
L22481 46190
L22509 46246
" />
<path d="M23015 46303
L23015 45909
" />
<path d="M22874 46528
L22734 46106
L23099 46106
" />
<path d="M23774 45909
L23774 46303
" />
<path d="M23774 46246
L23802 46275
L23859 46303
L23943 46303
L23999 46275
L24027 46218
L24027 45909
" />
<path d="M24027 46218
L24056 46275
L24112 46303
L24196 46303
L24252 46275
L24281 46218
L24281 45909
" />
<path d="M24562 45909
L24562 46303
" />
<path d="M24562 46246
L24590 46275
L24646 46303
L24730 46303
L24787 46275
L24815 46218
L24815 45909
" />
<path d="M24815 46218
L24843 46275
L24899 46303
L24984 46303
L25040 46275
L25068 46218
L25068 45909
" />
<path d="M30700 46680
L14600 46680
" />
<path d="M30700 66280
L30700 45617
" />
<path d="M14600 66280
L14600 45617
" />
<path d="M14600 46680
L15043 46910
" />
<path d="M14600 46680
L15043 46449
" />
<path d="M30700 46680
L30256 46910
" />
<path d="M30700 46680
L30256 46449
" />
<path d="M12323 59995
L11929 59995
" />
<path d="M12548 60135
L12126 60276
L12126 59910
" />
<path d="M11929 59376
L11929 59714
" />
<path d="M11929 59545
L12520 59545
L12435 59601
L12379 59657
L12351 59714
" />
<path d="M11957 59095
L11929 59095
L11873 59123
L11845 59151
" />
<path d="M12323 58589
L11929 58589
" />
<path d="M12548 58729
L12126 58870
L12126 58504
" />
<path d="M12520 58167
L12520 58111
L12491 58054
L12463 58026
L12407 57998
L12295 57970
L12154 57970
L12041 57998
L11985 58026
L11957 58054
L11929 58111
L11929 58167
L11957 58223
L11985 58251
L12041 58279
L12154 58308
L12295 58308
L12407 58279
L12463 58251
L12491 58223
L12520 58167
" />
<path d="M12463 57745
L12491 57717
L12520 57661
L12520 57520
L12491 57464
L12463 57436
L12407 57408
L12351 57408
L12266 57436
L11929 57773
L11929 57408
" />
<path d="M11929 56705
L12323 56705
" />
<path d="M12266 56705
L12295 56677
L12323 56620
L12323 56536
L12295 56480
L12238 56452
L11929 56452
" />
<path d="M12238 56452
L12295 56423
L12323 56367
L12323 56283
L12295 56227
L12238 56198
L11929 56198
" />
<path d="M11929 55917
L12323 55917
" />
<path d="M12266 55917
L12295 55889
L12323 55833
L12323 55749
L12295 55692
L12238 55664
L11929 55664
" />
<path d="M12238 55664
L12295 55636
L12323 55580
L12323 55495
L12295 55439
L12238 55411
L11929 55411
" />
<path d="M12700 65980
L12700 49680
" />
<path d="M31400 65980
L11637 65980
" />
<path d="M31400 49680
L11637 49680
" />
<path d="M12700 49680
L12469 50123
" />
<path d="M12700 49680
L12930 50123
" />
<path d="M12700 65980
L12469 65536
" />
<path d="M12700 65980
L12930 65536
" />
</g>
<g style="fill:#000000; fill-opacity:0.0; 
stroke:#000000; stroke-width:39.3701; stroke-opacity:1; 
stroke-linecap:round; stroke-linejoin:round;">
</g>
<g style="fill:#000000; fill-opacity:1.0; 
stroke:#000000; stroke-width:39.3701; stroke-opacity:1; 
stroke-linecap:round; stroke-linejoin:round;">
<circle cx="28300" cy="29180" r="1751.81" /> 
<circle cx="16400" cy="29280" r="1751.81" /> 
<circle cx="28300" cy="16980" r="1751.81" /> 
<circle cx="16400" cy="16980" r="1751.81" /> 
<polyline style="fill-rule:evenodd;"
points="20330,19589
19469,19589
19469,20170
20330,20170
20330,19589
" /> 
</g>
<g style="fill:#000000; fill-opacity:1.0; 
stroke:#000000; stroke-width:620; stroke-opacity:1; 
stroke-linecap:round; stroke-linejoin:round;">
<path d="M19760 20880
L20040 20880
" />
<path d="M19760 21880
L20040 21880
" />
<path d="M19760 22880
L20040 22880
" />
<path d="M19760 23880
L20040 23880
" />
<path d="M19760 24880
L20040 24880
" />
<path d="M19760 25880
L20040 25880
" />
<path d="M19760 26880
L20040 26880
" />
<path d="M22760 26880
L23040 26880
" />
<path d="M22760 25880
L23040 25880
" />
<path d="M22760 24880
L23040 24880
" />
<path d="M22760 23880
L23040 23880
" />
<path d="M22760 22880
L23040 22880
" />
<path d="M22760 21880
L23040 21880
" />
<path d="M22760 20880
L23040 20880
" />
<path d="M22760 19880
L23040 19880
" />
</g>
<g style="fill:#000000; fill-opacity:1.0; 
stroke:#000000; stroke-width:39.3701; stroke-opacity:1; 
stroke-linecap:round; stroke-linejoin:round;">
<polyline style="fill-rule:evenodd;"
points="15674,19805
14925,19805
14925,20554
15674,20554
15674,19805
" /> 
<circle cx="15300" cy="21180" r="374.016" /> 
<circle cx="18300" cy="21180" r="374.016" /> 
<circle cx="18300" cy="20180" r="374.016" /> 
<polyline style="fill-rule:evenodd;"
points="21234,17073
21234,16286
20565,16286
20565,17073
21234,17073
" /> 
<circle cx="21900" cy="16680" r="393.815" /> 
<polyline style="fill-rule:evenodd;"
points="16373,26006
15626,26006
15626,26753
16373,26753
16373,26006
" /> 
<circle cx="16000" cy="25380" r="373.815" /> 
<circle cx="16000" cy="24380" r="373.815" /> 
<circle cx="16000" cy="23380" r="373.815" /> 
<circle cx="25600" cy="21880" r="374.016" /> 
<circle cx="25600" cy="22880" r="374.016" /> 
<polyline style="fill-rule:evenodd;"
points="17305,25274
16894,25274
16894,25485
17305,25485
17305,25274
" /> 
<polyline style="fill-rule:evenodd;"
points="17305,25874
16894,25874
16894,26085
17305,26085
17305,25874
" /> 
<polyline style="fill-rule:evenodd;"
points="27055,56417
27410,56417
27410,56142
27055,56142
27055,56417
" /> 
<polyline style="fill-rule:evenodd;"
points="26189,56042
26544,56042
26544,55767
26189,55767
26189,56042
" /> 
<polyline style="fill-rule:evenodd;"
points="26189,56792
26544,56792
26544,56517
26189,56517
26189,56792
" /> 
<polyline style="fill-rule:evenodd;"
points="27055,55017
27410,55017
27410,54742
27055,54742
27055,55017
" /> 
<polyline style="fill-rule:evenodd;"
points="26189,54642
26544,54642
26544,54367
26189,54367
26189,54642
" /> 
<polyline style="fill-rule:evenodd;"
points="26189,55392
26544,55392
26544,55117
26189,55117
26189,55392
" /> 
<polyline style="fill-rule:evenodd;"
points="27369,60299
27369,61260
27830,61260
27830,60299
27369,60299
" /> 
<polyline style="fill-rule:evenodd;"
points="28569,60299
28569,61260
29030,61260
29030,60299
28569,60299
" /> 
<polyline style="fill-rule:evenodd;"
points="24894,55674
24894,56085
25105,56085
25105,55674
24894,55674
" /> 
<polyline style="fill-rule:evenodd;"
points="25494,55674
25494,56085
25705,56085
25705,55674
25494,55674
" /> 
<polyline style="fill-rule:evenodd;"
points="24894,54374
24894,54785
25105,54785
25105,54374
24894,54374
" /> 
<polyline style="fill-rule:evenodd;"
points="25494,54374
25494,54785
25705,54785
25705,54374
25494,54374
" /> 
<polyline style="fill-rule:evenodd;"
points="28605,56485
28605,56074
28394,56074
28394,56485
28605,56485
" /> 
<polyline style="fill-rule:evenodd;"
points="28005,56485
28005,56074
27794,56074
27794,56485
28005,56485
" /> 
<polyline style="fill-rule:evenodd;"
points="28605,55085
28605,54674
28394,54674
28394,55085
28605,55085
" /> 
<polyline style="fill-rule:evenodd;"
points="28005,55085
28005,54674
27794,54674
27794,55085
28005,55085
" /> 
<polyline style="fill-rule:evenodd;"
points="18905,55185
18905,54774
18694,54774
18694,55185
18905,55185
" /> 
<polyline style="fill-rule:evenodd;"
points="18305,55185
18305,54774
18094,54774
18094,55185
18305,55185
" /> 
<polyline style="fill-rule:evenodd;"
points="24994,60474
24994,60885
25205,60885
25205,60474
24994,60474
" /> 
<polyline style="fill-rule:evenodd;"
points="25594,60474
25594,60885
25805,60885
25805,60474
25594,60474
" /> 
<circle cx="25800" cy="59080" r="374.016" /> 
<circle cx="25800" cy="58080" r="374.016" /> 
<polyline style="fill-rule:evenodd;"
points="26351,59544
30248,59544
30248,57615
26351,57615
26351,59544
" /> 
<polyline style="fill-rule:evenodd;"
points="30032,56417
30032,56142
29757,56142
29757,56417
30032,56417
" /> 
<polyline style="fill-rule:evenodd;"
points="29442,56417
29442,56142
29167,56142
29167,56417
29442,56417
" /> 
<polyline style="fill-rule:evenodd;"
points="18067,55542
18067,55817
18342,55817
18342,55542
18067,55542
" /> 
<polyline style="fill-rule:evenodd;"
points="18657,55542
18657,55817
18932,55817
18932,55542
18657,55542
" /> 
<polyline style="fill-rule:evenodd;"
points="30032,55017
30032,54742
29757,54742
29757,55017
30032,55017
" /> 
<polyline style="fill-rule:evenodd;"
points="29442,55017
29442,54742
29167,54742
29167,55017
29442,55017
" /> 
<polyline style="fill-rule:evenodd;"
points="15826,54953
16573,54953
16573,54206
15826,54206
15826,54953
" /> 
<circle cx="16200" cy="55580" r="373.815" /> 
<circle cx="16200" cy="56580" r="373.815" /> 
<circle cx="16200" cy="57580" r="373.815" /> 
<polyline style="fill-rule:evenodd;"
points="21434,64673
21434,63886
20765,63886
20765,64673
21434,64673
" /> 
<circle cx="22100" cy="64280" r="393.815" /> 
<polyline style="fill-rule:evenodd;"
points="15125,61154
15874,61154
15874,60405
15125,60405
15125,61154
" /> 
<circle cx="15500" cy="59780" r="374.016" /> 
<circle cx="18500" cy="59780" r="374.016" /> 
<circle cx="18500" cy="60780" r="374.016" /> 
<polyline style="fill-rule:evenodd;"
points="19669,61370
20530,61370
20530,60789
19669,60789
19669,61370
" /> 
</g>
<g style="fill:#000000; fill-opacity:1.0; 
stroke:#000000; stroke-width:620; stroke-opacity:1; 
stroke-linecap:round; stroke-linejoin:round;">
<path d="M20240 60080
L19960 60080
" />
<path d="M20240 59080
L19960 59080
" />
<path d="M20240 58080
L19960 58080
" />
<path d="M20240 57080
L19960 57080
" />
<path d="M20240 56080
L19960 56080
" />
<path d="M20240 55080
L19960 55080
" />
<path d="M20240 54080
L19960 54080
" />
<path d="M23240 54080
L22960 54080
" />
<path d="M23240 55080
L22960 55080
" />
<path d="M23240 56080
L22960 56080
" />
<path d="M23240 57080
L22960 57080
" />
<path d="M23240 58080
L22960 58080
" />
<path d="M23240 59080
L22960 59080
" />
<path d="M23240 60080
L22960 60080
" />
<path d="M23240 61080
L22960 61080
" />
</g>
<g style="fill:#000000; fill-opacity:1.0; 
stroke:#000000; stroke-width:39.3701; stroke-opacity:1; 
stroke-linecap:round; stroke-linejoin:round;">
<circle cx="16600" cy="63980" r="1751.81" /> 
<circle cx="28500" cy="63980" r="1751.81" /> 
<circle cx="16600" cy="51680" r="1751.81" /> 
<circle cx="28500" cy="51780" r="1751.81" /> 
<circle cx="18400" cy="24580" r="236.22" /> 
<circle cx="20900" cy="19080" r="236.22" /> 
<circle cx="21100" cy="61880" r="236.22" /> 
<circle cx="18600" cy="56380" r="236.22" /> 
<circle cx="24600" cy="23880" r="236.22" /> 
<circle cx="18900" cy="26880" r="236.22" /> 
<circle cx="27500" cy="25380" r="236.22" /> 
<circle cx="27700" cy="55580" r="236.22" /> 
<circle cx="19100" cy="54080" r="236.22" /> 
<circle cx="24800" cy="57080" r="236.22" /> 
<circle cx="24000" cy="26880" r="236.22" /> 
<circle cx="24200" cy="54080" r="236.22" /> 
<circle cx="24000" cy="25680" r="236.22" /> 
<circle cx="24200" cy="55280" r="236.22" /> 
<circle cx="26500" cy="20180" r="236.22" /> 
<circle cx="26700" cy="60780" r="236.22" /> 
<circle cx="24100" cy="20280" r="236.22" /> 
<circle cx="24300" cy="60680" r="236.22" /> 
</g>
<g style="fill:#000000; fill-opacity:1.0; 
stroke:#000000; stroke-width:196.85; stroke-opacity:1; 
stroke-linecap:round; stroke-linejoin:round;">
<path d="M17100 25380
L17600 25380
" />
<path d="M21800 19880
L21000 19080
" />
<path d="M20900 19080
L17200 19080
" />
<path d="M21000 19080
L20900 19080
" />
<path d="M17200 19080
L16700 19580
" />
<path d="M16700 19580
L16700 21880
" />
<path d="M16700 21880
L16300 22280
" />
<path d="M16300 22280
L16100 22280
" />
<path d="M22900 19880
L21800 19880
" />
<path d="M15800 22280
L16000 22280
" />
<path d="M15200 22880
L15800 22280
" />
<path d="M15200 24880
L15200 22880
" />
<path d="M15700 25380
L15200 24880
" />
<path d="M20900 16680
L20900 19080
" />
<path d="M17600 25380
L17100 25380
" />
<path d="M17700 25280
L17600 25380
" />
<path d="M18400 24580
L17700 25280
" />
<path d="M17100 25380
L16000 25380
" />
<path d="M21900 19880
L22900 19880
" />
<path d="M21100 19080
L21900 19880
" />
<path d="M17200 19080
L21100 19080
" />
<path d="M16700 19580
L17200 19080
" />
<path d="M16700 21880
L16700 19580
" />
<path d="M16300 22280
L16700 21880
" />
<path d="M15800 22280
L16300 22280
" />
<path d="M15200 22880
L15800 22280
" />
<path d="M15200 24880
L15200 22880
" />
<path d="M15700 25380
L15200 24880
" />
<path d="M16000 25380
L15700 25380
" />
<path d="M29895 54880
L29895 54675
" />
<path d="M29895 54675
L29600 54380
" />
<path d="M28500 54080
L28900 54080
" />
<path d="M28500 54080
L27300 54080
" />
<path d="M27300 54080
L26500 53280
" />
<path d="M26500 53280
L18800 53280
" />
<path d="M18800 53280
L17700 54380
" />
<path d="M17700 54380
L17700 55580
" />
<path d="M17700 55580
L17800 55680
" />
<path d="M17800 55680
L18205 55680
" />
<path d="M28900 54080
L29200 54380
" />
<path d="M29200 54380
L29600 54380
" />
<path d="M28800 60780
L28800 61380
" />
<path d="M28300 61880
L21100 61880
" />
<path d="M28800 61380
L28300 61880
" />
<path d="M29895 56280
L29895 54880
" />
<path d="M18205 55680
L18205 55985
" />
<path d="M18205 55985
L18600 56380
" />
<path d="M18600 56380
L18205 55985
" />
<path d="M16700 26380
L17100 25980
" />
<path d="M16000 26380
L16700 26380
" />
<path d="M15300 21180
L15300 20180
" />
<path d="M19800 25980
L19900 25880
" />
<path d="M17100 25980
L19800 25980
" />
<path d="M19900 26880
L19900 25880
" />
<path d="M21200 24880
L22200 23880
" />
<path d="M22200 23880
L22900 23880
" />
<path d="M19900 24880
L21200 24880
" />
<path d="M15300 21680
L14700 22280
" />
<path d="M14700 22280
L14700 25980
" />
<path d="M14700 25980
L15100 26380
" />
<path d="M15100 26380
L16000 26380
" />
<path d="M15300 21180
L15300 21680
" />
<path d="M24600 23880
L22900 23880
" />
<path d="M18900 26880
L19900 26880
" />
<path d="M27500 25380
L27400 25280
" />
<path d="M27400 25280
L27400 24180
" />
<path d="M27400 24180
L27100 23880
" />
<path d="M27100 23880
L24600 23880
" />
<path d="M20100 56080
L20100 55080
" />
<path d="M25700 60680
L25700 60180
" />
<path d="M24800 59280
L24800 58580
" />
<path d="M25700 60180
L24800 59280
" />
<path d="M24800 57080
L24800 58580
" />
<path d="M26367 55255
L26675 55255
" />
<path d="M27000 55580
L27700 55580
" />
<path d="M26675 55255
L27000 55580
" />
<path d="M18200 54980
L18200 54580
" />
<path d="M18700 54080
L19100 54080
" />
<path d="M18200 54580
L18700 54080
" />
<path d="M26367 56655
L25225 56655
" />
<path d="M25225 56655
L24800 57080
" />
<path d="M17600 24380
L18100 23880
" />
<path d="M18100 23880
L19900 23880
" />
<path d="M16000 24380
L17600 24380
" />
<path d="M18600 19880
L18300 20180
" />
<path d="M19900 19880
L18600 19880
" />
<path d="M19100 20880
L18800 21180
" />
<path d="M18800 21180
L18300 21180
" />
<path d="M19900 20880
L19100 20880
" />
<path d="M22900 26880
L24000 26880
" />
<path d="M24700 54580
L25000 54580
" />
<path d="M24200 54080
L24700 54580
" />
<path d="M23800 25880
L24000 25680
" />
<path d="M22900 25880
L23800 25880
" />
<path d="M24800 55880
L25000 55880
" />
<path d="M24200 55280
L24800 55880
" />
<path d="M27233 56280
L27900 56280
" />
<path d="M28500 56280
L29305 56280
" />
<path d="M28500 54880
L29305 54880
" />
<path d="M25600 55880
L26342 55880
" />
<path d="M26342 55880
L26367 55905
" />
<path d="M25600 54580
L26292 54580
" />
<path d="M26292 54580
L26367 54505
" />
<path d="M22900 21880
L25600 21880
" />
<path d="M22900 22880
L25600 22880
" />
<path d="M26100 22880
L26500 22480
" />
<path d="M26500 22480
L26500 20180
" />
<path d="M25600 22880
L26100 22880
" />
<path d="M26700 60780
L27600 60780
" />
<path d="M23500 20880
L24100 20280
" />
<path d="M24100 20280
L24100 19280
" />
<path d="M24100 19280
L23500 18680
" />
<path d="M23500 18680
L22500 18680
" />
<path d="M22500 18680
L21900 18080
" />
<path d="M21900 18080
L21900 16680
" />
<path d="M22900 20880
L23500 20880
" />
<path d="M24300 60680
L25100 60680
" />
<path d="M18795 55680
L18795 54985
" />
<path d="M18795 54985
L18800 54980
" />
<path d="M27233 54880
L27900 54880
" />
<path d="M17600 23380
L18100 22880
" />
<path d="M18100 22880
L19900 22880
" />
<path d="M16000 23380
L17600 23380
" />
</g>
<g style="fill:#000000; fill-opacity:1.0; 
stroke:#000000; stroke-width:39.3701; stroke-opacity:1; 
stroke-linecap:round; stroke-linejoin:round;">
<polyline style="fill-rule:evenodd;"
points="29546,55272
29511,55286
29412,55287
29098,55287
29006,55249
28985,55228
28844,55228
28837,55246
28766,55316
28674,55354
28575,55355
28325,55355
28233,55317
28200,55283
28166,55316
28074,55354
27975,55355
27725,55355
27633,55317
27567,55251
27479,55287
27380,55287
26986,55287
26894,55249
26824,55179
26810,55146
26751,55205
26417,55205
26417,55197
26317,55197
26317,55205
25982,55205
25920,55142
25919,55047
25957,54956
25985,54928
25944,54928
25937,54946
25866,55016
25774,55054
25675,55055
25425,55055
25333,55017
25300,54983
25266,55016
25174,55054
25075,55055
24825,55055
24733,55017
24663,54946
24651,54918
24566,54901
24453,54826
24453,54826
24213,54585
24099,54585
23913,54509
23771,54366
23752,54321
23649,54475
23494,54580
23649,54684
23771,54865
23792,54972
23913,54851
24098,54774
24300,54774
24486,54850
24628,54993
24705,55178
24705,55293
24819,55407
24825,55405
24924,55404
25174,55404
25266,55442
25299,55476
25333,55443
25425,55405
25524,55404
25774,55404
25866,55442
25936,55513
25944,55531
25948,55531
25919,55462
25920,55367
25982,55305
26317,55305
26317,55312
26417,55312
26417,55305
26751,55305
26814,55367
26814,55462
26776,55553
26750,55579
26775,55605
26813,55697
26814,55797
26814,56005
26823,55981
26894,55910
26986,55872
27085,55872
27479,55872
27567,55908
27633,55843
27725,55805
27824,55804
28074,55804
28166,55842
28199,55876
28233,55843
28325,55805
28424,55804
28674,55804
28766,55842
28836,55913
28844,55931
28985,55931
29006,55911
29098,55873
29197,55872
29511,55872
29546,55887
29546,55272
" /> 
</g>
<g style="fill:#000000; fill-opacity:0.0; 
stroke:#000000; stroke-width:100; stroke-opacity:1; 
stroke-linecap:round; stroke-linejoin:round;">
<polyline fill="none;"
points="29546,55272
29511,55286
29412,55287
29098,55287
29006,55249
28985,55228
28844,55228
28837,55246
28766,55316
28674,55354
28575,55355
28325,55355
28233,55317
28200,55283
28166,55316
28074,55354
27975,55355
27725,55355
27633,55317
27567,55251
27479,55287
27380,55287
26986,55287
26894,55249
26824,55179
26810,55146
26751,55205
26417,55205
26417,55197
26317,55197
26317,55205
25982,55205
25920,55142
25919,55047
25957,54956
25985,54928
25944,54928
25937,54946
25866,55016
25774,55054
25675,55055
25425,55055
25333,55017
25300,54983
25266,55016
25174,55054
25075,55055
24825,55055
24733,55017
24663,54946
24651,54918
24566,54901
24453,54826
24453,54826
24213,54585
24099,54585
23913,54509
23771,54366
23752,54321
23649,54475
23494,54580
23649,54684
23771,54865
23792,54972
23913,54851
24098,54774
24300,54774
24486,54850
24628,54993
24705,55178
24705,55293
24819,55407
24825,55405
24924,55404
25174,55404
25266,55442
25299,55476
25333,55443
25425,55405
25524,55404
25774,55404
25866,55442
25936,55513
25944,55531
25948,55531
25919,55462
25920,55367
25982,55305
26317,55305
26317,55312
26417,55312
26417,55305
26751,55305
26814,55367
26814,55462
26776,55553
26750,55579
26775,55605
26813,55697
26814,55797
26814,56005
26823,55981
26894,55910
26986,55872
27085,55872
27479,55872
27567,55908
27633,55843
27725,55805
27824,55804
28074,55804
28166,55842
28199,55876
28233,55843
28325,55805
28424,55804
28674,55804
28766,55842
28836,55913
28844,55931
28985,55931
29006,55911
29098,55873
29197,55872
29511,55872
29546,55887
29546,55272
" /> 
</g>
<g style="fill:#000000; fill-opacity:1.0; 
stroke:#000000; stroke-width:39.3701; stroke-opacity:1; 
stroke-linecap:round; stroke-linejoin:round;">
<polyline style="fill-rule:evenodd;"
points="30650,49730
25261,49730
25261,52920
20538,52920
20538,49730
17174,49730
17743,49965
18312,50533
18621,51276
18621,52080
18314,52823
17746,53392
17003,53701
16843,53701
16843,55707
16745,55944
16610,56080
16745,56215
16843,56451
16843,56707
16745,56944
16610,57080
16745,57215
16843,57451
16843,57707
16745,57944
16564,58125
16328,58223
16147,58223
16147,59675
16138,59931
16058,60124
15982,60152
16035,60174
16105,60244
16143,60336
16143,61223
16105,61315
16035,61385
15943,61423
15844,61423
15612,61423
15550,61361
15550,60830
16081,60830
16143,60892
16143,61223
16143,60336
16143,60667
16081,60730
15550,60730
15550,60722
15450,60722
15450,60730
15450,60830
15450,61361
15387,61423
15155,61423
15056,61423
14964,61385
14894,61315
14856,61223
14856,60892
14918,60830
15450,60830
15450,60730
14918,60730
14856,60667
14856,60336
14894,60244
14964,60174
15017,60152
14941,60124
14852,59884
14861,59628
14941,59435
15046,59396
15429,59780
15423,59785
15494,59856
15500,59850
15505,59856
15576,59785
15570,59780
15953,59396
16058,59435
16147,59675
16147,58223
16072,58223
15883,58145
15883,59326
15500,59709
15116,59326
15155,59221
15395,59132
15651,59141
15844,59221
15883,59326
15883,58145
15835,58125
15654,57944
15556,57708
15556,57452
15654,57215
15789,57079
15654,56944
15556,56708
15556,56452
15654,56215
15789,56079
15654,55944
15556,55708
15556,55452
15654,55215
15678,55191
15664,55185
15594,55114
15556,55023
15556,54692
15619,54630
16150,54630
16150,54637
16250,54637
16250,54630
16781,54630
16843,54692
16843,55023
16805,55114
16735,55185
16721,55191
16745,55215
16843,55451
16843,55707
16843,53701
16843,53701
16843,54136
16843,54467
16781,54530
16250,54530
16250,53999
16312,53936
16543,53936
16643,53936
16735,53974
16805,54045
16843,54136
16843,53701
16199,53701
16150,53681
16150,53999
16150,54530
15619,54530
15556,54467
15556,54136
15594,54045
15664,53974
15756,53936
15856,53936
16087,53936
16150,53999
16150,53681
15456,53394
14887,52826
14650,52255
14650,63405
14885,62836
15453,62267
16196,61958
17000,61958
17743,62265
18312,62833
18621,63576
18621,64380
18314,65123
17746,65692
17175,65930
27925,65930
27356,65694
26787,65126
26478,64383
26478,63579
26785,62836
27353,62267
27446,62228
24022,62228
24022,62407
24022,65752
22459,65752
22459,64849
22232,64943
21968,64943
21724,64842
21681,64799
21666,64834
21596,64905
21504,64943
21404,64943
20695,64943
20622,64913
20622,65752
19059,65752
19059,62407
20622,62407
20622,63646
20695,63616
20795,63616
21504,63616
21595,63654
21666,63724
21681,63760
21723,63717
21967,63616
22231,63616
22459,63710
22459,62407
24022,62407
24022,62228
21467,62228
21386,62308
21201,62385
20999,62385
20813,62309
20671,62166
20594,61981
20594,61779
20662,61613
20599,61639
20500,61640
19600,61640
19508,61602
19438,61531
19400,61439
19399,61340
19399,60720
19437,60628
19508,60558
19600,60520
19616,60520
19550,60475
19428,60294
19386,60080
19428,59865
19550,59684
19705,59580
19550,59475
19428,59294
19386,59080
19428,58865
19550,58684
19705,58580
19550,58475
19428,58294
19386,58080
19428,57865
19550,57684
19705,57580
19550,57475
19428,57294
19386,57080
19428,56865
19550,56684
19705,56580
19699,56578
19528,56440
19423,56248
19416,56216
19465,56130
20050,56130
20050,56137
20150,56137
20150,56130
20734,56130
20783,56216
20776,56248
20671,56440
20500,56578
20494,56580
20649,56684
20771,56865
20813,57080
20771,57294
20649,57475
20494,57580
20649,57684
20771,57865
20813,58080
20771,58294
20649,58475
20494,58580
20649,58684
20771,58865
20813,59080
20771,59294
20649,59475
20494,59580
20649,59684
20771,59865
20813,60080
20771,60294
20649,60475
20583,60519
20599,60519
20691,60557
20761,60628
20799,60720
20800,60819
20800,61439
20782,61481
20813,61451
20998,61374
21200,61374
21386,61450
21467,61531
22633,61531
22550,61475
22428,61294
22386,61080
22428,60865
22550,60684
22705,60580
22550,60475
22428,60294
22386,60080
22428,59865
22550,59684
22705,59580
22550,59475
22428,59294
22386,59080
22428,58865
22550,58684
22705,58580
22550,58475
22428,58294
22386,58080
22428,57865
22550,57684
22705,57580
22699,57578
22528,57440
22423,57248
22416,57216
22465,57130
23050,57130
23050,57137
23150,57137
23150,57130
23734,57130
23783,57216
23776,57248
23671,57440
23500,57578
23494,57580
23649,57684
23771,57865
23813,58080
23771,58294
23649,58475
23494,58580
23649,58684
23771,58865
23813,59080
23771,59294
23649,59475
23494,59580
23649,59684
23771,59865
23813,60080
23771,60294
23649,60475
23494,60580
23649,60684
23771,60865
23813,61080
23771,61294
23649,61475
23566,61531
28155,61531
28316,61370
28300,61329
28299,61230
28299,60230
28337,60138
28408,60068
28500,60030
28599,60029
29099,60029
29191,60067
29261,60138
29299,60230
29300,60329
29300,61329
29262,61421
29191,61491
29114,61523
29046,61626
29046,61626
28714,61958
28900,61958
29643,62265
30212,62833
30521,63576
30521,64380
30214,65123
29646,65692
29075,65930
30650,65930
30650,57920
30518,57920
30518,59613
30480,59705
30410,59776
30318,59814
30218,59814
28100,59814
28100,60329
28100,61329
28062,61421
27991,61491
27899,61529
27800,61530
27300,61530
27208,61492
27138,61421
27100,61329
27099,61230
27099,61128
27067,61128
26986,61208
26801,61285
26599,61285
26413,61209
26271,61066
26194,60881
26194,60679
26270,60493
26413,60351
26598,60274
26800,60274
26986,60350
27067,60431
27099,60431
27099,60230
27137,60138
27208,60068
27300,60030
27399,60029
27899,60029
27991,60067
28061,60138
28099,60230
28100,60329
28100,59814
26281,59814
26190,59776
26119,59706
26097,59653
26075,59662
26075,60504
26075,60855
26074,60954
26036,61046
25966,61117
25874,61155
25812,61155
25750,61092
25750,60730
26012,60730
26075,60792
26075,60855
26075,60504
26075,60567
26012,60630
25750,60630
25750,60267
25812,60205
25874,60204
25966,60242
26036,60313
26074,60405
26075,60504
26075,59662
25928,59723
25672,59723
25650,59714
25650,60267
25650,60630
25642,60630
25642,60730
25650,60730
25650,61092
25587,61155
25525,61155
25433,61117
25400,61083
25366,61116
25274,61154
25175,61155
24925,61155
24833,61117
24763,61046
24755,61028
24667,61028
24586,61108
24401,61185
24199,61185
24013,61109
23871,60966
23794,60781
23794,60579
23870,60393
24013,60251
24198,60174
24400,60174
24586,60250
24667,60331
24755,60331
24762,60313
24833,60243
24925,60205
25024,60204
25274,60204
25366,60242
25400,60276
25433,60242
25525,60204
25587,60205
25650,60267
25650,59714
25435,59626
25254,59445
25156,59208
25156,58952
25253,58715
25389,58579
25254,58445
25156,58208
25156,57952
25253,57715
25434,57534
25671,57436
25927,57436
26097,57506
26119,57454
26189,57383
26281,57345
26381,57345
28545,57345
28545,56755
28325,56755
28233,56717
28200,56683
28166,56716
28074,56754
27975,56755
27725,56755
27633,56717
27567,56651
27479,56687
27380,56687
26986,56687
26894,56649
26824,56579
26814,56554
26814,56862
26776,56953
26705,57024
26613,57062
26514,57062
26479,57062
26417,57000
26417,56705
26751,56705
26814,56767
26814,56862
26814,56554
26810,56546
26751,56605
26417,56605
26417,56597
26317,56597
26317,56605
26317,56705
26317,57000
26254,57062
26219,57062
26120,57062
26028,57024
25957,56953
25919,56862
25920,56767
25982,56705
26317,56705
26317,56605
25982,56605
25920,56542
25919,56447
25957,56356
26028,56285
26041,56280
26028,56274
25982,56228
25944,56228
25937,56246
25866,56316
25774,56354
25675,56355
25425,56355
25333,56317
25300,56283
25266,56316
25174,56354
25075,56355
24825,56355
24733,56317
24663,56246
24636,56181
24636,56181
24553,56126
24553,56126
24213,55785
24099,55785
23913,55709
23771,55566
23701,55398
23649,55475
23494,55580
23649,55684
23771,55865
23813,56080
23771,56294
23649,56475
23494,56579
23500,56581
23671,56719
23776,56911
23783,56943
23734,57030
23150,57030
23150,57022
23050,57022
23050,57030
22465,57030
22416,56943
22423,56911
22528,56719
22699,56581
22705,56579
22550,56475
22428,56294
22386,56080
22428,55865
22550,55684
22705,55580
22550,55475
22428,55294
22386,55080
22428,54865
22550,54684
22705,54580
22550,54475
22428,54294
22386,54080
22428,53865
22550,53684
22633,53628
20558,53628
20671,53719
20776,53911
20783,53943
20783,54216
20776,54248
20671,54440
20500,54578
20494,54580
20500,54581
20671,54719
20776,54911
20783,54943
20783,55216
20776,55248
20671,55440
20500,55578
20494,55580
20500,55581
20671,55719
20776,55911
20783,55943
20734,56030
20150,56030
20150,55640
20150,55520
20150,55130
20734,55130
20783,55216
20783,54943
20734,55030
20150,55030
20150,54640
20150,54520
20150,54130
20734,54130
20783,54216
20783,53943
20734,54030
20150,54030
20150,54022
20050,54022
20050,54030
20050,54130
20050,54520
20050,54640
20050,55030
20050,55130
20050,55520
20050,55640
20050,56030
19465,56030
19416,55943
19423,55911
19528,55719
19699,55581
19705,55580
19699,55578
19528,55440
19423,55248
19416,55216
19465,55130
20050,55130
20050,55030
19465,55030
19416,54943
19423,54911
19528,54719
19699,54581
19705,54580
19699,54578
19528,54440
19423,54248
19416,54216
19465,54130
20050,54130
20050,54030
19465,54030
19416,53943
19423,53911
19528,53719
19641,53628
18944,53628
18067,54504
18087,54505
18150,54567
18150,54930
18142,54930
18142,55030
18150,55030
18150,55037
18250,55037
18250,55030
18257,55030
18257,54930
18250,54930
18250,54567
18312,54505
18374,54504
18466,54542
18499,54576
18533,54543
18625,54505
18724,54504
18974,54504
19066,54542
19136,54613
19174,54705
19175,54804
19175,55254
19143,55331
19143,55360
19163,55381
19201,55473
19202,55572
19202,55886
19164,55978
19143,55998
19143,59907
19046,60144
18910,60280
19045,60414
19143,60651
19143,60907
19046,61144
18865,61325
18628,61423
18372,61423
18135,61326
17954,61145
17856,60908
17856,60652
17953,60415
18089,60279
17954,60145
17856,59908
17856,59652
17953,59415
18134,59234
18371,59136
18627,59136
18864,59233
19045,59414
19143,59651
19143,59907
19143,55998
19093,56048
19016,56080
19028,56093
19105,56278
19105,56480
19029,56666
19022,56672
19022,58506
17459,58506
17459,56453
18094,56453
18094,56366
17958,56231
17883,56118
17878,56096
17865,56028
17800,56028
17800,56028
17666,56001
17553,55926
17553,55926
17453,55826
17378,55713
17373,55691
17351,55580
17351,55579
17351,54380
17351,54380
17373,54268
17378,54246
17453,54133
18553,53033
18553,53033
18666,52958
18800,52931
26499,52931
26500,52931
26500,52931
26611,52953
26633,52958
26633,52958
26746,53033
27444,53731
27929,53731
27356,53494
26787,52926
26478,52183
26478,51379
26785,50636
27353,50067
28096,49758
28900,49758
29643,50065
30212,50633
30521,51376
30521,52180
30214,52923
29981,53157
30650,53157
30650,49730
" /> 
</g>
<g style="fill:#000000; fill-opacity:0.0; 
stroke:#000000; stroke-width:100; stroke-opacity:1; 
stroke-linecap:round; stroke-linejoin:round;">
<polyline fill="none;"
points="30650,49730
25261,49730
25261,52920
20538,52920
20538,49730
17174,49730
17743,49965
18312,50533
18621,51276
18621,52080
18314,52823
17746,53392
17003,53701
16843,53701
16843,55707
16745,55944
16610,56080
16745,56215
16843,56451
16843,56707
16745,56944
16610,57080
16745,57215
16843,57451
16843,57707
16745,57944
16564,58125
16328,58223
16147,58223
16147,59675
16138,59931
16058,60124
15982,60152
16035,60174
16105,60244
16143,60336
16143,61223
16105,61315
16035,61385
15943,61423
15844,61423
15612,61423
15550,61361
15550,60830
16081,60830
16143,60892
16143,61223
16143,60336
16143,60667
16081,60730
15550,60730
15550,60722
15450,60722
15450,60730
15450,60830
15450,61361
15387,61423
15155,61423
15056,61423
14964,61385
14894,61315
14856,61223
14856,60892
14918,60830
15450,60830
15450,60730
14918,60730
14856,60667
14856,60336
14894,60244
14964,60174
15017,60152
14941,60124
14852,59884
14861,59628
14941,59435
15046,59396
15429,59780
15423,59785
15494,59856
15500,59850
15505,59856
15576,59785
15570,59780
15953,59396
16058,59435
16147,59675
16147,58223
16072,58223
15883,58145
15883,59326
15500,59709
15116,59326
15155,59221
15395,59132
15651,59141
15844,59221
15883,59326
15883,58145
15835,58125
15654,57944
15556,57708
15556,57452
15654,57215
15789,57079
15654,56944
15556,56708
15556,56452
15654,56215
15789,56079
15654,55944
15556,55708
15556,55452
15654,55215
15678,55191
15664,55185
15594,55114
15556,55023
15556,54692
15619,54630
16150,54630
16150,54637
16250,54637
16250,54630
16781,54630
16843,54692
16843,55023
16805,55114
16735,55185
16721,55191
16745,55215
16843,55451
16843,55707
16843,53701
16843,53701
16843,54136
16843,54467
16781,54530
16250,54530
16250,53999
16312,53936
16543,53936
16643,53936
16735,53974
16805,54045
16843,54136
16843,53701
16199,53701
16150,53681
16150,53999
16150,54530
15619,54530
15556,54467
15556,54136
15594,54045
15664,53974
15756,53936
15856,53936
16087,53936
16150,53999
16150,53681
15456,53394
14887,52826
14650,52255
14650,63405
14885,62836
15453,62267
16196,61958
17000,61958
17743,62265
18312,62833
18621,63576
18621,64380
18314,65123
17746,65692
17175,65930
27925,65930
27356,65694
26787,65126
26478,64383
26478,63579
26785,62836
27353,62267
27446,62228
24022,62228
24022,62407
24022,65752
22459,65752
22459,64849
22232,64943
21968,64943
21724,64842
21681,64799
21666,64834
21596,64905
21504,64943
21404,64943
20695,64943
20622,64913
20622,65752
19059,65752
19059,62407
20622,62407
20622,63646
20695,63616
20795,63616
21504,63616
21595,63654
21666,63724
21681,63760
21723,63717
21967,63616
22231,63616
22459,63710
22459,62407
24022,62407
24022,62228
21467,62228
21386,62308
21201,62385
20999,62385
20813,62309
20671,62166
20594,61981
20594,61779
20662,61613
20599,61639
20500,61640
19600,61640
19508,61602
19438,61531
19400,61439
19399,61340
19399,60720
19437,60628
19508,60558
19600,60520
19616,60520
19550,60475
19428,60294
19386,60080
19428,59865
19550,59684
19705,59580
19550,59475
19428,59294
19386,59080
19428,58865
19550,58684
19705,58580
19550,58475
19428,58294
19386,58080
19428,57865
19550,57684
19705,57580
19550,57475
19428,57294
19386,57080
19428,56865
19550,56684
19705,56580
19699,56578
19528,56440
19423,56248
19416,56216
19465,56130
20050,56130
20050,56137
20150,56137
20150,56130
20734,56130
20783,56216
20776,56248
20671,56440
20500,56578
20494,56580
20649,56684
20771,56865
20813,57080
20771,57294
20649,57475
20494,57580
20649,57684
20771,57865
20813,58080
20771,58294
20649,58475
20494,58580
20649,58684
20771,58865
20813,59080
20771,59294
20649,59475
20494,59580
20649,59684
20771,59865
20813,60080
20771,60294
20649,60475
20583,60519
20599,60519
20691,60557
20761,60628
20799,60720
20800,60819
20800,61439
20782,61481
20813,61451
20998,61374
21200,61374
21386,61450
21467,61531
22633,61531
22550,61475
22428,61294
22386,61080
22428,60865
22550,60684
22705,60580
22550,60475
22428,60294
22386,60080
22428,59865
22550,59684
22705,59580
22550,59475
22428,59294
22386,59080
22428,58865
22550,58684
22705,58580
22550,58475
22428,58294
22386,58080
22428,57865
22550,57684
22705,57580
22699,57578
22528,57440
22423,57248
22416,57216
22465,57130
23050,57130
23050,57137
23150,57137
23150,57130
23734,57130
23783,57216
23776,57248
23671,57440
23500,57578
23494,57580
23649,57684
23771,57865
23813,58080
23771,58294
23649,58475
23494,58580
23649,58684
23771,58865
23813,59080
23771,59294
23649,59475
23494,59580
23649,59684
23771,59865
23813,60080
23771,60294
23649,60475
23494,60580
23649,60684
23771,60865
23813,61080
23771,61294
23649,61475
23566,61531
28155,61531
28316,61370
28300,61329
28299,61230
28299,60230
28337,60138
28408,60068
28500,60030
28599,60029
29099,60029
29191,60067
29261,60138
29299,60230
29300,60329
29300,61329
29262,61421
29191,61491
29114,61523
29046,61626
29046,61626
28714,61958
28900,61958
29643,62265
30212,62833
30521,63576
30521,64380
30214,65123
29646,65692
29075,65930
30650,65930
30650,57920
30518,57920
30518,59613
30480,59705
30410,59776
30318,59814
30218,59814
28100,59814
28100,60329
28100,61329
28062,61421
27991,61491
27899,61529
27800,61530
27300,61530
27208,61492
27138,61421
27100,61329
27099,61230
27099,61128
27067,61128
26986,61208
26801,61285
26599,61285
26413,61209
26271,61066
26194,60881
26194,60679
26270,60493
26413,60351
26598,60274
26800,60274
26986,60350
27067,60431
27099,60431
27099,60230
27137,60138
27208,60068
27300,60030
27399,60029
27899,60029
27991,60067
28061,60138
28099,60230
28100,60329
28100,59814
26281,59814
26190,59776
26119,59706
26097,59653
26075,59662
26075,60504
26075,60855
26074,60954
26036,61046
25966,61117
25874,61155
25812,61155
25750,61092
25750,60730
26012,60730
26075,60792
26075,60855
26075,60504
26075,60567
26012,60630
25750,60630
25750,60267
25812,60205
25874,60204
25966,60242
26036,60313
26074,60405
26075,60504
26075,59662
25928,59723
25672,59723
25650,59714
25650,60267
25650,60630
25642,60630
25642,60730
25650,60730
25650,61092
25587,61155
25525,61155
25433,61117
25400,61083
25366,61116
25274,61154
25175,61155
24925,61155
24833,61117
24763,61046
24755,61028
24667,61028
24586,61108
24401,61185
24199,61185
24013,61109
23871,60966
23794,60781
23794,60579
23870,60393
24013,60251
24198,60174
24400,60174
24586,60250
24667,60331
24755,60331
24762,60313
24833,60243
24925,60205
25024,60204
25274,60204
25366,60242
25400,60276
25433,60242
25525,60204
25587,60205
25650,60267
25650,59714
25435,59626
25254,59445
25156,59208
25156,58952
25253,58715
25389,58579
25254,58445
25156,58208
25156,57952
25253,57715
25434,57534
25671,57436
25927,57436
26097,57506
26119,57454
26189,57383
26281,57345
26381,57345
28545,57345
28545,56755
28325,56755
28233,56717
28200,56683
28166,56716
28074,56754
27975,56755
27725,56755
27633,56717
27567,56651
27479,56687
27380,56687
26986,56687
26894,56649
26824,56579
26814,56554
26814,56862
26776,56953
26705,57024
26613,57062
26514,57062
26479,57062
26417,57000
26417,56705
26751,56705
26814,56767
26814,56862
26814,56554
26810,56546
26751,56605
26417,56605
26417,56597
26317,56597
26317,56605
26317,56705
26317,57000
26254,57062
26219,57062
26120,57062
26028,57024
25957,56953
25919,56862
25920,56767
25982,56705
26317,56705
26317,56605
25982,56605
25920,56542
25919,56447
25957,56356
26028,56285
26041,56280
26028,56274
25982,56228
25944,56228
25937,56246
25866,56316
25774,56354
25675,56355
25425,56355
25333,56317
25300,56283
25266,56316
25174,56354
25075,56355
24825,56355
24733,56317
24663,56246
24636,56181
24636,56181
24553,56126
24553,56126
24213,55785
24099,55785
23913,55709
23771,55566
23701,55398
23649,55475
23494,55580
23649,55684
23771,55865
23813,56080
23771,56294
23649,56475
23494,56579
23500,56581
23671,56719
23776,56911
23783,56943
23734,57030
23150,57030
23150,57022
23050,57022
23050,57030
22465,57030
22416,56943
22423,56911
22528,56719
22699,56581
22705,56579
22550,56475
22428,56294
22386,56080
22428,55865
22550,55684
22705,55580
22550,55475
22428,55294
22386,55080
22428,54865
22550,54684
22705,54580
22550,54475
22428,54294
22386,54080
22428,53865
22550,53684
22633,53628
20558,53628
20671,53719
20776,53911
20783,53943
20783,54216
20776,54248
20671,54440
20500,54578
20494,54580
20500,54581
20671,54719
20776,54911
20783,54943
20783,55216
20776,55248
20671,55440
20500,55578
20494,55580
20500,55581
20671,55719
20776,55911
20783,55943
20734,56030
20150,56030
20150,55640
20150,55520
20150,55130
20734,55130
20783,55216
20783,54943
20734,55030
20150,55030
20150,54640
20150,54520
20150,54130
20734,54130
20783,54216
20783,53943
20734,54030
20150,54030
20150,54022
20050,54022
20050,54030
20050,54130
20050,54520
20050,54640
20050,55030
20050,55130
20050,55520
20050,55640
20050,56030
19465,56030
19416,55943
19423,55911
19528,55719
19699,55581
19705,55580
19699,55578
19528,55440
19423,55248
19416,55216
19465,55130
20050,55130
20050,55030
19465,55030
19416,54943
19423,54911
19528,54719
19699,54581
19705,54580
19699,54578
19528,54440
19423,54248
19416,54216
19465,54130
20050,54130
20050,54030
19465,54030
19416,53943
19423,53911
19528,53719
19641,53628
18944,53628
18067,54504
18087,54505
18150,54567
18150,54930
18142,54930
18142,55030
18150,55030
18150,55037
18250,55037
18250,55030
18257,55030
18257,54930
18250,54930
18250,54567
18312,54505
18374,54504
18466,54542
18499,54576
18533,54543
18625,54505
18724,54504
18974,54504
19066,54542
19136,54613
19174,54705
19175,54804
19175,55254
19143,55331
19143,55360
19163,55381
19201,55473
19202,55572
19202,55886
19164,55978
19143,55998
19143,59907
19046,60144
18910,60280
19045,60414
19143,60651
19143,60907
19046,61144
18865,61325
18628,61423
18372,61423
18135,61326
17954,61145
17856,60908
17856,60652
17953,60415
18089,60279
17954,60145
17856,59908
17856,59652
17953,59415
18134,59234
18371,59136
18627,59136
18864,59233
19045,59414
19143,59651
19143,59907
19143,55998
19093,56048
19016,56080
19028,56093
19105,56278
19105,56480
19029,56666
19022,56672
19022,58506
17459,58506
17459,56453
18094,56453
18094,56366
17958,56231
17883,56118
17878,56096
17865,56028
17800,56028
17800,56028
17666,56001
17553,55926
17553,55926
17453,55826
17378,55713
17373,55691
17351,55580
17351,55579
17351,54380
17351,54380
17373,54268
17378,54246
17453,54133
18553,53033
18553,53033
18666,52958
18800,52931
26499,52931
26500,52931
26500,52931
26611,52953
26633,52958
26633,52958
26746,53033
27444,53731
27929,53731
27356,53494
26787,52926
26478,52183
26478,51379
26785,50636
27353,50067
28096,49758
28900,49758
29643,50065
30212,50633
30521,51376
30521,52180
30214,52923
29981,53157
30650,53157
30650,49730
" /> 
</g>
<g style="fill:#000000; fill-opacity:1.0; 
stroke:#000000; stroke-width:39.3701; stroke-opacity:1; 
stroke-linecap:round; stroke-linejoin:round;">
<polyline style="fill-rule:evenodd;"
points="30450,31230
30321,31230
30321,28779
30014,28036
29446,27467
28703,27158
27899,27158
27156,27465
26587,28033
26278,28776
26278,29580
26585,30323
27153,30892
27896,31201
28700,31201
29443,30894
30012,30326
30321,29583
30321,28779
30321,31230
24505,31230
24505,26779
24429,26593
24286,26451
24101,26374
23899,26374
23713,26450
23632,26531
23481,26531
23449,26484
23294,26380
23449,26275
23481,26228
23799,26228
23800,26228
23800,26228
23911,26206
23933,26201
23933,26201
23957,26185
24100,26185
24286,26109
24428,25966
24505,25781
24505,25579
24429,25393
24286,25251
24101,25174
23899,25174
23713,25250
23571,25393
23513,25531
23481,25531
23449,25484
23294,25380
23449,25275
23571,25094
23613,24880
23571,24665
23449,24484
23294,24380
23300,24378
23471,24240
23576,24048
23583,24016
23534,23930
22950,23930
22950,23937
22850,23937
22850,23930
22265,23930
22216,24016
22223,24048
22328,24240
22499,24378
22505,24380
22350,24484
22228,24665
22186,24880
22228,25094
22350,25275
22505,25380
22350,25484
22228,25665
22186,25880
22228,26094
22350,26275
22505,26380
22350,26484
22228,26665
22186,26880
22228,27094
22350,27275
22531,27397
22746,27440
23053,27440
23268,27397
23449,27275
23481,27228
23632,27228
23713,27308
23898,27385
24100,27385
24286,27309
24428,27166
24505,26981
24505,26779
24505,31230
20583,31230
20583,27016
20583,26743
20576,26711
20471,26519
20300,26381
20294,26380
20300,26378
20471,26240
20576,26048
20583,26016
20583,25743
20576,25711
20471,25519
20300,25381
20294,25380
20300,25378
20471,25240
20576,25048
20583,25016
20534,24930
19950,24930
19950,25320
19950,25440
19950,25830
20534,25830
20583,25743
20583,26016
20534,25930
19950,25930
19950,26320
19950,26440
19950,26830
20534,26830
20583,26743
20583,27016
20534,26930
19950,26930
19950,27440
20090,27440
20300,27378
20471,27240
20576,27048
20583,27016
20583,31230
19850,31230
19850,27440
19850,26930
19850,26830
19850,26440
19850,26320
19850,25930
19850,25830
19850,25440
19850,25320
19850,24930
19265,24930
19216,25016
19223,25048
19328,25240
19499,25378
19505,25380
19499,25381
19328,25519
19223,25711
19216,25743
19265,25830
19850,25830
19850,25930
19265,25930
19216,26016
19223,26048
19328,26240
19499,26378
19505,26380
19499,26381
19328,26519
19223,26711
19216,26743
19265,26830
19850,26830
19850,26930
19265,26930
19216,27016
19223,27048
19328,27240
19499,27378
19710,27440
19850,27440
19850,31230
16974,31230
17543,30994
18112,30426
18421,29683
18421,28879
18114,28136
17575,27595
17575,26154
17575,26092
17512,26030
17150,26030
17150,26292
17212,26355
17275,26355
17374,26354
17466,26316
17537,26246
17575,26154
17575,27595
17546,27567
16803,27258
16643,27258
16643,26823
16643,26492
16581,26430
16050,26430
16050,26961
16112,27023
16343,27023
16443,27023
16535,26985
16605,26914
16643,26823
16643,27258
15999,27258
15950,27278
15950,26961
15950,26430
15419,26430
15356,26492
15356,26823
15394,26914
15464,26985
15556,27023
15656,27023
15887,27023
15950,26961
15950,27278
15256,27565
14687,28133
14450,28704
14450,17554
14685,18123
15253,18692
15996,19001
16785,19001
16453,19333
16378,19446
16373,19468
16351,19580
16351,19580
16351,21735
16155,21931
16100,21931
16000,21931
15947,21931
15947,21284
15938,21028
15858,20835
15782,20807
15835,20785
15905,20715
15943,20623
15943,19736
15905,19644
15835,19574
15743,19536
15644,19536
15412,19536
15350,19598
15350,20130
15881,20130
15943,20067
15943,19736
15943,20623
15943,20292
15881,20230
15350,20230
15350,20237
15250,20237
15250,20230
15250,20130
15250,19598
15187,19536
14955,19536
14856,19536
14764,19574
14694,19644
14656,19736
14656,20067
14718,20130
15250,20130
15250,20230
14718,20230
14656,20292
14656,20623
14694,20715
14764,20785
14817,20807
14741,20835
14652,21075
14661,21331
14741,21524
14846,21563
15229,21180
15223,21174
15294,21103
15300,21109
15305,21103
15376,21174
15370,21180
15753,21563
15858,21524
15947,21284
15947,21931
15800,21931
15683,21954
15683,21633
15300,21250
14916,21633
14955,21738
15195,21827
15451,21818
15644,21738
15683,21633
15683,21954
15666,21958
15553,22033
15553,22033
14953,22633
14878,22746
14873,22768
14851,22880
14851,22880
14851,24879
14851,24880
14873,24991
14878,25013
14953,25126
15371,25544
15454,25744
15478,25768
15464,25774
15394,25845
15356,25936
15356,26267
15419,26330
15950,26330
15950,26322
16050,26322
16050,26330
16581,26330
16643,26267
16643,26199
16662,26246
16733,26316
16825,26354
16924,26355
16987,26355
17050,26292
17050,26030
17042,26030
17042,25930
17050,25930
17050,25922
17150,25922
17150,25930
17512,25930
17575,25867
17575,25805
17543,25728
17599,25728
17600,25728
17600,25728
17711,25706
17733,25701
17733,25701
17846,25626
17946,25526
17946,25526
17946,25526
18386,25085
18500,25085
18686,25009
18828,24866
18905,24681
18905,24479
18829,24293
18763,24228
19318,24228
19350,24275
19505,24379
19499,24381
19328,24519
19223,24711
19216,24743
19265,24830
19850,24830
19850,24822
19950,24822
19950,24830
20534,24830
20583,24743
20576,24711
20471,24519
20300,24381
20294,24379
20449,24275
20571,24094
20613,23880
20571,23665
20449,23484
20294,23380
20449,23275
20571,23094
20613,22880
20571,22665
20449,22484
20294,22380
20449,22275
20571,22094
20613,21880
20571,21665
20449,21484
20294,21380
20449,21275
20571,21094
20613,20880
20571,20665
20449,20484
20383,20440
20399,20440
20491,20402
20561,20331
20599,20239
20600,20140
20600,19520
20582,19478
20613,19508
20798,19585
21000,19585
21009,19582
21553,20126
21553,20126
21666,20201
21799,20228
21799,20228
21800,20228
21899,20228
21900,20228
22318,20228
22350,20275
22505,20380
22350,20484
22228,20665
22186,20880
22228,21094
22350,21275
22505,21380
22350,21484
22228,21665
22186,21880
22228,22094
22350,22275
22505,22380
22350,22484
22228,22665
22186,22880
22228,23094
22350,23275
22505,23379
22499,23381
22328,23519
22223,23711
22216,23743
22265,23830
22850,23830
22850,23822
22950,23822
22950,23830
23534,23830
23583,23743
23576,23711
23471,23519
23300,23381
23294,23379
23449,23275
23481,23228
25047,23228
25053,23244
25234,23425
25471,23523
25727,23523
25964,23426
26145,23245
26157,23217
26211,23206
26233,23201
26233,23201
26346,23126
26746,22726
26746,22726
26746,22726
26821,22613
26848,22480
26848,22480
26848,22480
26848,20547
26928,20466
27005,20281
27005,20079
26929,19893
26786,19751
26601,19674
26399,19674
26213,19750
26071,19893
25994,20078
25994,20280
26070,20466
26151,20547
26151,21529
26146,21515
25965,21334
25728,21236
25472,21236
25235,21333
25054,21514
25047,21531
23481,21531
23449,21484
23294,21380
23449,21275
23481,21228
23499,21228
23500,21228
23500,21228
23611,21206
23633,21201
23633,21201
23746,21126
24086,20785
24200,20785
24386,20709
24528,20566
24605,20381
24605,20179
24529,19993
24448,19912
24448,19280
24421,19146
24346,19033
24346,19033
23746,18433
23633,18358
23611,18353
23500,18331
23499,18331
22644,18331
22248,17935
22248,17253
22275,17242
22462,17056
22563,16812
22563,16548
22462,16304
22276,16117
22032,16016
21768,16016
21524,16117
21481,16160
21466,16125
21396,16054
21304,16016
21204,16016
20495,16016
20404,16054
20333,16124
20295,16216
20295,16316
20295,17143
20333,17234
20403,17305
20495,17343
20551,17343
20551,18712
20532,18731
17454,18731
17543,18694
18112,18126
18421,17383
18421,16579
18114,15836
17546,15267
16975,15030
27725,15030
27156,15265
26587,15833
26278,16576
26278,17380
26585,18123
27153,18692
27896,19001
28700,19001
29443,18694
30012,18126
30321,17383
30321,16579
30014,15836
29446,15267
28875,15030
30450,15030
30450,31230
" /> 
</g>
<g style="fill:#000000; fill-opacity:0.0; 
stroke:#000000; stroke-width:100; stroke-opacity:1; 
stroke-linecap:round; stroke-linejoin:round;">
<polyline fill="none;"
points="30450,31230
30321,31230
30321,28779
30014,28036
29446,27467
28703,27158
27899,27158
27156,27465
26587,28033
26278,28776
26278,29580
26585,30323
27153,30892
27896,31201
28700,31201
29443,30894
30012,30326
30321,29583
30321,28779
30321,31230
24505,31230
24505,26779
24429,26593
24286,26451
24101,26374
23899,26374
23713,26450
23632,26531
23481,26531
23449,26484
23294,26380
23449,26275
23481,26228
23799,26228
23800,26228
23800,26228
23911,26206
23933,26201
23933,26201
23957,26185
24100,26185
24286,26109
24428,25966
24505,25781
24505,25579
24429,25393
24286,25251
24101,25174
23899,25174
23713,25250
23571,25393
23513,25531
23481,25531
23449,25484
23294,25380
23449,25275
23571,25094
23613,24880
23571,24665
23449,24484
23294,24380
23300,24378
23471,24240
23576,24048
23583,24016
23534,23930
22950,23930
22950,23937
22850,23937
22850,23930
22265,23930
22216,24016
22223,24048
22328,24240
22499,24378
22505,24380
22350,24484
22228,24665
22186,24880
22228,25094
22350,25275
22505,25380
22350,25484
22228,25665
22186,25880
22228,26094
22350,26275
22505,26380
22350,26484
22228,26665
22186,26880
22228,27094
22350,27275
22531,27397
22746,27440
23053,27440
23268,27397
23449,27275
23481,27228
23632,27228
23713,27308
23898,27385
24100,27385
24286,27309
24428,27166
24505,26981
24505,26779
24505,31230
20583,31230
20583,27016
20583,26743
20576,26711
20471,26519
20300,26381
20294,26380
20300,26378
20471,26240
20576,26048
20583,26016
20583,25743
20576,25711
20471,25519
20300,25381
20294,25380
20300,25378
20471,25240
20576,25048
20583,25016
20534,24930
19950,24930
19950,25320
19950,25440
19950,25830
20534,25830
20583,25743
20583,26016
20534,25930
19950,25930
19950,26320
19950,26440
19950,26830
20534,26830
20583,26743
20583,27016
20534,26930
19950,26930
19950,27440
20090,27440
20300,27378
20471,27240
20576,27048
20583,27016
20583,31230
19850,31230
19850,27440
19850,26930
19850,26830
19850,26440
19850,26320
19850,25930
19850,25830
19850,25440
19850,25320
19850,24930
19265,24930
19216,25016
19223,25048
19328,25240
19499,25378
19505,25380
19499,25381
19328,25519
19223,25711
19216,25743
19265,25830
19850,25830
19850,25930
19265,25930
19216,26016
19223,26048
19328,26240
19499,26378
19505,26380
19499,26381
19328,26519
19223,26711
19216,26743
19265,26830
19850,26830
19850,26930
19265,26930
19216,27016
19223,27048
19328,27240
19499,27378
19710,27440
19850,27440
19850,31230
16974,31230
17543,30994
18112,30426
18421,29683
18421,28879
18114,28136
17575,27595
17575,26154
17575,26092
17512,26030
17150,26030
17150,26292
17212,26355
17275,26355
17374,26354
17466,26316
17537,26246
17575,26154
17575,27595
17546,27567
16803,27258
16643,27258
16643,26823
16643,26492
16581,26430
16050,26430
16050,26961
16112,27023
16343,27023
16443,27023
16535,26985
16605,26914
16643,26823
16643,27258
15999,27258
15950,27278
15950,26961
15950,26430
15419,26430
15356,26492
15356,26823
15394,26914
15464,26985
15556,27023
15656,27023
15887,27023
15950,26961
15950,27278
15256,27565
14687,28133
14450,28704
14450,17554
14685,18123
15253,18692
15996,19001
16785,19001
16453,19333
16378,19446
16373,19468
16351,19580
16351,19580
16351,21735
16155,21931
16100,21931
16000,21931
15947,21931
15947,21284
15938,21028
15858,20835
15782,20807
15835,20785
15905,20715
15943,20623
15943,19736
15905,19644
15835,19574
15743,19536
15644,19536
15412,19536
15350,19598
15350,20130
15881,20130
15943,20067
15943,19736
15943,20623
15943,20292
15881,20230
15350,20230
15350,20237
15250,20237
15250,20230
15250,20130
15250,19598
15187,19536
14955,19536
14856,19536
14764,19574
14694,19644
14656,19736
14656,20067
14718,20130
15250,20130
15250,20230
14718,20230
14656,20292
14656,20623
14694,20715
14764,20785
14817,20807
14741,20835
14652,21075
14661,21331
14741,21524
14846,21563
15229,21180
15223,21174
15294,21103
15300,21109
15305,21103
15376,21174
15370,21180
15753,21563
15858,21524
15947,21284
15947,21931
15800,21931
15683,21954
15683,21633
15300,21250
14916,21633
14955,21738
15195,21827
15451,21818
15644,21738
15683,21633
15683,21954
15666,21958
15553,22033
15553,22033
14953,22633
14878,22746
14873,22768
14851,22880
14851,22880
14851,24879
14851,24880
14873,24991
14878,25013
14953,25126
15371,25544
15454,25744
15478,25768
15464,25774
15394,25845
15356,25936
15356,26267
15419,26330
15950,26330
15950,26322
16050,26322
16050,26330
16581,26330
16643,26267
16643,26199
16662,26246
16733,26316
16825,26354
16924,26355
16987,26355
17050,26292
17050,26030
17042,26030
17042,25930
17050,25930
17050,25922
17150,25922
17150,25930
17512,25930
17575,25867
17575,25805
17543,25728
17599,25728
17600,25728
17600,25728
17711,25706
17733,25701
17733,25701
17846,25626
17946,25526
17946,25526
17946,25526
18386,25085
18500,25085
18686,25009
18828,24866
18905,24681
18905,24479
18829,24293
18763,24228
19318,24228
19350,24275
19505,24379
19499,24381
19328,24519
19223,24711
19216,24743
19265,24830
19850,24830
19850,24822
19950,24822
19950,24830
20534,24830
20583,24743
20576,24711
20471,24519
20300,24381
20294,24379
20449,24275
20571,24094
20613,23880
20571,23665
20449,23484
20294,23380
20449,23275
20571,23094
20613,22880
20571,22665
20449,22484
20294,22380
20449,22275
20571,22094
20613,21880
20571,21665
20449,21484
20294,21380
20449,21275
20571,21094
20613,20880
20571,20665
20449,20484
20383,20440
20399,20440
20491,20402
20561,20331
20599,20239
20600,20140
20600,19520
20582,19478
20613,19508
20798,19585
21000,19585
21009,19582
21553,20126
21553,20126
21666,20201
21799,20228
21799,20228
21800,20228
21899,20228
21900,20228
22318,20228
22350,20275
22505,20380
22350,20484
22228,20665
22186,20880
22228,21094
22350,21275
22505,21380
22350,21484
22228,21665
22186,21880
22228,22094
22350,22275
22505,22380
22350,22484
22228,22665
22186,22880
22228,23094
22350,23275
22505,23379
22499,23381
22328,23519
22223,23711
22216,23743
22265,23830
22850,23830
22850,23822
22950,23822
22950,23830
23534,23830
23583,23743
23576,23711
23471,23519
23300,23381
23294,23379
23449,23275
23481,23228
25047,23228
25053,23244
25234,23425
25471,23523
25727,23523
25964,23426
26145,23245
26157,23217
26211,23206
26233,23201
26233,23201
26346,23126
26746,22726
26746,22726
26746,22726
26821,22613
26848,22480
26848,22480
26848,22480
26848,20547
26928,20466
27005,20281
27005,20079
26929,19893
26786,19751
26601,19674
26399,19674
26213,19750
26071,19893
25994,20078
25994,20280
26070,20466
26151,20547
26151,21529
26146,21515
25965,21334
25728,21236
25472,21236
25235,21333
25054,21514
25047,21531
23481,21531
23449,21484
23294,21380
23449,21275
23481,21228
23499,21228
23500,21228
23500,21228
23611,21206
23633,21201
23633,21201
23746,21126
24086,20785
24200,20785
24386,20709
24528,20566
24605,20381
24605,20179
24529,19993
24448,19912
24448,19280
24421,19146
24346,19033
24346,19033
23746,18433
23633,18358
23611,18353
23500,18331
23499,18331
22644,18331
22248,17935
22248,17253
22275,17242
22462,17056
22563,16812
22563,16548
22462,16304
22276,16117
22032,16016
21768,16016
21524,16117
21481,16160
21466,16125
21396,16054
21304,16016
21204,16016
20495,16016
20404,16054
20333,16124
20295,16216
20295,16316
20295,17143
20333,17234
20403,17305
20495,17343
20551,17343
20551,18712
20532,18731
17454,18731
17543,18694
18112,18126
18421,17383
18421,16579
18114,15836
17546,15267
16975,15030
27725,15030
27156,15265
26587,15833
26278,16576
26278,17380
26585,18123
27153,18692
27896,19001
28700,19001
29443,18694
30012,18126
30321,17383
30321,16579
30014,15836
29446,15267
28875,15030
30450,15030
30450,31230
" /> 
</g>
<g style="fill:#FFFFFF; fill-opacity:0.0; 
stroke:#FFFFFF; stroke-width:39.3701; stroke-opacity:1; 
stroke-linecap:round; stroke-linejoin:round;">
</g>
<g style="fill:#FFFFFF; fill-opacity:1.0; 
stroke:#FFFFFF; stroke-width:39.3701; stroke-opacity:1; 
stroke-linecap:round; stroke-linejoin:round;">
<circle cx="18400" cy="24580" r="105.315" /> 
<circle cx="20900" cy="19080" r="105.315" /> 
<circle cx="21100" cy="61880" r="105.315" /> 
<circle cx="18600" cy="56380" r="105.315" /> 
<circle cx="24600" cy="23880" r="105.315" /> 
<circle cx="18900" cy="26880" r="105.315" /> 
<circle cx="27500" cy="25380" r="105.315" /> 
<circle cx="27700" cy="55580" r="105.315" /> 
<circle cx="19100" cy="54080" r="105.315" /> 
<circle cx="24800" cy="57080" r="105.315" /> 
<circle cx="24000" cy="26880" r="105.315" /> 
<circle cx="24200" cy="54080" r="105.315" /> 
<circle cx="24000" cy="25680" r="105.315" /> 
<circle cx="24200" cy="55280" r="105.315" /> 
<circle cx="26500" cy="20180" r="105.315" /> 
<circle cx="26700" cy="60780" r="105.315" /> 
<circle cx="24100" cy="20280" r="105.315" /> 
<circle cx="24300" cy="60680" r="105.315" /> 
<circle cx="28300" cy="29180" r="767.815" /> 
<circle cx="16400" cy="29280" r="767.815" /> 
<circle cx="28300" cy="16980" r="767.815" /> 
<circle cx="16400" cy="16980" r="767.815" /> 
<circle cx="19900" cy="19880" r="140.315" /> 
<circle cx="19900" cy="20880" r="140.315" /> 
<circle cx="19900" cy="21880" r="140.315" /> 
<circle cx="19900" cy="22880" r="140.315" /> 
<circle cx="19900" cy="23880" r="140.315" /> 
<circle cx="19900" cy="24880" r="140.315" /> 
<circle cx="19900" cy="25880" r="140.315" /> 
<circle cx="19900" cy="26880" r="140.315" /> 
<circle cx="22900" cy="26880" r="140.315" /> 
<circle cx="22900" cy="25880" r="140.315" /> 
<circle cx="22900" cy="24880" r="140.315" /> 
<circle cx="22900" cy="23880" r="140.315" /> 
<circle cx="22900" cy="22880" r="140.315" /> 
<circle cx="22900" cy="21880" r="140.315" /> 
<circle cx="22900" cy="20880" r="140.315" /> 
<circle cx="22900" cy="19880" r="140.315" /> 
<circle cx="15300" cy="20180" r="140.315" /> 
<circle cx="15300" cy="21180" r="140.315" /> 
<circle cx="18300" cy="21180" r="140.315" /> 
<circle cx="18300" cy="20180" r="140.315" /> 
<circle cx="20900" cy="16680" r="137.815" /> 
<circle cx="21900" cy="16680" r="137.815" /> 
<circle cx="16000" cy="26380" r="177.315" /> 
<circle cx="16000" cy="25380" r="177.315" /> 
<circle cx="16000" cy="24380" r="177.315" /> 
<circle cx="16000" cy="23380" r="177.315" /> 
<circle cx="25600" cy="21880" r="98.4252" /> 
<circle cx="25600" cy="22880" r="98.4252" /> 
<circle cx="25800" cy="59080" r="98.4252" /> 
<circle cx="25800" cy="58080" r="98.4252" /> 
<circle cx="16200" cy="54580" r="177.315" /> 
<circle cx="16200" cy="55580" r="177.315" /> 
<circle cx="16200" cy="56580" r="177.315" /> 
<circle cx="16200" cy="57580" r="177.315" /> 
<circle cx="21100" cy="64280" r="137.815" /> 
<circle cx="22100" cy="64280" r="137.815" /> 
<circle cx="15500" cy="60780" r="140.315" /> 
<circle cx="15500" cy="59780" r="140.315" /> 
<circle cx="18500" cy="59780" r="140.315" /> 
<circle cx="18500" cy="60780" r="140.315" /> 
<circle cx="20100" cy="61080" r="140.315" /> 
<circle cx="20100" cy="60080" r="140.315" /> 
<circle cx="20100" cy="59080" r="140.315" /> 
<circle cx="20100" cy="58080" r="140.315" /> 
<circle cx="20100" cy="57080" r="140.315" /> 
<circle cx="20100" cy="56080" r="140.315" /> 
<circle cx="20100" cy="55080" r="140.315" /> 
<circle cx="20100" cy="54080" r="140.315" /> 
<circle cx="23100" cy="54080" r="140.315" /> 
<circle cx="23100" cy="55080" r="140.315" /> 
<circle cx="23100" cy="56080" r="140.315" /> 
<circle cx="23100" cy="57080" r="140.315" /> 
<circle cx="23100" cy="58080" r="140.315" /> 
<circle cx="23100" cy="59080" r="140.315" /> 
<circle cx="23100" cy="60080" r="140.315" /> 
<circle cx="23100" cy="61080" r="140.315" /> 
<circle cx="16600" cy="63980" r="767.815" /> 
<circle cx="28500" cy="63980" r="767.815" /> 
<circle cx="16600" cy="51680" r="767.815" /> 
<circle cx="28500" cy="51780" r="767.815" /> 
</g> 
</svg>
